Thin.ufo
<glyph name="uni0022" format="2">
  <advance width="393"/>
  <unicode hex="0022"/>
  <outline>
    <contour>
      <point x="126" y="515" type="line"/>
      <point x="126" y="777" type="line"/>
      <point x="106" y="777" type="line"/>
      <point x="106" y="515" type="line"/>
    </contour>
    <contour>
      <point x="287" y="515" type="line"/>
      <point x="287" y="777" type="line"/>
      <point x="267" y="777" type="line"/>
      <point x="267" y="515" type="line"/>
    </contour>
  </outline>
</glyph>
<glyph name="uni0023" format="2">
  <advance width="748"/>
  <unicode hex="0023"/>
  <outline>
    <contour>
      <point x="213" y="0" type="line"/>
      <point x="253" y="231" type="line"/>
      <point x="449" y="231" type="line"/>
      <point x="409" y="0" type="line"/>
      <point x="430" y="0" type="line"/>
      <point x="470" y="231" type="line"/>
      <point x="633" y="231" type="line"/>
      <point x="633" y="250" type="line"/>
      <point x="473" y="250" type="line"/>
      <point x="513" y="483" type="line"/>
      <point x="674" y="483" type="line"/>
      <point x="674" y="502" type="line"/>
      <point x="516" y="502" type="line"/>
      <point x="556" y="733" type="line"/>
      <point x="535" y="733" type="line"/>
      <point x="495" y="502" type="line"/>
      <point x="299" y="502" type="line"/>
      <point x="339" y="733" type="line"/>
      <point x="318" y="733" type="line"/>
      <point x="278" y="502" type="line"/>
      <point x="115" y="502" type="line"/>
      <point x="115" y="483" type="line"/>
      <point x="275" y="483" type="line"/>
      <point x="235" y="250" type="line"/>
      <point x="74" y="250" type="line"/>
      <point x="74" y="231" type="line"/>
      <point x="232" y="231" type="line"/>
      <point x="192" y="0" type="line"/>
    </contour>
    <contour>
      <point x="296" y="483" type="line"/>
      <point x="492" y="483" type="line"/>
      <point x="452" y="250" type="line"/>
      <point x="256" y="250" type="line"/>
    </contour>
  </outline>
</glyph>
<glyph name="uni0024" format="2">
  <advance width="573"/>
  <unicode hex="0024"/>
  <outline>
    <contour>
      <point x="298" y="0" type="line"/>
      <point x="433" y="2"/>
      <point x="512" y="69"/>
      <point x="512" y="194" type="curve" smooth="yes"/>
      <point x="512" y="278"/>
      <point x="479" y="354"/>
      <point x="328" y="382" type="curve" smooth="yes"/>
      <point x="254" y="395" type="line" smooth="yes"/>
      <point x="163" y="410"/>
      <point x="83" y="446"/>
      <point x="83" y="557" type="curve" smooth="yes"/>
      <point x="83" y="663"/>
      <point x="160" y="713"/>
      <point x="288" y="713" type="curve" smooth="yes"/>
      <point x="295" y="713" type="line" smooth="yes"/>
      <point x="388" y="713"/>
      <point x="443" y="677"/>
      <point x="482" y="621" type="curve"/>
      <point x="500" y="633" type="line"/>
      <point x="463" y="688"/>
      <point x="401" y="733"/>
      <point x="294" y="733" type="curve" smooth="yes"/>
      <point x="287" y="733" type="line" smooth="yes"/>
      <point x="152" y="733"/>
      <point x="61" y="678"/>
      <point x="61" y="557" type="curve" smooth="yes"/>
      <point x="61" y="474"/>
      <point x="100" y="400"/>
      <point x="248" y="376" type="curve" smooth="yes"/>
      <point x="321" y="363" type="line" smooth="yes"/>
      <point x="410" y="345"/>
      <point x="490" y="315"/>
      <point x="490" y="193" type="curve" smooth="yes"/>
      <point x="490" y="82"/>
      <point x="422" y="21"/>
      <point x="295" y="20" type="curve"/>
      <point x="287" y="20" type="line"/>
      <point x="175" y="21"/>
      <point x="112" y="68"/>
      <point x="62" y="133" type="curve"/>
      <point x="44" y="120" type="line"/>
      <point x="96" y="54"/>
      <point x="166" y="2"/>
      <point x="284" y="0" type="curve"/>
    </contour>
    <contour>
      <point x="301" y="-86" type="line"/>
      <point x="301" y="11" type="line"/>
      <point x="281" y="11" type="line"/>
      <point x="281" y="-86" type="line"/>
    </contour>
    <contour>
      <point x="301" y="11" type="line"/>
      <point x="301" y="379" type="line"/>
      <point x="281" y="379" type="line"/>
      <point x="281" y="11" type="line"/>
    </contour>
    <contour>
      <point x="301" y="379" type="line"/>
      <point x="301" y="718" type="line"/>
      <point x="281" y="718" type="line"/>
      <point x="281" y="379" type="line"/>
    </contour>
    <contour>
      <point x="301" y="728" type="line"/>
      <point x="301" y="819" type="line"/>
      <point x="281" y="819" type="line"/>
      <point x="281" y="728" type="line"/>
    </contour>
  </outline>
</glyph>
<glyph name="uni0025" format="2">
  <advance width="926"/>
  <unicode hex="0025"/>
  <outline>
    <contour>
      <point x="220" y="0" type="line"/>
      <point x="729" y="733" type="line"/>
      <point x="706" y="733" type="line"/>
      <point x="197" y="0" type="line"/>
    </contour>
    <contour>
      <point x="229" y="342" type="curve" smooth="yes"/>
      <point x="310" y="342"/>
      <point x="378" y="400"/>
      <point x="378" y="544" type="curve" smooth="yes"/>
      <point x="378" y="688"/>
      <point x="310" y="746"/>
      <point x="229" y="746" type="curve" smooth="yes"/>
      <point x="148" y="746"/>
      <point x="80" y="688"/>
      <point x="80" y="544" type="curve" smooth="yes"/>
      <point x="80" y="400"/>
      <point x="148" y="342"/>
    </contour>
    <contour>
      <point x="229" y="359" type="curve" smooth="yes"/>
      <point x="163" y="359"/>
      <point x="102" y="406"/>
      <point x="102" y="527" type="curve" smooth="yes"/>
      <point x="102" y="561" type="line" smooth="yes"/>
      <point x="102" y="682"/>
      <point x="163" y="729"/>
      <point x="229" y="729" type="curve" smooth="yes"/>
      <point x="295" y="729"/>
      <point x="356" y="682"/>
      <point x="356" y="561" type="curve" smooth="yes"/>
      <point x="356" y="527" type="line" smooth="yes"/>
      <point x="356" y="406"/>
      <point x="295" y="359"/>
    </contour>
    <contour>
      <point x="697" y="-13" type="curve" smooth="yes"/>
      <point x="778" y="-13"/>
      <point x="846" y="45"/>
      <point x="846" y="189" type="curve" smooth="yes"/>
      <point x="846" y="333"/>
      <point x="778" y="391"/>
      <point x="697" y="391" type="curve" smooth="yes"/>
      <point x="616" y="391"/>
      <point x="548" y="333"/>
      <point x="548" y="189" type="curve" smooth="yes"/>
      <point x="548" y="45"/>
      <point x="616" y="-13"/>
    </contour>
    <contour>
      <point x="697" y="4" type="curve" smooth="yes"/>
      <point x="631" y="4"/>
      <point x="570" y="51"/>
      <point x="570" y="172" type="curve" smooth="yes"/>
      <point x="570" y="206" type="line" smooth="yes"/>
      <point x="570" y="327"/>
      <point x="631" y="374"/>
      <point x="697" y="374" type="curve" smooth="yes"/>
      <point x="763" y="374"/>
      <point x="824" y="327"/>
      <point x="824" y="206" type="curve" smooth="yes"/>
      <point x="824" y="172" type="line" smooth="yes"/>
      <point x="824" y="51"/>
      <point x="763" y="4"/>
    </contour>
  </outline>
</glyph>
<glyph name="uni0027" format="2">
  <advance width="232"/>
  <unicode hex="0027"/>
  <outline>
    <contour>
      <point x="126" y="515" type="line"/>
      <point x="126" y="777" type="line"/>
      <point x="106" y="777" type="line"/>
      <point x="106" y="515" type="line"/>
    </contour>
  </outline>
</glyph>
<glyph name="uni0028" format="2">
  <advance width="350"/>
  <unicode hex="0028"/>
  <outline>
    <contour>
      <point x="109" y="328" type="curve" smooth="yes"/>
      <point x="109" y="113"/>
      <point x="206" y="-55"/>
      <point x="302" y="-144" type="curve"/>
      <point x="328" y="-144" type="line"/>
      <point x="225" y="-53"/>
      <point x="130" y="115"/>
      <point x="130" y="310" type="curve" smooth="yes"/>
      <point x="130" y="345" type="line" smooth="yes"/>
      <point x="130" y="540"/>
      <point x="225" y="708"/>
      <point x="327" y="799" type="curve"/>
      <point x="302" y="799" type="line"/>
      <point x="206" y="710"/>
      <point x="109" y="542"/>
    </contour>
  </outline>
</glyph>
<glyph name="uni0029" format="2">
  <advance width="350"/>
  <unicode hex="0029"/>
  <outline>
    <contour>
      <point x="241" y="328" type="curve" smooth="yes"/>
      <point x="241" y="542"/>
      <point x="144" y="710"/>
      <point x="48" y="799" type="curve"/>
      <point x="23" y="799" type="line"/>
      <point x="125" y="708"/>
      <point x="220" y="540"/>
      <point x="220" y="345" type="curve" smooth="yes"/>
      <point x="220" y="310" type="line" smooth="yes"/>
      <point x="220" y="115"/>
      <point x="125" y="-53"/>
      <point x="22" y="-144" type="curve"/>
      <point x="48" y="-144" type="line"/>
      <point x="144" y="-55"/>
      <point x="241" y="113"/>
    </contour>
  </outline>
</glyph>
<glyph name="uni002A" format="2">
  <advance width="380"/>
  <unicode hex="002A"/>
  <outline>
    <contour>
      <point x="190" y="594" type="line"/>
      <point x="289" y="458" type="line"/>
      <point x="303" y="468" type="line"/>
      <point x="203" y="604" type="line"/>
      <point x="361" y="652" type="line"/>
      <point x="355" y="671" type="line"/>
      <point x="198" y="619" type="line"/>
      <point x="200" y="784" type="line"/>
      <point x="180" y="784" type="line"/>
      <point x="182" y="619" type="line"/>
      <point x="25" y="671" type="line"/>
      <point x="19" y="652" type="line"/>
      <point x="177" y="604" type="line"/>
      <point x="77" y="468" type="line"/>
      <point x="91" y="458" type="line"/>
    </contour>
  </outline>
</glyph>
<glyph name="uni002B" format="2">
  <advance width="630"/>
  <unicode hex="002B"/>
  <outline>
    <contour>
      <point x="326" y="65" type="line"/>
      <point x="326" y="311" type="line"/>
      <point x="566" y="311" type="line"/>
      <point x="566" y="330" type="line"/>
      <point x="326" y="330" type="line"/>
      <point x="326" y="576" type="line"/>
      <point x="305" y="576" type="line"/>
      <point x="305" y="330" type="line"/>
      <point x="65" y="330" type="line"/>
      <point x="65" y="311" type="line"/>
      <point x="305" y="311" type="line"/>
      <point x="305" y="65" type="line"/>
    </contour>
  </outline>
</glyph>
<glyph name="uni002D" format="2">
  <advance width="414"/>
  <unicode hex="002D"/>
  <unicode hex="2011"/>
  <outline>
    <contour>
      <point x="327" y="310" type="line"/>
      <point x="327" y="330" type="line"/>
      <point x="87" y="330" type="line"/>
      <point x="87" y="310" type="line"/>
    </contour>
  </outline>
</glyph>
<glyph name="uni0030" format="2">
  <advance width="630"/>
  <unicode hex="0030"/>
  <outline>
    <contour>
      <point x="315" y="-13" type="curve" smooth="yes"/>
      <point x="468" y="-13"/>
      <point x="555" y="98"/>
      <point x="555" y="366" type="curve" smooth="yes"/>
      <point x="555" y="634"/>
      <point x="468" y="745"/>
      <point x="315" y="745" type="curve" smooth="yes"/>
      <point x="162" y="745"/>
      <point x="75" y="634"/>
      <point x="75" y="366" type="curve" smooth="yes"/>
      <point x="75" y="98"/>
      <point x="162" y="-13"/>
    </contour>
    <contour>
      <point x="315" y="7" type="curve" smooth="yes"/>
      <point x="175" y="7"/>
      <point x="99" y="117"/>
      <point x="99" y="333" type="curve" smooth="yes"/>
      <point x="99" y="400" type="line" smooth="yes"/>
      <point x="99" y="615"/>
      <point x="175" y="725"/>
      <point x="315" y="725" type="curve" smooth="yes"/>
      <point x="455" y="725"/>
      <point x="531" y="615"/>
      <point x="531" y="400" type="curve" smooth="yes"/>
      <point x="531" y="333" type="line" smooth="yes"/>
      <point x="531" y="117"/>
      <point x="455" y="7"/>
    </contour>
  </outline>
</glyph>
<glyph name="uni0031" format="2">
  <advance width="630"/>
  <unicode hex="0031"/>
  <outline>
    <contour>
      <point x="572" y="20" type="line"/>
      <point x="350" y="20" type="line"/>
      <point x="350" y="733" type="line"/>
      <point x="312" y="733" type="line"/>
      <point x="84" y="543" type="line"/>
      <point x="98" y="527" type="line"/>
      <point x="324" y="716" type="line"/>
      <point x="328" y="716" type="line"/>
      <point x="328" y="20" type="line"/>
      <point x="98" y="20" type="line"/>
      <point x="98" y="0" type="line"/>
      <point x="572" y="0" type="line"/>
    </contour>
  </outline>
</glyph>
<glyph name="uni0033" format="2">
  <advance width="630"/>
  <unicode hex="0033"/>
  <outline>
    <contour>
      <point x="195" y="374" type="line"/>
      <point x="296" y="374" type="line" smooth="yes"/>
      <point x="415" y="374"/>
      <point x="491" y="308"/>
      <point x="491" y="208" type="curve" smooth="yes"/>
      <point x="491" y="179" type="line" smooth="yes"/>
      <point x="491" y="76"/>
      <point x="411" y="7"/>
      <point x="297" y="7" type="curve" smooth="yes"/>
      <point x="203" y="7"/>
      <point x="138" y="39"/>
      <point x="92" y="110" type="curve"/>
      <point x="74" y="100" type="line"/>
      <point x="122" y="23"/>
      <point x="195" y="-13"/>
      <point x="297" y="-13" type="curve" smooth="yes"/>
      <point x="431" y="-13"/>
      <point x="515" y="67"/>
      <point x="515" y="196" type="curve" smooth="yes"/>
      <point x="515" y="305"/>
      <point x="450" y="371"/>
      <point x="352" y="383" type="curve"/>
      <point x="352" y="386" type="line"/>
      <point x="438" y="403"/>
      <point x="499" y="459"/>
      <point x="499" y="563" type="curve" smooth="yes"/>
      <point x="499" y="674"/>
      <point x="421" y="746"/>
      <point x="301" y="746" type="curve" smooth="yes"/>
      <point x="196" y="746"/>
      <point x="129" y="697"/>
      <point x="100" y="629" type="curve"/>
      <point x="119" y="622" type="line"/>
      <point x="150" y="685"/>
      <point x="204" y="726"/>
      <point x="301" y="726" type="curve" smooth="yes"/>
      <point x="403" y="726"/>
      <point x="475" y="665"/>
      <point x="475" y="573" type="curve" smooth="yes"/>
      <point x="475" y="548" type="line" smooth="yes"/>
      <point x="475" y="458"/>
      <point x="400" y="394"/>
      <point x="294" y="394" type="curve" smooth="yes"/>
      <point x="195" y="394" type="line"/>
    </contour>
  </outline>
</glyph>
<glyph name="uni0036" format="2">
  <advance width="630"/>
  <unicode hex="0036"/>
  <outline>
    <contour>
      <point x="315" y="-13" type="curve" smooth="yes"/>
      <point x="450" y="-13"/>
      <point x="537" y="78"/>
      <point x="537" y="215" type="curve" smooth="yes"/>
      <point x="537" y="353"/>
      <point x="449" y="438"/>
      <point x="314" y="438" type="curve" smooth="yes"/>
      <point x="228" y="438"/>
      <point x="158" y="401"/>
      <point x="121" y="326" type="curve"/>
      <point x="118" y="327" type="line"/>
      <point x="147" y="501"/>
      <point x="240" y="627"/>
      <point x="411" y="733" type="curve"/>
      <point x="379" y="733" type="line"/>
      <point x="216" y="633"/>
      <point x="91" y="475"/>
      <point x="91" y="237" type="curve" smooth="yes"/>
      <point x="91" y="98"/>
      <point x="155" y="-13"/>
    </contour>
    <contour>
      <point x="314" y="7" type="curve" smooth="yes"/>
      <point x="192" y="7"/>
      <point x="115" y="90"/>
      <point x="115" y="200" type="curve" smooth="yes"/>
      <point x="115" y="229" type="line" smooth="yes"/>
      <point x="115" y="335"/>
      <point x="189" y="418"/>
      <point x="314" y="418" type="curve" smooth="yes"/>
      <point x="438" y="418"/>
      <point x="513" y="335"/>
      <point x="513" y="229" type="curve" smooth="yes"/>
      <point x="513" y="196" type="line" smooth="yes"/>
      <point x="513" y="89"/>
      <point x="437" y="7"/>
    </contour>
  </outline>
</glyph>
<glyph name="uni0038" format="2">
  <advance width="630"/>
  <unicode hex="0038"/>
  <outline>
    <contour>
      <point x="315" y="-13" type="curve" smooth="yes"/>
      <point x="462" y="-13"/>
      <point x="554" y="67"/>
      <point x="554" y="189" type="curve" smooth="yes"/>
      <point x="554" y="293"/>
      <point x="492" y="365"/>
      <point x="393" y="382" type="curve"/>
      <point x="393" y="386" type="line"/>
      <point x="477" y="403"/>
      <point x="529" y="467"/>
      <point x="529" y="562" type="curve" smooth="yes"/>
      <point x="529" y="674"/>
      <point x="446" y="745"/>
      <point x="315" y="745" type="curve" smooth="yes"/>
      <point x="184" y="745"/>
      <point x="101" y="674"/>
      <point x="101" y="562" type="curve" smooth="yes"/>
      <point x="101" y="467"/>
      <point x="153" y="403"/>
      <point x="237" y="386" type="curve"/>
      <point x="237" y="382" type="line"/>
      <point x="138" y="365"/>
      <point x="76" y="293"/>
      <point x="76" y="189" type="curve" smooth="yes"/>
      <point x="76" y="67"/>
      <point x="168" y="-13"/>
    </contour>
    <contour>
      <point x="315" y="7" type="curve" smooth="yes"/>
      <point x="185" y="7"/>
      <point x="100" y="78"/>
      <point x="100" y="177" type="curve" smooth="yes"/>
      <point x="100" y="205" type="line" smooth="yes"/>
      <point x="100" y="305"/>
      <point x="185" y="374"/>
      <point x="315" y="374" type="curve" smooth="yes"/>
      <point x="445" y="374"/>
      <point x="530" y="305"/>
      <point x="530" y="205" type="curve" smooth="yes"/>
      <point x="530" y="177" type="line" smooth="yes"/>
      <point x="530" y="78"/>
      <point x="445" y="7"/>
    </contour>
    <contour>
      <point x="315" y="394" type="curve" smooth="yes"/>
      <point x="201" y="394"/>
      <point x="125" y="456"/>
      <point x="125" y="547" type="curve" smooth="yes"/>
      <point x="125" y="572" type="line" smooth="yes"/>
      <point x="125" y="664"/>
      <point x="201" y="725"/>
      <point x="315" y="725" type="curve" smooth="yes"/>
      <point x="429" y="725"/>
      <point x="505" y="664"/>
      <point x="505" y="572" type="curve" smooth="yes"/>
      <point x="505" y="547" type="line" smooth="yes"/>
      <point x="505" y="456"/>
      <point x="429" y="394"/>
    </contour>
  </outline>
</glyph>
<glyph name="uni003C" format="2">
  <advance width="630"/>
  <unicode hex="003C"/>
  <outline>
    <contour>
      <point x="541" y="41" type="line"/>
      <point x="541" y="64" type="line"/>
      <point x="112" y="319" type="line"/>
      <point x="112" y="321" type="line"/>
      <point x="541" y="576" type="line"/>
      <point x="541" y="599" type="line"/>
      <point x="89" y="329" type="line"/>
      <point x="89" y="311" type="line"/>
    </contour>
  </outline>
</glyph>
<glyph name="uni003E" format="2">
  <advance width="630"/>
  <unicode hex="003E"/>
  <outline>
    <contour>
      <point x="541" y="329" type="line"/>
      <point x="89" y="599" type="line"/>
      <point x="89" y="576" type="line"/>
      <point x="518" y="321" type="line"/>
      <point x="518" y="319" type="line"/>
      <point x="89" y="64" type="line"/>
      <point x="89" y="41" type="line"/>
      <point x="541" y="311" type="line"/>
    </contour>
  </outline>
</glyph>
<glyph name="uni0043" format="2">
  <advance width="641"/>
  <unicode hex="0043"/>
  <outline>
    <contour>
      <point x="345" y="-13" type="curve" smooth="yes"/>
      <point x="458" y="-13"/>
      <point x="540" y="51"/>
      <point x="576" y="147" type="curve"/>
      <point x="558" y="154" type="line"/>
      <point x="522" y="63"/>
      <point x="449" y="7"/>
      <point x="345" y="7" type="curve" smooth="yes"/>
      <point x="191" y="7"/>
      <point x="98" y="118"/>
      <point x="98" y="344" type="curve" smooth="yes"/>
      <point x="98" y="389" type="line" smooth="yes"/>
      <point x="98" y="615"/>
      <point x="191" y="726"/>
      <point x="345" y="726" type="curve" smooth="yes"/>
      <point x="441" y="726"/>
      <point x="515" y="673"/>
      <point x="552" y="587" type="curve"/>
      <point x="571" y="595" type="line"/>
      <point x="532" y="685"/>
      <point x="453" y="746"/>
      <point x="345" y="746" type="curve" smooth="yes"/>
      <point x="172" y="746"/>
      <point x="74" y="619"/>
      <point x="74" y="366" type="curve" smooth="yes"/>
      <point x="74" y="114"/>
      <point x="172" y="-13"/>
    </contour>
  </outline>
</glyph>
<glyph name="uni0046" format="2">
  <advance width="562"/>
  <unicode hex="0046"/>
  <outline>
    <contour>
      <point x="135" y="362" type="line"/>
      <point x="490" y="362" type="line"/>
      <point x="490" y="382" type="line"/>
      <point x="135" y="382" type="line"/>
      <point x="135" y="713" type="line"/>
      <point x="505" y="713" type="line"/>
      <point x="505" y="733" type="line"/>
      <point x="113" y="733" type="line"/>
      <point x="113" y="0" type="line"/>
      <point x="135" y="0" type="line"/>
    </contour>
  </outline>
</glyph>
<glyph name="uni0051" format="2">
  <advance width="714"/>
  <unicode hex="0051"/>
  <outline>
    <contour>
      <point x="478" y="-153" type="line"/>
      <point x="478" y="-133" type="line"/>
      <point x="369" y="-133" type="line"/>
      <point x="369" y="-13" type="line"/>
      <point x="544" y="-7"/>
      <point x="640" y="121"/>
      <point x="640" y="366" type="curve" smooth="yes"/>
      <point x="640" y="619"/>
      <point x="539" y="746"/>
      <point x="357" y="746" type="curve" smooth="yes"/>
      <point x="175" y="746"/>
      <point x="74" y="619"/>
      <point x="74" y="366" type="curve" smooth="yes"/>
      <point x="74" y="120"/>
      <point x="170" y="-8"/>
      <point x="347" y="-13" type="curve"/>
      <point x="347" y="-124" type="line" smooth="yes"/>
      <point x="347" y="-144"/>
      <point x="356" y="-153"/>
      <point x="376" y="-153" type="curve" smooth="yes"/>
    </contour>
    <contour>
      <point x="357" y="7" type="curve" smooth="yes"/>
      <point x="195" y="7"/>
      <point x="98" y="122"/>
      <point x="98" y="344" type="curve" smooth="yes"/>
      <point x="98" y="389" type="line" smooth="yes"/>
      <point x="98" y="611"/>
      <point x="195" y="726"/>
      <point x="357" y="726" type="curve" smooth="yes"/>
      <point x="519" y="726"/>
      <point x="616" y="611"/>
      <point x="616" y="389" type="curve" smooth="yes"/>
      <point x="616" y="344" type="line" smooth="yes"/>
      <point x="616" y="122"/>
      <point x="519" y="7"/>
    </contour>
  </outline>
</glyph>
<glyph name="uni0053" format="2">
  <advance width="573"/>
  <unicode hex="0053"/>
  <outline>
    <contour>
      <point x="290" y="-13" type="curve" smooth="yes"/>
      <point x="425" y="-13"/>
      <point x="512" y="55"/>
      <point x="512" y="187" type="curve" smooth="yes"/>
      <point x="512" y="272"/>
      <point x="478" y="352"/>
      <point x="328" y="380" type="curve" smooth="yes"/>
      <point x="254" y="394" type="line" smooth="yes"/>
      <point x="163" y="411"/>
      <point x="83" y="446"/>
      <point x="83" y="561" type="curve" smooth="yes"/>
      <point x="83" y="672"/>
      <point x="158" y="726"/>
      <point x="282" y="726" type="curve" smooth="yes"/>
      <point x="377" y="726"/>
      <point x="440" y="694"/>
      <point x="482" y="633" type="curve"/>
      <point x="500" y="646" type="line"/>
      <point x="461" y="705"/>
      <point x="393" y="746"/>
      <point x="285" y="746" type="curve" smooth="yes"/>
      <point x="149" y="746"/>
      <point x="61" y="686"/>
      <point x="61" y="561" type="curve" smooth="yes"/>
      <point x="61" y="476"/>
      <point x="100" y="401"/>
      <point x="248" y="373" type="curve" smooth="yes"/>
      <point x="321" y="359" type="line" smooth="yes"/>
      <point x="410" y="342"/>
      <point x="490" y="308"/>
      <point x="490" y="185" type="curve" smooth="yes"/>
      <point x="490" y="68"/>
      <point x="417" y="7"/>
      <point x="290" y="7" type="curve" smooth="yes"/>
      <point x="176" y="7"/>
      <point x="113" y="53"/>
      <point x="62" y="120" type="curve"/>
      <point x="44" y="107" type="line"/>
      <point x="97" y="38"/>
      <point x="168" y="-13"/>
    </contour>
  </outline>
</glyph>
<glyph name="uni0055" format="2">
  <advance width="685"/>
  <unicode hex="0055"/>
  <outline>
    <contour>
      <point x="105" y="284" type="line" smooth="yes"/>
      <point x="105" y="66"/>
      <point x="166" y="-13"/>
      <point x="342" y="-13" type="curve" smooth="yes"/>
      <point x="518" y="-13"/>
      <point x="579" y="66"/>
      <point x="579" y="284" type="curve" smooth="yes"/>
      <point x="579" y="733" type="line"/>
      <point x="557" y="733" type="line"/>
      <point x="557" y="281" type="line" smooth="yes"/>
      <point x="557" y="81"/>
      <point x="506" y="7"/>
      <point x="342" y="7" type="curve" smooth="yes"/>
      <point x="178" y="7"/>
      <point x="127" y="81"/>
      <point x="127" y="281" type="curve" smooth="yes"/>
      <point x="127" y="733" type="line"/>
      <point x="105" y="733" type="line"/>
    </contour>
  </outline>
</glyph>
<glyph name="uni0056" format="2">
  <advance width="616"/>
  <unicode hex="0056"/>
  <outline>
    <contour>
      <point x="324" y="0" type="line"/>
      <point x="576" y="733" type="line"/>
      <point x="553" y="733" type="line"/>
      <point x="310" y="24" type="line"/>
      <point x="310" y="24" type="line"/>
      <point x="307" y="24" type="line"/>
      <point x="307" y="24" type="line"/>
      <point x="64" y="733" type="line"/>
      <point x="40" y="733" type="line"/>
      <point x="292" y="0" type="line"/>
    </contour>
  </outline>
</glyph>
<glyph name="uni0057" format="2">
  <advance width="942"/>
  <unicode hex="0057"/>
  <outline>
    <contour>
      <point x="272" y="0" type="line"/>
      <point x="469" y="708" type="line"/>
      <point x="469" y="708" type="line"/>
      <point x="472" y="708" type="line"/>
      <point x="472" y="708" type="line"/>
      <point x="670" y="0" type="line"/>
      <point x="702" y="0" type="line"/>
      <point x="897" y="733" type="line"/>
      <point x="874" y="733" type="line"/>
      <point x="687" y="31" type="line"/>
      <point x="687" y="31" type="line"/>
      <point x="684" y="31" type="line"/>
      <point x="684" y="31" type="line"/>
      <point x="488" y="733" type="line"/>
      <point x="454" y="733" type="line"/>
      <point x="258" y="31" type="line"/>
      <point x="258" y="31" type="line"/>
      <point x="255" y="31" type="line"/>
      <point x="255" y="31" type="line"/>
      <point x="69" y="733" type="line"/>
      <point x="45" y="733" type="line"/>
      <point x="240" y="0" type="line"/>
    </contour>
  </outline>
</glyph>
<glyph name="uni0058" format="2">
  <advance width="584"/>
  <unicode hex="0058"/>
  <outline>
    <contour>
      <point x="292" y="354" type="line"/>
      <point x="294" y="354" type="line"/>
      <point x="529" y="0" type="line"/>
      <point x="556" y="0" type="line"/>
      <point x="307" y="375" type="line"/>
      <point x="546" y="733" type="line"/>
      <point x="519" y="733" type="line"/>
      <point x="293" y="393" type="line"/>
      <point x="291" y="393" type="line"/>
      <point x="65" y="733" type="line"/>
      <point x="38" y="733" type="line"/>
      <point x="278" y="372" type="line"/>
      <point x="28" y="0" type="line"/>
      <point x="55" y="0" type="line"/>
    </contour>
  </outline>
</glyph>
<glyph name="uni0059" format="2">
  <advance width="572"/>
  <unicode hex="0059"/>
  <outline>
    <contour>
      <point x="297" y="309" type="line"/>
      <point x="550" y="733" type="line"/>
      <point x="526" y="733" type="line"/>
      <point x="288" y="334" type="line"/>
      <point x="285" y="334" type="line"/>
      <point x="47" y="733" type="line"/>
      <point x="22" y="733" type="line"/>
      <point x="275" y="309" type="line"/>
      <point x="275" y="0" type="line"/>
      <point x="297" y="0" type="line"/>
    </contour>
  </outline>
</glyph>
<glyph name="uni005D" format="2">
  <advance width="317"/>
  <unicode hex="005D"/>
  <outline>
    <contour>
      <point x="204" y="798" type="line"/>
      <point x="74" y="798" type="line"/>
      <point x="74" y="780" type="line"/>
      <point x="184" y="780" type="line"/>
      <point x="184" y="-127" type="line"/>
      <point x="74" y="-127" type="line"/>
      <point x="74" y="-145" type="line"/>
      <point x="204" y="-145" type="line"/>
    </contour>
  </outline>
</glyph>
<glyph name="uni0066" format="2">
  <advance width="299"/>
  <unicode hex="0066"/>
  <outline>
    <contour>
      <point x="150" y="0" type="line"/>
      <point x="150" y="512" type="line"/>
      <point x="273" y="512" type="line"/>
      <point x="273" y="531" type="line"/>
      <point x="150" y="531" type="line"/>
      <point x="150" y="758" type="line"/>
      <point x="273" y="758" type="line"/>
      <point x="273" y="777" type="line"/>
      <point x="160" y="777" type="line" smooth="yes"/>
      <point x="139" y="777"/>
      <point x="129" y="768"/>
      <point x="129" y="747" type="curve" smooth="yes"/>
      <point x="129" y="531" type="line"/>
      <point x="32" y="531" type="line"/>
      <point x="32" y="512" type="line"/>
      <point x="129" y="512" type="line"/>
      <point x="129" y="0" type="line"/>
    </contour>
  </outline>
</glyph>
<glyph name="uni0067" format="2">
  <advance width="553"/>
  <unicode hex="0067"/>
  <outline>
    <contour>
      <point x="275" y="-223" type="curve" smooth="yes"/>
      <point x="435" y="-223"/>
      <point x="526" y="-174"/>
      <point x="526" y="-68" type="curve" smooth="yes"/>
      <point x="526" y="7"/>
      <point x="476" y="56"/>
      <point x="355" y="56" type="curve" smooth="yes"/>
      <point x="213" y="56" type="line" smooth="yes"/>
      <point x="139" y="56"/>
      <point x="121" y="85"/>
      <point x="121" y="114" type="curve" smooth="yes"/>
      <point x="121" y="153"/>
      <point x="153" y="180"/>
      <point x="217" y="196" type="curve"/>
      <point x="238" y="192"/>
      <point x="255" y="189"/>
      <point x="276" y="189" type="curve" smooth="yes"/>
      <point x="385" y="189"/>
      <point x="457" y="258"/>
      <point x="457" y="366" type="curve" smooth="yes"/>
      <point x="457" y="419"/>
      <point x="440" y="461"/>
      <point x="412" y="491" type="curve"/>
      <point x="412" y="570" type="line"/>
      <point x="529" y="570" type="line"/>
      <point x="529" y="589" type="line"/>
      <point x="421" y="589" type="line" smooth="yes"/>
      <point x="401" y="589"/>
      <point x="393" y="581"/>
      <point x="393" y="561" type="curve" smooth="yes"/>
      <point x="393" y="509" type="line"/>
      <point x="362" y="532"/>
      <point x="323" y="544"/>
      <point x="276" y="544" type="curve" smooth="yes"/>
      <point x="165" y="544"/>
      <point x="95" y="474"/>
      <point x="95" y="366" type="curve" smooth="yes"/>
      <point x="95" y="287"/>
      <point x="131" y="233"/>
      <point x="190" y="207" type="curve"/>
      <point x="190" y="204" type="line"/>
      <point x="144" y="190"/>
      <point x="101" y="162"/>
      <point x="101" y="113" type="curve" smooth="yes"/>
      <point x="101" y="80"/>
      <point x="118" y="56"/>
      <point x="156" y="44" type="curve"/>
      <point x="156" y="41" type="line"/>
      <point x="91" y="20"/>
      <point x="53" y="-23"/>
      <point x="53" y="-86" type="curve" smooth="yes"/>
      <point x="53" y="-168"/>
      <point x="119" y="-223"/>
    </contour>
    <contour>
      <point x="250" y="-204" type="line" smooth="yes"/>
      <point x="142" y="-204"/>
      <point x="75" y="-157"/>
      <point x="75" y="-87" type="curve" smooth="yes"/>
      <point x="75" y="-19"/>
      <point x="122" y="19"/>
      <point x="189" y="36" type="curve"/>
      <point x="352" y="36" type="line" smooth="yes"/>
      <point x="466" y="36"/>
      <point x="504" y="-3"/>
      <point x="504" y="-68" type="curve" smooth="yes"/>
      <point x="504" y="-163"/>
      <point x="421" y="-204"/>
      <point x="301" y="-204" type="curve" smooth="yes"/>
    </contour>
    <contour>
      <point x="276" y="208" type="curve" smooth="yes"/>
      <point x="178" y="208"/>
      <point x="119" y="268"/>
      <point x="119" y="347" type="curve" smooth="yes"/>
      <point x="119" y="386" type="line" smooth="yes"/>
      <point x="119" y="465"/>
      <point x="177" y="525"/>
      <point x="276" y="525" type="curve" smooth="yes"/>
      <point x="376" y="525"/>
      <point x="433" y="465"/>
      <point x="433" y="386" type="curve" smooth="yes"/>
      <point x="433" y="347" type="line" smooth="yes"/>
      <point x="433" y="269"/>
      <point x="376" y="208"/>
    </contour>
  </outline>
</glyph>
<glyph name="uni006C" format="2">
  <advance width="264"/>
  <unicode hex="006C"/>
  <outline>
    <contour>
      <point x="219" y="19" type="line"/>
      <point x="131" y="19" type="line"/>
      <point x="131" y="777" type="line"/>
      <point x="110" y="777" type="line"/>
      <point x="110" y="30" type="line" smooth="yes"/>
      <point x="110" y="9"/>
      <point x="120" y="0"/>
      <point x="141" y="0" type="curve" smooth="yes"/>
      <point x="219" y="0" type="line"/>
    </contour>
  </outline>
</glyph>
<glyph name="uni006D" format="2">
  <advance width="923"/>
  <unicode hex="006D"/>
  <outline>
    <contour>
      <point x="131" y="0" type="line"/>
      <point x="131" y="380" type="line" smooth="yes"/>
      <point x="131" y="478"/>
      <point x="208" y="525"/>
      <point x="293" y="525" type="curve" smooth="yes"/>
      <point x="397" y="525"/>
      <point x="456" y="467"/>
      <point x="456" y="338" type="curve" smooth="yes"/>
      <point x="456" y="0" type="line"/>
      <point x="477" y="0" type="line"/>
      <point x="477" y="378" type="line" smooth="yes"/>
      <point x="477" y="477"/>
      <point x="552" y="525"/>
      <point x="639" y="525" type="curve" smooth="yes"/>
      <point x="745" y="525"/>
      <point x="802" y="467"/>
      <point x="802" y="338" type="curve" smooth="yes"/>
      <point x="802" y="0" type="line"/>
      <point x="823" y="0" type="line"/>
      <point x="823" y="341" type="line" smooth="yes"/>
      <point x="823" y="474"/>
      <point x="760" y="544"/>
      <point x="642" y="544" type="curve" smooth="yes"/>
      <point x="543" y="544"/>
      <point x="487" y="495"/>
      <point x="467" y="426" type="curve"/>
      <point x="463" y="426" type="line"/>
      <point x="442" y="503"/>
      <point x="382" y="544"/>
      <point x="295" y="544" type="curve" smooth="yes"/>
      <point x="202" y="544"/>
      <point x="153" y="499"/>
      <point x="134" y="452" type="curve"/>
      <point x="131" y="452" type="line"/>
      <point x="131" y="531" type="line"/>
      <point x="110" y="531" type="line"/>
      <point x="110" y="0" type="line"/>
    </contour>
  </outline>
</glyph>
<glyph name="uni0072" format="2">
  <advance width="358"/>
  <unicode hex="0072"/>
  <outline>
    <contour>
      <point x="131" y="0" type="line"/>
      <point x="131" y="366" type="line" smooth="yes"/>
      <point x="131" y="465"/>
      <point x="211" y="512"/>
      <point x="298" y="512" type="curve" smooth="yes"/>
      <point x="344" y="512" type="line"/>
      <point x="344" y="531" type="line"/>
      <point x="301" y="531" type="line" smooth="yes"/>
      <point x="203" y="531"/>
      <point x="159" y="489"/>
      <point x="134" y="440" type="curve"/>
      <point x="131" y="440" type="line"/>
      <point x="131" y="531" type="line"/>
      <point x="110" y="531" type="line"/>
      <point x="110" y="0" type="line"/>
    </contour>
  </outline>
</glyph>
<glyph name="uni0073" format="2">
  <advance width="486"/>
  <unicode hex="0073"/>
  <outline>
    <contour>
      <point x="249" y="-13" type="curve" smooth="yes"/>
      <point x="357" y="-13"/>
      <point x="424" y="40"/>
      <point x="424" y="131" type="curve" smooth="yes"/>
      <point x="424" y="225"/>
      <point x="364" y="264"/>
      <point x="272" y="278" type="curve"/>
      <point x="226" y="286" type="line"/>
      <point x="134" y="300"/>
      <point x="91" y="331"/>
      <point x="91" y="410" type="curve" smooth="yes"/>
      <point x="91" y="485"/>
      <point x="150" y="525"/>
      <point x="239" y="525" type="curve" smooth="yes"/>
      <point x="324" y="525"/>
      <point x="365" y="490"/>
      <point x="398" y="454" type="curve"/>
      <point x="414" y="467" type="line"/>
      <point x="379" y="506"/>
      <point x="331" y="544"/>
      <point x="238" y="544" type="curve" smooth="yes"/>
      <point x="144" y="544"/>
      <point x="70" y="498"/>
      <point x="70" y="408" type="curve" smooth="yes"/>
      <point x="70" y="317"/>
      <point x="128" y="280"/>
      <point x="222" y="266" type="curve"/>
      <point x="268" y="258" type="line"/>
      <point x="357" y="245"/>
      <point x="403" y="211"/>
      <point x="403" y="130" type="curve" smooth="yes"/>
      <point x="403" y="50"/>
      <point x="350" y="6"/>
      <point x="249" y="6" type="curve" smooth="yes"/>
      <point x="171" y="6"/>
      <point x="119" y="31"/>
      <point x="70" y="97" type="curve"/>
      <point x="52" y="85" type="line"/>
      <point x="102" y="16"/>
      <point x="164" y="-13"/>
    </contour>
  </outline>
</glyph>
<glyph name="uni0074" format="2">
  <advance width="326"/>
  <unicode hex="0074"/>
  <outline>
    <contour>
      <point x="272" y="0" type="line"/>
      <point x="272" y="19" type="line"/>
      <point x="152" y="19" type="line"/>
      <point x="152" y="512" type="line"/>
      <point x="280" y="512" type="line"/>
      <point x="280" y="531" type="line"/>
      <point x="152" y="531" type="line"/>
      <point x="152" y="683" type="line"/>
      <point x="131" y="683" type="line"/>
      <point x="131" y="558" type="line" smooth="yes"/>
      <point x="131" y="539"/>
      <point x="126" y="531"/>
      <point x="107" y="531" type="curve" smooth="yes"/>
      <point x="33" y="531" type="line"/>
      <point x="33" y="512" type="line"/>
      <point x="131" y="512" type="line"/>
      <point x="131" y="30" type="line" smooth="yes"/>
      <point x="131" y="9"/>
      <point x="141" y="0"/>
      <point x="162" y="0" type="curve" smooth="yes"/>
    </contour>
  </outline>
</glyph>
<glyph name="uni0076" format="2">
  <advance width="476"/>
  <unicode hex="0076"/>
  <outline>
    <contour>
      <point x="251" y="0" type="line"/>
      <point x="449" y="531" type="line"/>
      <point x="428" y="531" type="line"/>
      <point x="240" y="24" type="line"/>
      <point x="240" y="24" type="line"/>
      <point x="237" y="24" type="line"/>
      <point x="237" y="24" type="line"/>
      <point x="49" y="531" type="line"/>
      <point x="27" y="531" type="line"/>
      <point x="225" y="0" type="line"/>
    </contour>
  </outline>
</glyph>
<glyph name="uni007B" format="2">
  <advance width="331"/>
  <unicode hex="007B"/>
  <outline>
    <contour>
      <point x="257" y="-144" type="line"/>
      <point x="257" y="-126" type="line"/>
      <point x="153" y="-126" type="line"/>
      <point x="153" y="216" type="line" smooth="yes"/>
      <point x="153" y="278"/>
      <point x="112" y="318"/>
      <point x="49" y="318" type="curve"/>
      <point x="49" y="334" type="line"/>
      <point x="112" y="334"/>
      <point x="153" y="374"/>
      <point x="153" y="436" type="curve" smooth="yes"/>
      <point x="153" y="778" type="line"/>
      <point x="257" y="778" type="line"/>
      <point x="257" y="796" type="line"/>
      <point x="158" y="796" type="line" smooth="yes"/>
      <point x="141" y="796"/>
      <point x="133" y="789"/>
      <point x="133" y="770" type="curve" smooth="yes"/>
      <point x="133" y="436" type="line" smooth="yes"/>
      <point x="133" y="376"/>
      <point x="94" y="350"/>
      <point x="31" y="350" type="curve"/>
      <point x="31" y="302" type="line"/>
      <point x="94" y="302"/>
      <point x="133" y="276"/>
      <point x="133" y="216" type="curve" smooth="yes"/>
      <point x="133" y="-118" type="line" smooth="yes"/>
      <point x="133" y="-137"/>
      <point x="141" y="-144"/>
      <point x="158" y="-144" type="curve" smooth="yes"/>
    </contour>
  </outline>
</glyph>
<glyph name="uni007C" format="2">
  <advance width="248"/>
  <unicode hex="007C"/>
  <outline>
    <contour>
      <point x="134" y="-145" type="line"/>
      <point x="134" y="798" type="line"/>
      <point x="114" y="798" type="line"/>
      <point x="114" y="-145" type="line"/>
    </contour>
  </outline>
</glyph>
<glyph name="uni00A4" format="2">
  <advance width="616"/>
  <unicode hex="00A4"/>
  <outline>
    <contour>
      <point x="155" y="200" type="line"/>
      <point x="190" y="159"/>
      <point x="242" y="137"/>
      <point x="308" y="137" type="curve" smooth="yes"/>
      <point x="374" y="137"/>
      <point x="426" y="159"/>
      <point x="461" y="200" type="curve"/>
      <point x="577" y="83" type="line"/>
      <point x="592" y="98" type="line"/>
      <point x="474" y="216" type="line"/>
      <point x="498" y="252"/>
      <point x="510" y="304"/>
      <point x="510" y="367" type="curve" smooth="yes"/>
      <point x="510" y="430"/>
      <point x="498" y="482"/>
      <point x="474" y="518" type="curve"/>
      <point x="592" y="636" type="line"/>
      <point x="577" y="651" type="line"/>
      <point x="461" y="534" type="line"/>
      <point x="426" y="575"/>
      <point x="374" y="597"/>
      <point x="308" y="597" type="curve" smooth="yes"/>
      <point x="242" y="597"/>
      <point x="190" y="575"/>
      <point x="155" y="534" type="curve"/>
      <point x="39" y="651" type="line"/>
      <point x="24" y="636" type="line"/>
      <point x="142" y="518" type="line"/>
      <point x="118" y="482"/>
      <point x="106" y="430"/>
      <point x="106" y="367" type="curve" smooth="yes"/>
      <point x="106" y="304"/>
      <point x="118" y="252"/>
      <point x="142" y="216" type="curve"/>
      <point x="24" y="98" type="line"/>
      <point x="39" y="83" type="line"/>
    </contour>
    <contour>
      <point x="308" y="156" type="curve" smooth="yes"/>
      <point x="194" y="156"/>
      <point x="129" y="228"/>
      <point x="129" y="343" type="curve" smooth="yes"/>
      <point x="129" y="391" type="line" smooth="yes"/>
      <point x="129" y="506"/>
      <point x="194" y="578"/>
      <point x="308" y="578" type="curve" smooth="yes"/>
      <point x="422" y="578"/>
      <point x="487" y="506"/>
      <point x="487" y="391" type="curve" smooth="yes"/>
      <point x="487" y="343" type="line" smooth="yes"/>
      <point x="487" y="228"/>
      <point x="422" y="156"/>
    </contour>
  </outline>
</glyph>
<glyph name="uni00A5" format="2">
  <advance width="610"/>
  <unicode hex="00A5"/>
  <outline>
    <contour>
      <point x="316" y="0" type="line"/>
      <point x="316" y="177" type="line"/>
      <point x="523" y="177" type="line"/>
      <point x="523" y="196" type="line"/>
      <point x="316" y="196" type="line"/>
      <point x="316" y="342" type="line"/>
      <point x="523" y="342" type="line"/>
      <point x="523" y="361" type="line"/>
      <point x="326" y="361" type="line"/>
      <point x="559" y="733" type="line"/>
      <point x="535" y="733" type="line"/>
      <point x="307" y="365" type="line"/>
      <point x="304" y="365" type="line"/>
      <point x="76" y="733" type="line"/>
      <point x="51" y="733" type="line"/>
      <point x="282" y="361" type="line"/>
      <point x="87" y="361" type="line"/>
      <point x="87" y="342" type="line"/>
      <point x="294" y="342" type="line"/>
      <point x="294" y="196" type="line"/>
      <point x="87" y="196" type="line"/>
      <point x="87" y="177" type="line"/>
      <point x="294" y="177" type="line"/>
      <point x="294" y="0" type="line"/>
    </contour>
  </outline>
</glyph>
<glyph name="uni00A8" format="2">
  <advance width="630"/>
  <unicode hex="00A8"/>
  <outline>
    <contour>
      <point x="221" y="675" type="curve" smooth="yes"/>
      <point x="238" y="675"/>
      <point x="244" y="685"/>
      <point x="244" y="696" type="curve" smooth="yes"/>
      <point x="244" y="703" type="line" smooth="yes"/>
      <point x="244" y="714"/>
      <point x="238" y="724"/>
      <point x="221" y="724" type="curve" smooth="yes"/>
      <point x="204" y="724"/>
      <point x="198" y="714"/>
      <point x="198" y="703" type="curve" smooth="yes"/>
      <point x="198" y="696" type="line" smooth="yes"/>
      <point x="198" y="685"/>
      <point x="204" y="675"/>
    </contour>
    <contour>
      <point x="409" y="675" type="curve" smooth="yes"/>
      <point x="426" y="675"/>
      <point x="432" y="685"/>
      <point x="432" y="696" type="curve" smooth="yes"/>
      <point x="432" y="703" type="line" smooth="yes"/>
      <point x="432" y="714"/>
      <point x="426" y="724"/>
      <point x="409" y="724" type="curve" smooth="yes"/>
      <point x="392" y="724"/>
      <point x="386" y="714"/>
      <point x="386" y="703" type="curve" smooth="yes"/>
      <point x="386" y="696" type="line" smooth="yes"/>
      <point x="386" y="685"/>
      <point x="392" y="675"/>
    </contour>
  </outline>
</glyph>
<glyph name="uni00A9" format="2">
  <advance width="744"/>
  <unicode hex="00A9"/>
  <outline>
    <contour>
      <point x="372" y="-13" type="curve" smooth="yes"/>
      <point x="570" y="-13"/>
      <point x="709" y="137"/>
      <point x="709" y="366" type="curve" smooth="yes"/>
      <point x="709" y="596"/>
      <point x="570" y="746"/>
      <point x="372" y="746" type="curve" smooth="yes"/>
      <point x="174" y="746"/>
      <point x="35" y="596"/>
      <point x="35" y="366" type="curve" smooth="yes"/>
      <point x="35" y="137"/>
      <point x="174" y="-13"/>
    </contour>
    <contour>
      <point x="369" y="156" type="curve" smooth="yes"/>
      <point x="436" y="156"/>
      <point x="484" y="193"/>
      <point x="504" y="240" type="curve"/>
      <point x="489" y="248" type="line"/>
      <point x="469" y="202"/>
      <point x="427" y="173"/>
      <point x="370" y="173" type="curve" smooth="yes"/>
      <point x="287" y="173"/>
      <point x="232" y="234"/>
      <point x="232" y="353" type="curve" smooth="yes"/>
      <point x="232" y="374" type="line" smooth="yes"/>
      <point x="232" y="492"/>
      <point x="287" y="553"/>
      <point x="371" y="553" type="curve" smooth="yes"/>
      <point x="428" y="553"/>
      <point x="466" y="526"/>
      <point x="484" y="480" type="curve"/>
      <point x="500" y="485" type="line"/>
      <point x="483" y="533"/>
      <point x="439" y="570"/>
      <point x="371" y="570" type="curve" smooth="yes"/>
      <point x="275" y="570"/>
      <point x="212" y="499"/>
      <point x="212" y="363" type="curve" smooth="yes"/>
      <point x="212" y="227"/>
      <point x="275" y="156"/>
    </contour>
    <contour>
      <point x="372" y="5" type="curve" smooth="yes"/>
      <point x="183" y="5"/>
      <point x="57" y="150"/>
      <point x="57" y="343" type="curve" smooth="yes"/>
      <point x="57" y="390" type="line" smooth="yes"/>
      <point x="57" y="583"/>
      <point x="183" y="728"/>
      <point x="372" y="728" type="curve" smooth="yes"/>
      <point x="561" y="728"/>
      <point x="687" y="583"/>
      <point x="687" y="390" type="curve" smooth="yes"/>
      <point x="687" y="343" type="line" smooth="yes"/>
      <point x="687" y="150"/>
      <point x="561" y="5"/>
    </contour>
  </outline>
</glyph>
<glyph name="uni00E1" format="2">
  <advance width="545"/>
  <unicode hex="00E1"/>
  <outline>
    <contour>
      <point x="351" y="777" type="line"/>
      <point x="332" y="789" type="line"/>
      <point x="215" y="627" type="line"/>
      <point x="230" y="617" type="line"/>
    </contour>
    <contour>
      <point x="235" y="-13" type="curve" smooth="yes"/>
      <point x="333" y="-13"/>
      <point x="383" y="30"/>
      <point x="410" y="81" type="curve"/>
      <point x="413" y="81" type="line"/>
      <point x="413" y="30" type="line" smooth="yes"/>
      <point x="413" y="9"/>
      <point x="422" y="0"/>
      <point x="443" y="0" type="curve" smooth="yes"/>
      <point x="522" y="0" type="line"/>
      <point x="522" y="19" type="line"/>
      <point x="434" y="19" type="line"/>
      <point x="434" y="370" type="line" smooth="yes"/>
      <point x="434" y="482"/>
      <point x="376" y="544"/>
      <point x="261" y="544" type="curve" smooth="yes"/>
      <point x="163" y="544"/>
      <point x="111" y="501"/>
      <point x="82" y="433" type="curve"/>
      <point x="100" y="425" type="line"/>
      <point x="129" y="495"/>
      <point x="182" y="525"/>
      <point x="261" y="525" type="curve" smooth="yes"/>
      <point x="360" y="525"/>
      <point x="413" y="477"/>
      <point x="413" y="366" type="curve" smooth="yes"/>
      <point x="413" y="289" type="line"/>
      <point x="264" y="289" type="line" smooth="yes"/>
      <point x="111" y="289"/>
      <point x="64" y="225"/>
      <point x="64" y="137" type="curve" smooth="yes"/>
      <point x="64" y="41"/>
      <point x="126" y="-13"/>
    </contour>
    <contour>
      <point x="235" y="6" type="curve" smooth="yes"/>
      <point x="148" y="6"/>
      <point x="87" y="46"/>
      <point x="87" y="121" type="curve" smooth="yes"/>
      <point x="87" y="152" type="line" smooth="yes"/>
      <point x="87" y="224"/>
      <point x="139" y="271"/>
      <point x="265" y="271" type="curve" smooth="yes"/>
      <point x="413" y="271" type="line"/>
      <point x="413" y="155" type="line" smooth="yes"/>
      <point x="413" y="56"/>
      <point x="330" y="6"/>
    </contour>
  </outline>
</glyph>
<glyph name="uni00ED" format="2">
  <advance width="242"/>
  <unicode hex="00ED"/>
  <outline>
    <contour>
      <point x="132" y="0" type="line"/>
      <point x="132" y="531" type="line"/>
      <point x="110" y="531" type="line"/>
      <point x="110" y="0" type="line"/>
    </contour>
    <contour>
      <point x="225" y="777" type="line"/>
      <point x="206" y="789" type="line"/>
      <point x="89" y="627" type="line"/>
      <point x="104" y="617" type="line"/>
    </contour>
  </outline>
</glyph>
<glyph name="uni00F9" format="2">
  <advance width="584"/>
  <unicode hex="00F9"/>
  <outline>
    <contour>
      <point x="283" y="-13" type="curve" smooth="yes"/>
      <point x="379" y="-13"/>
      <point x="431" y="32"/>
      <point x="450" y="79" type="curve"/>
      <point x="453" y="79" type="line"/>
      <point x="453" y="0" type="line"/>
      <point x="474" y="0" type="line"/>
      <point x="474" y="531" type="line"/>
      <point x="453" y="531" type="line"/>
      <point x="453" y="151" type="line" smooth="yes"/>
      <point x="453" y="53"/>
      <point x="373" y="6"/>
      <point x="285" y="6" type="curve" smooth="yes"/>
      <point x="180" y="6"/>
      <point x="121" y="64"/>
      <point x="121" y="194" type="curve" smooth="yes"/>
      <point x="121" y="531" type="line"/>
      <point x="100" y="531" type="line"/>
      <point x="100" y="190" type="line" smooth="yes"/>
      <point x="100" y="57"/>
      <point x="164" y="-13"/>
    </contour>
    <contour>
      <point x="319" y="627" type="line"/>
      <point x="202" y="789" type="line"/>
      <point x="183" y="777" type="line"/>
      <point x="304" y="617" type="line"/>
    </contour>
  </outline>
</glyph>
<glyph name="uni0113" format="2">
  <advance width="560"/>
  <unicode hex="0113"/>
  <outline>
    <contour>
      <point x="414" y="692" type="line"/>
      <point x="414" y="710" type="line"/>
      <point x="147" y="710" type="line"/>
      <point x="147" y="692" type="line"/>
    </contour>
    <contour>
      <point x="286" y="-13" type="curve" smooth="yes"/>
      <point x="387" y="-13"/>
      <point x="457" y="43"/>
      <point x="488" y="130" type="curve"/>
      <point x="470" y="137" type="line"/>
      <point x="438" y="50"/>
      <point x="375" y="6"/>
      <point x="286" y="6" type="curve" smooth="yes"/>
      <point x="159" y="6"/>
      <point x="86" y="97"/>
      <point x="86" y="240" type="curve" smooth="yes"/>
      <point x="86" y="270" type="line"/>
      <point x="497" y="270" type="line"/>
      <point x="497" y="279" type="line" smooth="yes"/>
      <point x="497" y="442"/>
      <point x="410" y="544"/>
      <point x="281" y="544" type="curve" smooth="yes"/>
      <point x="145" y="544"/>
      <point x="63" y="448"/>
      <point x="63" y="266" type="curve" smooth="yes"/>
      <point x="63" y="82"/>
      <point x="147" y="-13"/>
    </contour>
    <contour>
      <point x="86" y="291" type="line" smooth="yes"/>
      <point x="86" y="434"/>
      <point x="157" y="525"/>
      <point x="281" y="525" type="curve" smooth="yes"/>
      <point x="397" y="525"/>
      <point x="474" y="434"/>
      <point x="474" y="293" type="curve" smooth="yes"/>
      <point x="474" y="289" type="line"/>
      <point x="86" y="289" type="line"/>
    </contour>
  </outline>
</glyph>
<glyph name="uni0148" format="2">
  <advance width="584"/>
  <unicode hex="0148"/>
  <outline>
    <contour>
      <point x="131" y="0" type="line"/>
      <point x="131" y="380" type="line" smooth="yes"/>
      <point x="131" y="478"/>
      <point x="211" y="525"/>
      <point x="299" y="525" type="curve" smooth="yes"/>
      <point x="404" y="525"/>
      <point x="463" y="467"/>
      <point x="463" y="337" type="curve" smooth="yes"/>
      <point x="463" y="0" type="line"/>
      <point x="484" y="0" type="line"/>
      <point x="484" y="341" type="line" smooth="yes"/>
      <point x="484" y="474"/>
      <point x="420" y="544"/>
      <point x="301" y="544" type="curve" smooth="yes"/>
      <point x="205" y="544"/>
      <point x="153" y="499"/>
      <point x="134" y="452" type="curve"/>
      <point x="131" y="452" type="line"/>
      <point x="131" y="531" type="line"/>
      <point x="110" y="531" type="line"/>
      <point x="110" y="0" type="line"/>
    </contour>
    <contour>
      <point x="306" y="632" type="line"/>
      <point x="441" y="772" type="line"/>
      <point x="427" y="783" type="line"/>
      <point x="294" y="649" type="line"/>
      <point x="161" y="783" type="line"/>
      <point x="147" y="772" type="line"/>
      <point x="282" y="632" type="line"/>
    </contour>
  </outline>
</glyph>
<glyph name="uni01D0" format="2">
  <advance width="243"/>
  <unicode hex="01D0"/>
  <outline>
    <contour>
      <point x="131" y="0" type="line"/>
      <point x="131" y="531" type="line"/>
      <point x="110" y="531" type="line"/>
      <point x="110" y="0" type="line"/>
    </contour>
    <contour>
      <point x="133" y="634" type="line"/>
      <point x="267" y="773" type="line"/>
      <point x="253" y="785" type="line"/>
      <point x="120" y="652" type="line"/>
      <point x="-12" y="785" type="line"/>
      <point x="-27" y="773" type="line"/>
      <point x="108" y="634" type="line"/>
    </contour>
  </outline>
</glyph>
<glyph name="uni01D2" format="2">
  <advance width="567"/>
  <unicode hex="01D2"/>
  <outline>
    <contour>
      <point x="297" y="634" type="line"/>
      <point x="431" y="773" type="line"/>
      <point x="417" y="785" type="line"/>
      <point x="284" y="652" type="line"/>
      <point x="152" y="785" type="line"/>
      <point x="137" y="773" type="line"/>
      <point x="272" y="634" type="line"/>
    </contour>
    <contour>
      <point x="284" y="-13" type="curve" smooth="yes"/>
      <point x="422" y="-13"/>
      <point x="504" y="82"/>
      <point x="504" y="266" type="curve" smooth="yes"/>
      <point x="504" y="463"/>
      <point x="426" y="544"/>
      <point x="284" y="544" type="curve" smooth="yes"/>
      <point x="145" y="544"/>
      <point x="63" y="449"/>
      <point x="63" y="266" type="curve" smooth="yes"/>
      <point x="63" y="82"/>
      <point x="145" y="-13"/>
    </contour>
    <contour>
      <point x="284" y="6" type="curve" smooth="yes"/>
      <point x="157" y="6"/>
      <point x="86" y="96"/>
      <point x="86" y="240" type="curve" smooth="yes"/>
      <point x="86" y="291" type="line" smooth="yes"/>
      <point x="86" y="435"/>
      <point x="157" y="525"/>
      <point x="284" y="525" type="curve" smooth="yes"/>
      <point x="411" y="525"/>
      <point x="481" y="435"/>
      <point x="481" y="291" type="curve" smooth="yes"/>
      <point x="481" y="240" type="line" smooth="yes"/>
      <point x="481" y="96"/>
      <point x="411" y="6"/>
    </contour>
  </outline>
</glyph>
<glyph name="uni02C6" format="2">
  <advance width="630"/>
  <unicode hex="02C6"/>
  <unicode hex="0302"/>
  <outline>
    <contour>
      <point x="303" y="780" type="line"/>
      <point x="168" y="640" type="line"/>
      <point x="182" y="629" type="line"/>
      <point x="315" y="763" type="line"/>
      <point x="448" y="629" type="line"/>
      <point x="462" y="640" type="line"/>
      <point x="327" y="780" type="line"/>
    </contour>
  </outline>
</glyph>
<glyph name="uni02C9" format="2">
  <advance width="630"/>
  <unicode hex="02C9"/>
  <outline>
    <contour>
      <point x="180" y="692" type="line"/>
      <point x="450" y="692" type="line"/>
      <point x="450" y="710" type="line"/>
      <point x="180" y="710" type="line"/>
    </contour>
  </outline>
</glyph>
<glyph name="uni02D9" format="2">
  <advance width="630"/>
  <unicode hex="02D9"/>
  <outline>
    <contour>
      <point x="315" y="675" type="curve" smooth="yes"/>
      <point x="332" y="675"/>
      <point x="338" y="685"/>
      <point x="338" y="696" type="curve" smooth="yes"/>
      <point x="338" y="703" type="line" smooth="yes"/>
      <point x="338" y="714"/>
      <point x="332" y="724"/>
      <point x="315" y="724" type="curve" smooth="yes"/>
      <point x="298" y="724"/>
      <point x="292" y="714"/>
      <point x="292" y="703" type="curve" smooth="yes"/>
      <point x="292" y="696" type="line" smooth="yes"/>
      <point x="292" y="685"/>
      <point x="298" y="675"/>
    </contour>
  </outline>
</glyph>
<glyph name="uni0301" format="2">
  <advance width="630"/>
  <unicode hex="0301"/>
  <outline>
    <contour>
      <point x="383" y="777" type="line"/>
      <point x="364" y="789" type="line"/>
      <point x="247" y="627" type="line"/>
      <point x="262" y="617" type="line"/>
    </contour>
  </outline>
</glyph>
<glyph name="uni0394" format="2">
  <advance width="630"/>
  <unicode hex="0394"/>
  <outline>
    <contour>
      <point x="41" y="0" type="line"/>
      <point x="589" y="0" type="line"/>
      <point x="589" y="19" type="line"/>
      <point x="331" y="733" type="line"/>
      <point x="299" y="733" type="line"/>
      <point x="41" y="19" type="line"/>
    </contour>
    <contour>
      <point x="566" y="19" type="line"/>
      <point x="64" y="19" type="line"/>
      <point x="313" y="712" type="line"/>
      <point x="316" y="712" type="line"/>
    </contour>
  </outline>
</glyph>
<glyph name="uni0395" format="2">
  <advance width="589"/>
  <unicode hex="0395"/>
  <outline>
    <contour>
      <point x="513" y="20" type="line"/>
      <point x="135" y="20" type="line"/>
      <point x="135" y="362" type="line"/>
      <point x="501" y="362" type="line"/>
      <point x="501" y="382" type="line"/>
      <point x="135" y="382" type="line"/>
      <point x="135" y="713" type="line"/>
      <point x="513" y="713" type="line"/>
      <point x="513" y="733" type="line"/>
      <point x="113" y="733" type="line"/>
      <point x="113" y="0" type="line"/>
      <point x="513" y="0" type="line"/>
    </contour>
  </outline>
</glyph>
<glyph name="uni0398" format="2">
  <advance width="714"/>
  <unicode hex="0398"/>
  <outline>
    <contour>
      <point x="357" y="-13" type="curve" smooth="yes"/>
      <point x="539" y="-13"/>
      <point x="641" y="115"/>
      <point x="641" y="367" type="curve" smooth="yes"/>
      <point x="641" y="619"/>
      <point x="539" y="746"/>
      <point x="357" y="746" type="curve" smooth="yes"/>
      <point x="176" y="746"/>
      <point x="74" y="619"/>
      <point x="74" y="367" type="curve" smooth="yes"/>
      <point x="74" y="115"/>
      <point x="176" y="-13"/>
    </contour>
    <contour>
      <point x="357" y="7" type="curve" smooth="yes"/>
      <point x="196" y="7"/>
      <point x="98" y="123"/>
      <point x="98" y="345" type="curve" smooth="yes"/>
      <point x="98" y="389" type="line" smooth="yes"/>
      <point x="98" y="611"/>
      <point x="196" y="726"/>
      <point x="357" y="726" type="curve" smooth="yes"/>
      <point x="519" y="726"/>
      <point x="617" y="611"/>
      <point x="617" y="389" type="curve" smooth="yes"/>
      <point x="617" y="345" type="line" smooth="yes"/>
      <point x="617" y="123"/>
      <point x="519" y="7"/>
    </contour>
    <contour>
      <point x="528" y="362" type="line"/>
      <point x="528" y="382" type="line"/>
      <point x="187" y="382" type="line"/>
      <point x="187" y="362" type="line"/>
    </contour>
  </outline>
</glyph>
<glyph name="uni039C" format="2">
  <advance width="834"/>
  <unicode hex="039C"/>
  <outline>
    <contour>
      <point x="135" y="0" type="line"/>
      <point x="135" y="707" type="line"/>
      <point x="138" y="707" type="line"/>
      <point x="138" y="707" type="line"/>
      <point x="417" y="248" type="line"/>
      <point x="696" y="707" type="line"/>
      <point x="696" y="707" type="line"/>
      <point x="699" y="707" type="line"/>
      <point x="699" y="0" type="line"/>
      <point x="721" y="0" type="line"/>
      <point x="721" y="733" type="line"/>
      <point x="687" y="733" type="line"/>
      <point x="419" y="292" type="line"/>
      <point x="416" y="292" type="line"/>
      <point x="147" y="733" type="line"/>
      <point x="113" y="733" type="line"/>
      <point x="113" y="0" type="line"/>
    </contour>
  </outline>
</glyph>
<glyph name="uni039D" format="2">
  <advance width="726"/>
  <unicode hex="039D"/>
  <outline>
    <contour>
      <point x="135" y="0" type="line"/>
      <point x="135" y="705" type="line"/>
      <point x="138" y="705" type="line"/>
      <point x="138" y="705" type="line"/>
      <point x="579" y="0" type="line"/>
      <point x="613" y="0" type="line"/>
      <point x="613" y="733" type="line"/>
      <point x="591" y="733" type="line"/>
      <point x="591" y="28" type="line"/>
      <point x="588" y="28" type="line"/>
      <point x="588" y="28" type="line"/>
      <point x="147" y="733" type="line"/>
      <point x="113" y="733" type="line"/>
      <point x="113" y="0" type="line"/>
    </contour>
  </outline>
</glyph>
<glyph name="uni039E" format="2">
  <advance width="583"/>
  <unicode hex="039E"/>
  <outline>
    <contour>
      <point x="76" y="713" type="line"/>
      <point x="508" y="713" type="line"/>
      <point x="508" y="733" type="line"/>
      <point x="76" y="733" type="line"/>
    </contour>
    <contour>
      <point x="110" y="362" type="line"/>
      <point x="474" y="362" type="line"/>
      <point x="474" y="382" type="line"/>
      <point x="110" y="382" type="line"/>
    </contour>
    <contour>
      <point x="76" y="0" type="line"/>
      <point x="508" y="0" type="line"/>
      <point x="508" y="20" type="line"/>
      <point x="76" y="20" type="line"/>
    </contour>
  </outline>
</glyph>
<glyph name="uni03A0" format="2">
  <advance width="712"/>
  <unicode hex="03A0"/>
  <outline>
    <contour>
      <point x="113" y="0" type="line"/>
      <point x="135" y="0" type="line"/>
      <point x="135" y="713" type="line"/>
      <point x="576" y="713" type="line"/>
      <point x="576" y="0" type="line"/>
      <point x="598" y="0" type="line"/>
      <point x="598" y="733" type="line"/>
      <point x="113" y="733" type="line"/>
    </contour>
  </outline>
</glyph>
<glyph name="uni03A6" format="2">
  <advance width="867"/>
  <unicode hex="03A6"/>
  <outline>
    <contour>
      <point x="423" y="-48" type="line"/>
      <point x="445" y="-48" type="line"/>
      <point x="445" y="21" type="line"/>
      <point x="483" y="21" type="line" smooth="yes"/>
      <point x="687" y="21"/>
      <point x="798" y="151"/>
      <point x="798" y="354" type="curve" smooth="yes"/>
      <point x="798" y="558"/>
      <point x="687" y="687"/>
      <point x="483" y="687" type="curve" smooth="yes"/>
      <point x="445" y="687" type="line"/>
      <point x="445" y="744" type="line"/>
      <point x="423" y="744" type="line"/>
      <point x="423" y="687" type="line"/>
      <point x="385" y="687" type="line" smooth="yes"/>
      <point x="181" y="687"/>
      <point x="70" y="558"/>
      <point x="70" y="354" type="curve" smooth="yes"/>
      <point x="70" y="151"/>
      <point x="181" y="21"/>
      <point x="385" y="21" type="curve" smooth="yes"/>
      <point x="423" y="21" type="line"/>
    </contour>
    <contour>
      <point x="423" y="41" type="line"/>
      <point x="385" y="41" type="line" smooth="yes"/>
      <point x="191" y="41"/>
      <point x="94" y="176"/>
      <point x="94" y="323" type="curve" smooth="yes"/>
      <point x="94" y="386" type="line" smooth="yes"/>
      <point x="94" y="533"/>
      <point x="191" y="667"/>
      <point x="385" y="667" type="curve" smooth="yes"/>
      <point x="423" y="667" type="line"/>
    </contour>
    <contour>
      <point x="445" y="41" type="line"/>
      <point x="445" y="667" type="line"/>
      <point x="483" y="667" type="line" smooth="yes"/>
      <point x="677" y="667"/>
      <point x="774" y="533"/>
      <point x="774" y="386" type="curve" smooth="yes"/>
      <point x="774" y="323" type="line" smooth="yes"/>
      <point x="774" y="176"/>
      <point x="677" y="41"/>
      <point x="483" y="41" type="curve" smooth="yes"/>
    </contour>
  </outline>
</glyph>
<glyph name="uni03B1" format="2">
  <advance width="667"/>
  <unicode hex="03B1"/>
  <outline>
    <contour>
      <point x="623" y="19" type="line"/>
      <point x="552" y="19" type="line"/>
      <point x="493" y="269" type="line"/>
      <point x="585" y="531" type="line"/>
      <point x="562" y="531" type="line"/>
      <point x="505" y="363" type="line"/>
      <point x="482" y="293" type="line"/>
      <point x="479" y="293" type="line"/>
      <point x="441" y="492"/>
      <point x="367" y="545"/>
      <point x="260" y="545" type="curve" smooth="yes"/>
      <point x="147" y="545"/>
      <point x="63" y="452"/>
      <point x="63" y="265" type="curve" smooth="yes"/>
      <point x="63" y="80"/>
      <point x="147" y="-13"/>
      <point x="260" y="-13" type="curve" smooth="yes"/>
      <point x="365" y="-13"/>
      <point x="424" y="41"/>
      <point x="479" y="238" type="curve"/>
      <point x="482" y="238" type="line"/>
      <point x="526" y="36" type="line" smooth="yes"/>
      <point x="533" y="5"/>
      <point x="542" y="0"/>
      <point x="561" y="0" type="curve" smooth="yes"/>
      <point x="623" y="0" type="line"/>
    </contour>
    <contour>
      <point x="260" y="7" type="curve" smooth="yes"/>
      <point x="160" y="7"/>
      <point x="86" y="96"/>
      <point x="86" y="240" type="curve" smooth="yes"/>
      <point x="86" y="290" type="line" smooth="yes"/>
      <point x="86" y="436"/>
      <point x="160" y="526"/>
      <point x="260" y="526" type="curve" smooth="yes"/>
      <point x="355" y="526"/>
      <point x="413" y="478"/>
      <point x="452" y="327" type="curve" smooth="yes"/>
      <point x="468" y="265" type="line"/>
      <point x="454" y="217" type="line" smooth="yes"/>
      <point x="408" y="59"/>
      <point x="357" y="7"/>
    </contour>
  </outline>
</glyph>
<glyph name="uni03B3" format="2">
  <advance width="492"/>
  <unicode hex="03B3"/>
  <outline>
    <contour>
      <point x="243" y="-210" type="line"/>
      <point x="264" y="-210" type="line"/>
      <point x="264" y="0" type="line"/>
      <point x="466" y="531" type="line"/>
      <point x="444" y="531" type="line"/>
      <point x="290" y="119" type="line"/>
      <point x="256" y="25" type="line"/>
      <point x="253" y="25" type="line"/>
      <point x="222" y="119" type="line"/>
      <point x="84" y="512" type="line" smooth="yes"/>
      <point x="79" y="526"/>
      <point x="72" y="531"/>
      <point x="55" y="531" type="curve" smooth="yes"/>
      <point x="4" y="531" type="line"/>
      <point x="4" y="512" type="line"/>
      <point x="62" y="512" type="line"/>
      <point x="243" y="0" type="line"/>
    </contour>
  </outline>
</glyph>
<glyph name="uni03B8" format="2">
  <advance width="575"/>
  <unicode hex="03B8"/>
  <outline>
    <contour>
      <point x="288" y="789" type="curve" smooth="yes"/>
      <point x="156" y="789"/>
      <point x="74" y="695"/>
      <point x="74" y="388" type="curve" smooth="yes"/>
      <point x="74" y="81"/>
      <point x="156" y="-13"/>
      <point x="288" y="-13" type="curve" smooth="yes"/>
      <point x="420" y="-13"/>
      <point x="502" y="81"/>
      <point x="502" y="388" type="curve" smooth="yes"/>
      <point x="502" y="695"/>
      <point x="420" y="789"/>
    </contour>
    <contour>
      <point x="288" y="6" type="curve" smooth="yes"/>
      <point x="168" y="6"/>
      <point x="97" y="97"/>
      <point x="97" y="363" type="curve" smooth="yes"/>
      <point x="97" y="380" type="line"/>
      <point x="479" y="380" type="line"/>
      <point x="479" y="363" type="line" smooth="yes"/>
      <point x="479" y="97"/>
      <point x="408" y="6"/>
    </contour>
    <contour>
      <point x="97" y="413" type="line" smooth="yes"/>
      <point x="97" y="679"/>
      <point x="168" y="770"/>
      <point x="288" y="770" type="curve" smooth="yes"/>
      <point x="408" y="770"/>
      <point x="479" y="679"/>
      <point x="479" y="413" type="curve" smooth="yes"/>
      <point x="479" y="399" type="line"/>
      <point x="97" y="399" type="line"/>
    </contour>
  </outline>
</glyph>
<glyph name="uni03B9" format="2">
  <advance width="282"/>
  <unicode hex="03B9"/>
  <outline>
    <contour>
      <point x="251" y="19" type="line"/>
      <point x="131" y="19" type="line"/>
      <point x="131" y="531" type="line"/>
      <point x="110" y="531" type="line"/>
      <point x="110" y="29" type="line" smooth="yes"/>
      <point x="110" y="8"/>
      <point x="118" y="0"/>
      <point x="139" y="0" type="curve" smooth="yes"/>
      <point x="251" y="0" type="line"/>
    </contour>
  </outline>
</glyph>
<glyph name="uni03BB" format="2">
  <advance width="468"/>
  <unicode hex="03BB"/>
  <outline>
    <contour>
      <point x="206" y="532" type="line"/>
      <point x="5" y="0" type="line"/>
      <point x="27" y="0" type="line"/>
      <point x="203" y="469" type="line"/>
      <point x="214" y="498" type="line"/>
      <point x="217" y="498" type="line"/>
      <point x="228" y="466" type="line"/>
      <point x="384" y="18" type="line"/>
      <point x="389" y="5"/>
      <point x="397" y="0"/>
      <point x="414" y="0" type="curve" smooth="yes"/>
      <point x="464" y="0" type="line"/>
      <point x="464" y="19" type="line"/>
      <point x="406" y="19" type="line"/>
      <point x="150" y="757" type="line"/>
      <point x="145" y="770"/>
      <point x="138" y="775"/>
      <point x="122" y="775" type="curve" smooth="yes"/>
      <point x="60" y="775" type="line"/>
      <point x="60" y="756" type="line"/>
      <point x="128" y="756" type="line"/>
    </contour>
  </outline>
</glyph>
<glyph name="uni03BE" format="2">
  <advance width="486"/>
  <unicode hex="03BE"/>
  <outline>
    <contour>
      <point x="439" y="783" type="line"/>
      <point x="439" y="803" type="line"/>
      <point x="74" y="803" type="line"/>
      <point x="74" y="783" type="line"/>
      <point x="225" y="783" type="line"/>
      <point x="225" y="780" type="line"/>
      <point x="144" y="760"/>
      <point x="99" y="688"/>
      <point x="99" y="612" type="curve" smooth="yes"/>
      <point x="99" y="518"/>
      <point x="143" y="459"/>
      <point x="229" y="437" type="curve"/>
      <point x="229" y="434" type="line"/>
      <point x="117" y="416"/>
      <point x="58" y="333"/>
      <point x="58" y="237" type="curve" smooth="yes"/>
      <point x="58" y="110"/>
      <point x="116" y="46"/>
      <point x="317" y="-5" type="curve" smooth="yes"/>
      <point x="403" y="-27" type="line"/>
      <point x="362" y="-183" type="line"/>
      <point x="382" y="-189" type="line"/>
      <point x="420" y="-43" type="line" smooth="yes"/>
      <point x="421" y="-39"/>
      <point x="422" y="-33"/>
      <point x="422" y="-26" type="curve" smooth="yes"/>
      <point x="422" y="-17"/>
      <point x="416" y="-9"/>
      <point x="398" y="-4" type="curve" smooth="yes"/>
      <point x="322" y="16" type="line" smooth="yes"/>
      <point x="136" y="65"/>
      <point x="82" y="119"/>
      <point x="82" y="229" type="curve" smooth="yes"/>
      <point x="82" y="247" type="line" smooth="yes"/>
      <point x="82" y="344"/>
      <point x="156" y="424"/>
      <point x="289" y="424" type="curve" smooth="yes"/>
      <point x="375" y="424" type="line"/>
      <point x="375" y="444" type="line"/>
      <point x="288" y="444" type="line" smooth="yes"/>
      <point x="189" y="444"/>
      <point x="123" y="505"/>
      <point x="123" y="605" type="curve" smooth="yes"/>
      <point x="123" y="621" type="line" smooth="yes"/>
      <point x="123" y="700"/>
      <point x="187" y="783"/>
      <point x="315" y="783" type="curve" smooth="yes"/>
    </contour>
  </outline>
</glyph>
<glyph name="uni03BF" format="2">
  <advance width="567"/>
  <unicode hex="03BF"/>
  <outline>
    <contour>
      <point x="284" y="-13" type="curve" smooth="yes"/>
      <point x="422" y="-13"/>
      <point x="504" y="82"/>
      <point x="504" y="266" type="curve" smooth="yes"/>
      <point x="504" y="449"/>
      <point x="422" y="544"/>
      <point x="284" y="544" type="curve" smooth="yes"/>
      <point x="145" y="544"/>
      <point x="63" y="449"/>
      <point x="63" y="266" type="curve" smooth="yes"/>
      <point x="63" y="82"/>
      <point x="145" y="-13"/>
    </contour>
    <contour>
      <point x="284" y="6" type="curve" smooth="yes"/>
      <point x="157" y="6"/>
      <point x="86" y="96"/>
      <point x="86" y="240" type="curve" smooth="yes"/>
      <point x="86" y="291" type="line" smooth="yes"/>
      <point x="86" y="435"/>
      <point x="157" y="525"/>
      <point x="284" y="525" type="curve" smooth="yes"/>
      <point x="411" y="525"/>
      <point x="481" y="435"/>
      <point x="481" y="291" type="curve" smooth="yes"/>
      <point x="481" y="240" type="line" smooth="yes"/>
      <point x="481" y="96"/>
      <point x="411" y="6"/>
    </contour>
  </outline>
</glyph>
<glyph name="uni03C0" format="2">
  <advance width="620"/>
  <unicode hex="03C0"/>
  <outline>
    <contour>
      <point x="468" y="512" type="line"/>
      <point x="580" y="512" type="line"/>
      <point x="580" y="531" type="line"/>
      <point x="32" y="531" type="line"/>
      <point x="32" y="512" type="line"/>
      <point x="132" y="512" type="line"/>
      <point x="132" y="0" type="line"/>
      <point x="153" y="0" type="line"/>
      <point x="153" y="512" type="line"/>
      <point x="447" y="512" type="line"/>
      <point x="447" y="29" type="line" smooth="yes"/>
      <point x="447" y="8"/>
      <point x="455" y="0"/>
      <point x="476" y="0" type="curve" smooth="yes"/>
      <point x="546" y="0" type="line"/>
      <point x="546" y="19" type="line"/>
      <point x="468" y="19" type="line"/>
    </contour>
  </outline>
</glyph>
<glyph name="uni03C1" format="2">
  <advance width="562"/>
  <unicode hex="03C1"/>
  <outline>
    <contour>
      <point x="79" y="-210" type="line"/>
      <point x="100" y="-210" type="line"/>
      <point x="100" y="83" type="line"/>
      <point x="103" y="83" type="line"/>
      <point x="125" y="37"/>
      <point x="183" y="-12"/>
      <point x="276" y="-12" type="curve" smooth="yes"/>
      <point x="416" y="-12"/>
      <point x="499" y="82"/>
      <point x="499" y="267" type="curve" smooth="yes"/>
      <point x="499" y="450"/>
      <point x="420" y="545"/>
      <point x="289" y="545" type="curve" smooth="yes"/>
      <point x="158" y="545"/>
      <point x="79" y="450"/>
      <point x="79" y="267" type="curve" smooth="yes"/>
    </contour>
    <contour>
      <point x="276" y="7" type="curve" smooth="yes"/>
      <point x="184" y="7"/>
      <point x="100" y="66"/>
      <point x="100" y="151" type="curve" smooth="yes"/>
      <point x="100" y="279" type="line" smooth="yes"/>
      <point x="100" y="435"/>
      <point x="170" y="526"/>
      <point x="289" y="526" type="curve" smooth="yes"/>
      <point x="408" y="526"/>
      <point x="476" y="435"/>
      <point x="476" y="292" type="curve" smooth="yes"/>
      <point x="476" y="241" type="line" smooth="yes"/>
      <point x="476" y="98"/>
      <point x="403" y="7"/>
    </contour>
  </outline>
</glyph>
<glyph name="uni03C3" format="2">
  <advance width="578"/>
  <unicode hex="03C3"/>
  <outline>
    <contour>
      <point x="549" y="512" type="line"/>
      <point x="549" y="531" type="line"/>
      <point x="290" y="531" type="line" smooth="yes"/>
      <point x="149" y="531"/>
      <point x="63" y="433"/>
      <point x="63" y="259" type="curve" smooth="yes"/>
      <point x="63" y="81"/>
      <point x="145" y="-13"/>
      <point x="283" y="-13" type="curve" smooth="yes"/>
      <point x="422" y="-13"/>
      <point x="504" y="81"/>
      <point x="504" y="259" type="curve" smooth="yes"/>
      <point x="504" y="385"/>
      <point x="463" y="463"/>
      <point x="385" y="509" type="curve"/>
      <point x="385" y="512" type="line"/>
    </contour>
    <contour>
      <point x="358" y="512" type="line"/>
      <point x="444" y="459"/>
      <point x="481" y="379"/>
      <point x="481" y="284" type="curve" smooth="yes"/>
      <point x="481" y="233" type="line" smooth="yes"/>
      <point x="481" y="96"/>
      <point x="410" y="7"/>
      <point x="284" y="7" type="curve" smooth="yes"/>
      <point x="157" y="7"/>
      <point x="86" y="96"/>
      <point x="86" y="233" type="curve" smooth="yes"/>
      <point x="86" y="284" type="line" smooth="yes"/>
      <point x="86" y="417"/>
      <point x="159" y="512"/>
      <point x="290" y="512" type="curve" smooth="yes"/>
    </contour>
  </outline>
</glyph>
<glyph name="uni03C5" format="2">
  <advance width="573"/>
  <unicode hex="03C5"/>
  <outline>
    <contour>
      <point x="121" y="531" type="line"/>
      <point x="100" y="531" type="line"/>
      <point x="100" y="240" type="line" smooth="yes"/>
      <point x="100" y="55"/>
      <point x="157" y="-13"/>
      <point x="287" y="-13" type="curve" smooth="yes"/>
      <point x="417" y="-13"/>
      <point x="474" y="55"/>
      <point x="474" y="240" type="curve" smooth="yes"/>
      <point x="474" y="531" type="line"/>
      <point x="453" y="531" type="line"/>
      <point x="453" y="225" type="line" smooth="yes"/>
      <point x="453" y="59"/>
      <point x="396" y="6"/>
      <point x="287" y="6" type="curve" smooth="yes"/>
      <point x="178" y="6"/>
      <point x="121" y="59"/>
      <point x="121" y="225" type="curve" smooth="yes"/>
    </contour>
  </outline>
</glyph>
<glyph name="uni03C6" format="2">
  <advance width="711"/>
  <unicode hex="03C6"/>
  <outline>
    <contour>
      <point x="331" y="-210" type="line"/>
      <point x="352" y="-210" type="line"/>
      <point x="352" y="-13" type="line"/>
      <point x="538" y="-13"/>
      <point x="642" y="75"/>
      <point x="642" y="280" type="curve" smooth="yes"/>
      <point x="642" y="468"/>
      <point x="587" y="544"/>
      <point x="486" y="544" type="curve" smooth="yes"/>
      <point x="385" y="544"/>
      <point x="331" y="468"/>
      <point x="331" y="285" type="curve" smooth="yes"/>
      <point x="331" y="6" type="line"/>
      <point x="169" y="6"/>
      <point x="86" y="97"/>
      <point x="86" y="245" type="curve" smooth="yes"/>
      <point x="86" y="295" type="line" smooth="yes"/>
      <point x="86" y="398"/>
      <point x="124" y="487"/>
      <point x="204" y="527" type="curve"/>
      <point x="193" y="545" type="line"/>
      <point x="107" y="499"/>
      <point x="63" y="408"/>
      <point x="63" y="270" type="curve" smooth="yes"/>
      <point x="63" y="81"/>
      <point x="156" y="-13"/>
      <point x="331" y="-13" type="curve"/>
    </contour>
    <contour>
      <point x="352" y="295" type="line" smooth="yes"/>
      <point x="352" y="450"/>
      <point x="395" y="525"/>
      <point x="486" y="525" type="curve" smooth="yes"/>
      <point x="576" y="525"/>
      <point x="619" y="457"/>
      <point x="619" y="306" type="curve" smooth="yes"/>
      <point x="619" y="255" type="line" smooth="yes"/>
      <point x="619" y="92"/>
      <point x="530" y="6"/>
      <point x="352" y="6" type="curve"/>
    </contour>
  </outline>
</glyph>
<glyph name="uni03C7" format="2">
  <advance width="480"/>
  <unicode hex="03C7"/>
  <outline>
    <contour>
      <point x="10" y="531" type="line"/>
      <point x="10" y="512" type="line"/>
      <point x="69" y="512" type="line"/>
      <point x="224" y="171" type="line"/>
      <point x="23" y="-210" type="line"/>
      <point x="46" y="-210" type="line"/>
      <point x="235" y="152" type="line"/>
      <point x="237" y="152" type="line"/>
      <point x="385" y="-190" type="line"/>
      <point x="391" y="-205"/>
      <point x="398" y="-210"/>
      <point x="415" y="-210" type="curve" smooth="yes"/>
      <point x="467" y="-210" type="line"/>
      <point x="467" y="-191" type="line"/>
      <point x="408" y="-191" type="line"/>
      <point x="249" y="171" type="line"/>
      <point x="446" y="531" type="line"/>
      <point x="423" y="531" type="line"/>
      <point x="239" y="190" type="line"/>
      <point x="237" y="190" type="line"/>
      <point x="92" y="511" type="line" smooth="yes"/>
      <point x="85" y="526"/>
      <point x="78" y="531"/>
      <point x="61" y="531" type="curve" smooth="yes"/>
    </contour>
  </outline>
</glyph>
<glyph name="uni03C9" format="2">
  <advance width="734"/>
  <unicode hex="03C9"/>
  <outline>
    <contour>
      <point x="378" y="366" type="line"/>
      <point x="357" y="366" type="line"/>
      <point x="357" y="236" type="line" smooth="yes"/>
      <point x="357" y="57"/>
      <point x="301" y="6"/>
      <point x="224" y="6" type="curve" smooth="yes"/>
      <point x="135" y="6"/>
      <point x="93" y="74"/>
      <point x="93" y="226" type="curve" smooth="yes"/>
      <point x="93" y="277" type="line" smooth="yes"/>
      <point x="93" y="399"/>
      <point x="131" y="488"/>
      <point x="212" y="528" type="curve"/>
      <point x="200" y="545" type="line"/>
      <point x="114" y="499"/>
      <point x="70" y="409"/>
      <point x="70" y="252" type="curve" smooth="yes"/>
      <point x="70" y="64"/>
      <point x="124" y="-13"/>
      <point x="224" y="-13" type="curve" smooth="yes"/>
      <point x="306" y="-13"/>
      <point x="353" y="39"/>
      <point x="366" y="138" type="curve"/>
      <point x="369" y="138" type="line"/>
      <point x="382" y="39"/>
      <point x="429" y="-13"/>
      <point x="511" y="-13" type="curve" smooth="yes"/>
      <point x="612" y="-13"/>
      <point x="665" y="64"/>
      <point x="665" y="252" type="curve" smooth="yes"/>
      <point x="665" y="409"/>
      <point x="621" y="499"/>
      <point x="535" y="545" type="curve"/>
      <point x="524" y="528" type="line"/>
      <point x="604" y="488"/>
      <point x="642" y="399"/>
      <point x="642" y="277" type="curve" smooth="yes"/>
      <point x="642" y="226" type="line" smooth="yes"/>
      <point x="642" y="74"/>
      <point x="600" y="6"/>
      <point x="511" y="6" type="curve" smooth="yes"/>
      <point x="434" y="6"/>
      <point x="378" y="57"/>
      <point x="378" y="236" type="curve" smooth="yes"/>
    </contour>
  </outline>
</glyph>
<glyph name="uni0401" format="2">
  <advance width="589"/>
  <unicode hex="0401"/>
  <outline>
    <contour>
      <point x="513" y="20" type="line"/>
      <point x="135" y="20" type="line"/>
      <point x="135" y="362" type="line"/>
      <point x="501" y="362" type="line"/>
      <point x="501" y="382" type="line"/>
      <point x="135" y="382" type="line"/>
      <point x="135" y="713" type="line"/>
      <point x="513" y="713" type="line"/>
      <point x="513" y="733" type="line"/>
      <point x="113" y="733" type="line"/>
      <point x="113" y="0" type="line"/>
      <point x="513" y="0" type="line"/>
    </contour>
    <contour>
      <point x="218" y="861" type="curve" smooth="yes"/>
      <point x="235" y="861"/>
      <point x="241" y="871"/>
      <point x="241" y="882" type="curve" smooth="yes"/>
      <point x="241" y="889" type="line" smooth="yes"/>
      <point x="241" y="900"/>
      <point x="235" y="910"/>
      <point x="218" y="910" type="curve" smooth="yes"/>
      <point x="201" y="910"/>
      <point x="195" y="900"/>
      <point x="195" y="889" type="curve" smooth="yes"/>
      <point x="195" y="882" type="line" smooth="yes"/>
      <point x="195" y="871"/>
      <point x="201" y="861"/>
    </contour>
    <contour>
      <point x="409" y="861" type="curve" smooth="yes"/>
      <point x="426" y="861"/>
      <point x="432" y="871"/>
      <point x="432" y="882" type="curve" smooth="yes"/>
      <point x="432" y="889" type="line" smooth="yes"/>
      <point x="432" y="900"/>
      <point x="426" y="910"/>
      <point x="409" y="910" type="curve" smooth="yes"/>
      <point x="392" y="910"/>
      <point x="386" y="900"/>
      <point x="386" y="889" type="curve" smooth="yes"/>
      <point x="386" y="882" type="line" smooth="yes"/>
      <point x="386" y="871"/>
      <point x="392" y="861"/>
    </contour>
  </outline>
</glyph>
<glyph name="uni0410" format="2">
  <advance width="630"/>
  <unicode hex="0410"/>
  <outline>
    <contour>
      <point x="57" y="0" type="line"/>
      <point x="146" y="246" type="line"/>
      <point x="483" y="246" type="line"/>
      <point x="572" y="0" type="line"/>
      <point x="595" y="0" type="line"/>
      <point x="330" y="733" type="line"/>
      <point x="299" y="733" type="line"/>
      <point x="34" y="0" type="line"/>
    </contour>
    <contour>
      <point x="313" y="710" type="line"/>
      <point x="316" y="710" type="line"/>
      <point x="477" y="265" type="line"/>
      <point x="152" y="265" type="line"/>
    </contour>
  </outline>
</glyph>
<glyph name="uni0411" format="2">
  <advance width="635"/>
  <unicode hex="0411"/>
  <outline>
    <contour>
      <point x="113" y="0" type="line"/>
      <point x="384" y="0" type="line" smooth="yes"/>
      <point x="504" y="0"/>
      <point x="567" y="82"/>
      <point x="567" y="209" type="curve" smooth="yes"/>
      <point x="567" y="336"/>
      <point x="504" y="418"/>
      <point x="384" y="418" type="curve" smooth="yes"/>
      <point x="135" y="418" type="line"/>
      <point x="135" y="713" type="line"/>
      <point x="504" y="713" type="line"/>
      <point x="504" y="733" type="line"/>
      <point x="113" y="733" type="line"/>
    </contour>
    <contour>
      <point x="135" y="20" type="line"/>
      <point x="135" y="398" type="line"/>
      <point x="384" y="398" type="line" smooth="yes"/>
      <point x="494" y="398"/>
      <point x="543" y="317"/>
      <point x="543" y="231" type="curve" smooth="yes"/>
      <point x="543" y="187" type="line" smooth="yes"/>
      <point x="543" y="101"/>
      <point x="494" y="20"/>
      <point x="384" y="20" type="curve" smooth="yes"/>
    </contour>
  </outline>
</glyph>
<glyph name="uni0413" format="2">
  <advance width="531"/>
  <unicode hex="0413"/>
  <outline>
    <contour>
      <point x="113" y="0" type="line"/>
      <point x="135" y="0" type="line"/>
      <point x="135" y="713" type="line"/>
      <point x="485" y="713" type="line"/>
      <point x="485" y="733" type="line"/>
      <point x="113" y="733" type="line"/>
    </contour>
  </outline>
</glyph>
<glyph name="uni0417" format="2">
  <advance width="604"/>
  <unicode hex="0417"/>
  <outline>
    <contour>
      <point x="297" y="-13" type="curve" smooth="yes"/>
      <point x="443" y="-13"/>
      <point x="535" y="66"/>
      <point x="535" y="195" type="curve" smooth="yes"/>
      <point x="535" y="297"/>
      <point x="471" y="358"/>
      <point x="373" y="370" type="curve"/>
      <point x="373" y="373" type="line"/>
      <point x="459" y="390"/>
      <point x="520" y="452"/>
      <point x="520" y="562" type="curve" smooth="yes"/>
      <point x="520" y="674"/>
      <point x="434" y="746"/>
      <point x="301" y="746" type="curve" smooth="yes"/>
      <point x="191" y="746"/>
      <point x="119" y="699"/>
      <point x="89" y="630" type="curve"/>
      <point x="107" y="621" type="line"/>
      <point x="139" y="685"/>
      <point x="198" y="726"/>
      <point x="301" y="726" type="curve" smooth="yes"/>
      <point x="416" y="726"/>
      <point x="496" y="663"/>
      <point x="496" y="573" type="curve" smooth="yes"/>
      <point x="496" y="548" type="line" smooth="yes"/>
      <point x="496" y="451"/>
      <point x="417" y="381"/>
      <point x="304" y="381" type="curve" smooth="yes"/>
      <point x="185" y="381" type="line"/>
      <point x="185" y="361" type="line"/>
      <point x="307" y="361" type="line" smooth="yes"/>
      <point x="432" y="361"/>
      <point x="511" y="300"/>
      <point x="511" y="206" type="curve" smooth="yes"/>
      <point x="511" y="177" type="line" smooth="yes"/>
      <point x="511" y="75"/>
      <point x="423" y="7"/>
      <point x="297" y="7" type="curve" smooth="yes"/>
      <point x="198" y="7"/>
      <point x="127" y="38"/>
      <point x="81" y="111" type="curve"/>
      <point x="63" y="99" type="line"/>
      <point x="112" y="22"/>
      <point x="191" y="-13"/>
    </contour>
  </outline>
</glyph>
<glyph name="uni041B" format="2">
  <advance width="671"/>
  <unicode hex="041B"/>
  <outline>
    <contour>
      <point x="8" y="0" type="line"/>
      <point x="51" y="0" type="line" smooth="yes"/>
      <point x="72" y="0"/>
      <point x="86" y="4"/>
      <point x="102" y="21" type="curve"/>
      <point x="165" y="84"/>
      <point x="212" y="253"/>
      <point x="212" y="539" type="curve" smooth="yes"/>
      <point x="212" y="713" type="line"/>
      <point x="535" y="713" type="line"/>
      <point x="535" y="0" type="line"/>
      <point x="557" y="0" type="line"/>
      <point x="557" y="733" type="line"/>
      <point x="190" y="733" type="line"/>
      <point x="190" y="539" type="line" smooth="yes"/>
      <point x="190" y="247"/>
      <point x="141" y="85"/>
      <point x="74" y="20" type="curve"/>
      <point x="8" y="20" type="line"/>
    </contour>
  </outline>
</glyph>
<glyph name="uni041C" format="2">
  <advance width="836"/>
  <unicode hex="041C"/>
  <outline>
    <contour>
      <point x="136" y="0" type="line"/>
      <point x="136" y="707" type="line"/>
      <point x="139" y="707" type="line"/>
      <point x="139" y="707" type="line"/>
      <point x="418" y="248" type="line"/>
      <point x="697" y="707" type="line"/>
      <point x="697" y="707" type="line"/>
      <point x="700" y="707" type="line"/>
      <point x="700" y="0" type="line"/>
      <point x="722" y="0" type="line"/>
      <point x="722" y="733" type="line"/>
      <point x="688" y="733" type="line"/>
      <point x="420" y="292" type="line"/>
      <point x="417" y="292" type="line"/>
      <point x="148" y="733" type="line"/>
      <point x="114" y="733" type="line"/>
      <point x="114" y="0" type="line"/>
    </contour>
  </outline>
</glyph>
<glyph name="uni0422" format="2">
  <advance width="588"/>
  <unicode hex="0422"/>
  <outline>
    <contour>
      <point x="570" y="733" type="line"/>
      <point x="18" y="733" type="line"/>
      <point x="18" y="713" type="line"/>
      <point x="283" y="713" type="line"/>
      <point x="283" y="0" type="line"/>
      <point x="305" y="0" type="line"/>
      <point x="305" y="713" type="line"/>
      <point x="570" y="713" type="line"/>
    </contour>
  </outline>
</glyph>
<glyph name="uni0425" format="2">
  <advance width="586"/>
  <unicode hex="0425"/>
  <outline>
    <contour>
      <point x="293" y="354" type="line"/>
      <point x="295" y="354" type="line"/>
      <point x="530" y="0" type="line"/>
      <point x="557" y="0" type="line"/>
      <point x="308" y="375" type="line"/>
      <point x="547" y="733" type="line"/>
      <point x="520" y="733" type="line"/>
      <point x="294" y="393" type="line"/>
      <point x="292" y="393" type="line"/>
      <point x="66" y="733" type="line"/>
      <point x="39" y="733" type="line"/>
      <point x="279" y="372" type="line"/>
      <point x="29" y="0" type="line"/>
      <point x="56" y="0" type="line"/>
    </contour>
  </outline>
</glyph>
<glyph name="uni0428" format="2">
  <advance width="949"/>
  <unicode hex="0428"/>
  <outline>
    <contour>
      <point x="113" y="0" type="line"/>
      <point x="835" y="0" type="line"/>
      <point x="835" y="733" type="line"/>
      <point x="813" y="733" type="line"/>
      <point x="813" y="22" type="line"/>
      <point x="485" y="22" type="line"/>
      <point x="485" y="733" type="line"/>
      <point x="463" y="733" type="line"/>
      <point x="463" y="22" type="line"/>
      <point x="135" y="22" type="line"/>
      <point x="135" y="733" type="line"/>
      <point x="113" y="733" type="line"/>
    </contour>
  </outline>
</glyph>
<glyph name="uni042C" format="2">
  <advance width="640"/>
  <unicode hex="042C"/>
  <outline>
    <contour>
      <point x="113" y="0" type="line"/>
      <point x="394" y="0" type="line" smooth="yes"/>
      <point x="514" y="0"/>
      <point x="577" y="82"/>
      <point x="577" y="209" type="curve" smooth="yes"/>
      <point x="577" y="336"/>
      <point x="514" y="418"/>
      <point x="394" y="418" type="curve" smooth="yes"/>
      <point x="135" y="418" type="line"/>
      <point x="135" y="733" type="line"/>
      <point x="113" y="733" type="line"/>
    </contour>
    <contour>
      <point x="135" y="20" type="line"/>
      <point x="135" y="398" type="line"/>
      <point x="394" y="398" type="line" smooth="yes"/>
      <point x="503" y="398"/>
      <point x="553" y="318"/>
      <point x="553" y="231" type="curve" smooth="yes"/>
      <point x="553" y="187" type="line" smooth="yes"/>
      <point x="553" y="100"/>
      <point x="503" y="20"/>
      <point x="394" y="20" type="curve" smooth="yes"/>
    </contour>
  </outline>
</glyph>
<glyph name="uni0430" format="2">
  <advance width="545"/>
  <unicode hex="0430"/>
  <outline>
    <contour>
      <point x="237" y="-13" type="curve" smooth="yes"/>
      <point x="335" y="-13"/>
      <point x="385" y="30"/>
      <point x="412" y="81" type="curve"/>
      <point x="415" y="81" type="line"/>
      <point x="415" y="30" type="line" smooth="yes"/>
      <point x="415" y="9"/>
      <point x="424" y="0"/>
      <point x="445" y="0" type="curve" smooth="yes"/>
      <point x="524" y="0" type="line"/>
      <point x="524" y="19" type="line"/>
      <point x="436" y="19" type="line"/>
      <point x="436" y="370" type="line" smooth="yes"/>
      <point x="436" y="482"/>
      <point x="378" y="544"/>
      <point x="263" y="544" type="curve" smooth="yes"/>
      <point x="165" y="544"/>
      <point x="113" y="501"/>
      <point x="84" y="433" type="curve"/>
      <point x="102" y="425" type="line"/>
      <point x="131" y="495"/>
      <point x="184" y="525"/>
      <point x="263" y="525" type="curve" smooth="yes"/>
      <point x="362" y="525"/>
      <point x="415" y="477"/>
      <point x="415" y="366" type="curve" smooth="yes"/>
      <point x="415" y="289" type="line"/>
      <point x="266" y="289" type="line" smooth="yes"/>
      <point x="113" y="289"/>
      <point x="66" y="225"/>
      <point x="66" y="137" type="curve" smooth="yes"/>
      <point x="66" y="41"/>
      <point x="128" y="-13"/>
    </contour>
    <contour>
      <point x="237" y="6" type="curve" smooth="yes"/>
      <point x="150" y="6"/>
      <point x="89" y="46"/>
      <point x="89" y="121" type="curve" smooth="yes"/>
      <point x="89" y="152" type="line" smooth="yes"/>
      <point x="89" y="224"/>
      <point x="141" y="271"/>
      <point x="267" y="271" type="curve" smooth="yes"/>
      <point x="415" y="271" type="line"/>
      <point x="415" y="155" type="line" smooth="yes"/>
      <point x="415" y="56"/>
      <point x="332" y="6"/>
    </contour>
  </outline>
</glyph>
<glyph name="uni0431" format="2">
  <advance width="571"/>
  <unicode hex="0431"/>
  <outline>
    <contour>
      <point x="287" y="-13" type="curve" smooth="yes"/>
      <point x="429" y="-13"/>
      <point x="508" y="87"/>
      <point x="508" y="259" type="curve" smooth="yes"/>
      <point x="508" y="431"/>
      <point x="431" y="531"/>
      <point x="287" y="531" type="curve" smooth="yes"/>
      <point x="209" y="531"/>
      <point x="131" y="499"/>
      <point x="94" y="396" type="curve"/>
      <point x="91" y="396" type="line"/>
      <point x="107" y="629"/>
      <point x="137" y="735"/>
      <point x="329" y="751" type="curve" smooth="yes"/>
      <point x="470" y="763" type="line"/>
      <point x="470" y="782" type="line"/>
      <point x="329" y="770" type="line" smooth="yes"/>
      <point x="123" y="752"/>
      <point x="67" y="651"/>
      <point x="67" y="283" type="curve" smooth="yes"/>
      <point x="67" y="109"/>
      <point x="121" y="-13"/>
    </contour>
    <contour>
      <point x="287" y="6" type="curve" smooth="yes"/>
      <point x="167" y="6"/>
      <point x="90" y="93"/>
      <point x="90" y="235" type="curve" smooth="yes"/>
      <point x="90" y="283" type="line" smooth="yes"/>
      <point x="90" y="425"/>
      <point x="167" y="512"/>
      <point x="287" y="512" type="curve" smooth="yes"/>
      <point x="411" y="512"/>
      <point x="485" y="425"/>
      <point x="485" y="283" type="curve" smooth="yes"/>
      <point x="485" y="235" type="line" smooth="yes"/>
      <point x="485" y="93"/>
      <point x="409" y="6"/>
    </contour>
  </outline>
</glyph>
<glyph name="uni0433" format="2">
  <advance width="464"/>
  <unicode hex="0433"/>
  <outline>
    <contour>
      <point x="110" y="0" type="line"/>
      <point x="131" y="0" type="line"/>
      <point x="131" y="512" type="line"/>
      <point x="422" y="512" type="line"/>
      <point x="422" y="531" type="line"/>
      <point x="110" y="531" type="line"/>
    </contour>
  </outline>
</glyph>
<glyph name="uni0434" format="2">
  <advance width="575"/>
  <unicode hex="0434"/>
  <outline>
    <contour>
      <point x="5" y="-147" type="line"/>
      <point x="26" y="-147" type="line"/>
      <point x="26" y="1" type="line"/>
      <point x="507" y="1" type="line"/>
      <point x="507" y="-147" type="line"/>
      <point x="528" y="-147" type="line"/>
      <point x="528" y="20" type="line"/>
      <point x="449" y="20" type="line"/>
      <point x="449" y="531" type="line"/>
      <point x="148" y="531" type="line"/>
      <point x="148" y="373" type="line" smooth="yes"/>
      <point x="148" y="227"/>
      <point x="116" y="106"/>
      <point x="60" y="20" type="curve"/>
      <point x="5" y="20" type="line"/>
    </contour>
    <contour>
      <point x="82" y="20" type="line"/>
      <point x="132" y="93"/>
      <point x="169" y="220"/>
      <point x="169" y="373" type="curve" smooth="yes"/>
      <point x="169" y="512" type="line"/>
      <point x="428" y="512" type="line"/>
      <point x="428" y="20" type="line"/>
    </contour>
  </outline>
</glyph>
<glyph name="uni0436" format="2">
  <advance width="774"/>
  <unicode hex="0436"/>
  <outline>
    <contour>
      <point x="44" y="0" type="line"/>
      <point x="101" y="0" type="line" smooth="yes"/>
      <point x="113" y="0"/>
      <point x="119" y="4"/>
      <point x="126" y="17" type="curve" smooth="yes"/>
      <point x="257" y="269" type="line"/>
      <point x="377" y="269" type="line"/>
      <point x="377" y="0" type="line"/>
      <point x="398" y="0" type="line"/>
      <point x="398" y="269" type="line"/>
      <point x="516" y="269" type="line"/>
      <point x="648" y="17" type="line" smooth="yes"/>
      <point x="655" y="4"/>
      <point x="660" y="0"/>
      <point x="673" y="0" type="curve" smooth="yes"/>
      <point x="730" y="0" type="line"/>
      <point x="730" y="19" type="line"/>
      <point x="670" y="19" type="line"/>
      <point x="557" y="235" type="line" smooth="yes"/>
      <point x="540" y="267"/>
      <point x="534" y="274"/>
      <point x="520" y="277" type="curve"/>
      <point x="520" y="280" type="line"/>
      <point x="533" y="283"/>
      <point x="540" y="291"/>
      <point x="555" y="318" type="curve" smooth="yes"/>
      <point x="662" y="512" type="line"/>
      <point x="722" y="512" type="line"/>
      <point x="722" y="531" type="line"/>
      <point x="671" y="531" type="line" smooth="yes"/>
      <point x="655" y="531"/>
      <point x="647" y="525"/>
      <point x="637" y="508" type="curve" smooth="yes"/>
      <point x="515" y="288" type="line"/>
      <point x="398" y="288" type="line"/>
      <point x="398" y="531" type="line"/>
      <point x="377" y="531" type="line"/>
      <point x="377" y="288" type="line"/>
      <point x="258" y="288" type="line"/>
      <point x="136" y="508" type="line" smooth="yes"/>
      <point x="127" y="525"/>
      <point x="119" y="531"/>
      <point x="103" y="531" type="curve" smooth="yes"/>
      <point x="51" y="531" type="line"/>
      <point x="51" y="512" type="line"/>
      <point x="111" y="512" type="line"/>
      <point x="218" y="318" type="line" smooth="yes"/>
      <point x="233" y="291"/>
      <point x="240" y="283"/>
      <point x="254" y="280" type="curve"/>
      <point x="254" y="277" type="line"/>
      <point x="239" y="274"/>
      <point x="233" y="268"/>
      <point x="216" y="235" type="curve" smooth="yes"/>
      <point x="104" y="19" type="line"/>
      <point x="44" y="19" type="line"/>
    </contour>
  </outline>
</glyph>
<glyph name="uni0439" format="2">
  <advance width="605"/>
  <unicode hex="0439"/>
  <outline>
    <contour>
      <point x="110" y="0" type="line"/>
      <point x="130" y="0" type="line"/>
      <point x="430" y="434" type="line"/>
      <point x="471" y="498" type="line"/>
      <point x="475" y="498" type="line"/>
      <point x="473" y="425" type="line"/>
      <point x="473" y="0" type="line"/>
      <point x="494" y="0" type="line"/>
      <point x="494" y="531" type="line"/>
      <point x="474" y="531" type="line"/>
      <point x="174" y="97" type="line"/>
      <point x="133" y="34" type="line"/>
      <point x="129" y="34" type="line"/>
      <point x="131" y="106" type="line"/>
      <point x="131" y="531" type="line"/>
      <point x="110" y="531" type="line"/>
    </contour>
    <contour>
      <point x="300" y="636" type="curve" smooth="yes"/>
      <point x="368" y="636"/>
      <point x="400" y="682"/>
      <point x="425" y="732" type="curve" smooth="yes"/>
      <point x="438" y="758" type="line"/>
      <point x="420" y="766" type="line"/>
      <point x="383" y="696" type="line"/>
      <point x="362" y="667"/>
      <point x="334" y="654"/>
      <point x="300" y="654" type="curve" smooth="yes"/>
      <point x="266" y="654"/>
      <point x="238" y="667"/>
      <point x="217" y="696" type="curve"/>
      <point x="180" y="766" type="line"/>
      <point x="162" y="758" type="line"/>
      <point x="175" y="732" type="line" smooth="yes"/>
      <point x="200" y="682"/>
      <point x="232" y="636"/>
    </contour>
  </outline>
</glyph>
<glyph name="uni043A" format="2">
  <advance width="546"/>
  <unicode hex="043A"/>
  <outline>
    <contour>
      <point x="110" y="0" type="line"/>
      <point x="131" y="0" type="line"/>
      <point x="131" y="269" type="line"/>
      <point x="260" y="269" type="line"/>
      <point x="419" y="15" type="line"/>
      <point x="426" y="3"/>
      <point x="432" y="0"/>
      <point x="445" y="0" type="curve" smooth="yes"/>
      <point x="502" y="0" type="line"/>
      <point x="502" y="19" type="line"/>
      <point x="441" y="19" type="line"/>
      <point x="305" y="237" type="line" smooth="yes"/>
      <point x="288" y="264"/>
      <point x="279" y="273"/>
      <point x="264" y="277" type="curve"/>
      <point x="264" y="280" type="line"/>
      <point x="279" y="283"/>
      <point x="287" y="292"/>
      <point x="303" y="316" type="curve" smooth="yes"/>
      <point x="434" y="512" type="line"/>
      <point x="494" y="512" type="line"/>
      <point x="494" y="531" type="line"/>
      <point x="442" y="531" type="line" smooth="yes"/>
      <point x="427" y="531"/>
      <point x="420" y="525"/>
      <point x="410" y="511" type="curve"/>
      <point x="260" y="288" type="line"/>
      <point x="131" y="288" type="line"/>
      <point x="131" y="531" type="line"/>
      <point x="110" y="531" type="line"/>
    </contour>
  </outline>
</glyph>
<glyph name="uni043F" format="2">
  <advance width="594"/>
  <unicode hex="043F"/>
  <outline>
    <contour>
      <point x="110" y="0" type="line"/>
      <point x="131" y="0" type="line"/>
      <point x="131" y="512" type="line"/>
      <point x="463" y="512" type="line"/>
      <point x="463" y="0" type="line"/>
      <point x="484" y="0" type="line"/>
      <point x="484" y="531" type="line"/>
      <point x="110" y="531" type="line"/>
    </contour>
  </outline>
</glyph>
<glyph name="uni0440" format="2">
  <advance width="593"/>
  <unicode hex="0440"/>
  <outline>
    <contour>
      <point x="132" y="-210" type="line"/>
      <point x="132" y="82" type="line"/>
      <point x="135" y="82" type="line"/>
      <point x="157" y="36"/>
      <point x="214" y="-13"/>
      <point x="308" y="-13" type="curve" smooth="yes"/>
      <point x="447" y="-13"/>
      <point x="530" y="81"/>
      <point x="530" y="266" type="curve" smooth="yes"/>
      <point x="530" y="450"/>
      <point x="447" y="544"/>
      <point x="308" y="544" type="curve" smooth="yes"/>
      <point x="214" y="544"/>
      <point x="157" y="495"/>
      <point x="135" y="449" type="curve"/>
      <point x="132" y="449" type="line"/>
      <point x="132" y="531" type="line"/>
      <point x="110" y="531" type="line"/>
      <point x="110" y="-210" type="line"/>
    </contour>
    <contour>
      <point x="308" y="7" type="curve" smooth="yes"/>
      <point x="215" y="7"/>
      <point x="132" y="65"/>
      <point x="132" y="150" type="curve" smooth="yes"/>
      <point x="132" y="381" type="line" smooth="yes"/>
      <point x="132" y="466"/>
      <point x="215" y="524"/>
      <point x="308" y="524" type="curve" smooth="yes"/>
      <point x="435" y="524"/>
      <point x="506" y="434"/>
      <point x="506" y="291" type="curve" smooth="yes"/>
      <point x="506" y="240" type="line" smooth="yes"/>
      <point x="506" y="97"/>
      <point x="435" y="7"/>
    </contour>
  </outline>
</glyph>
<glyph name="uni0442" format="2">
  <advance width="503"/>
  <unicode hex="0442"/>
  <outline>
    <contour>
      <point x="241" y="0" type="line"/>
      <point x="262" y="0" type="line"/>
      <point x="262" y="512" type="line"/>
      <point x="466" y="512" type="line"/>
      <point x="466" y="531" type="line"/>
      <point x="37" y="531" type="line"/>
      <point x="37" y="512" type="line"/>
      <point x="241" y="512" type="line"/>
    </contour>
  </outline>
</glyph>
<glyph name="uni0443" format="2">
  <advance width="475"/>
  <unicode hex="0443"/>
  <outline>
    <contour>
      <point x="146" y="-210" type="line" smooth="yes"/>
      <point x="162" y="-210"/>
      <point x="174" y="-204"/>
      <point x="179" y="-190" type="curve" smooth="yes"/>
      <point x="448" y="531" type="line"/>
      <point x="427" y="531" type="line"/>
      <point x="239" y="25" type="line"/>
      <point x="239" y="25" type="line"/>
      <point x="236" y="25" type="line"/>
      <point x="236" y="25" type="line"/>
      <point x="49" y="531" type="line"/>
      <point x="27" y="531" type="line"/>
      <point x="227" y="-5" type="line"/>
      <point x="157" y="-191" type="line"/>
      <point x="60" y="-191" type="line"/>
      <point x="60" y="-210" type="line"/>
    </contour>
  </outline>
</glyph>
<glyph name="uni0444" format="2">
  <advance width="763"/>
  <unicode hex="0444"/>
  <outline>
    <contour>
      <point x="371" y="-206" type="line"/>
      <point x="392" y="-206" type="line"/>
      <point x="392" y="76" type="line"/>
      <point x="395" y="76" type="line"/>
      <point x="416" y="32"/>
      <point x="460" y="-8"/>
      <point x="525" y="-8" type="curve" smooth="yes"/>
      <point x="643" y="-8"/>
      <point x="696" y="85"/>
      <point x="696" y="270" type="curve" smooth="yes"/>
      <point x="696" y="455"/>
      <point x="643" y="548"/>
      <point x="525" y="548" type="curve" smooth="yes"/>
      <point x="460" y="548"/>
      <point x="416" y="508"/>
      <point x="395" y="464" type="curve"/>
      <point x="392" y="464" type="line"/>
      <point x="392" y="750" type="line"/>
      <point x="371" y="750" type="line"/>
      <point x="371" y="464" type="line"/>
      <point x="368" y="464" type="line"/>
      <point x="347" y="508"/>
      <point x="303" y="548"/>
      <point x="238" y="548" type="curve" smooth="yes"/>
      <point x="120" y="548"/>
      <point x="67" y="455"/>
      <point x="67" y="270" type="curve" smooth="yes"/>
      <point x="67" y="85"/>
      <point x="120" y="-8"/>
      <point x="238" y="-8" type="curve" smooth="yes"/>
      <point x="303" y="-8"/>
      <point x="347" y="32"/>
      <point x="368" y="76" type="curve"/>
      <point x="371" y="76" type="line"/>
    </contour>
    <contour>
      <point x="238" y="11" type="curve" smooth="yes"/>
      <point x="132" y="11"/>
      <point x="90" y="101"/>
      <point x="90" y="245" type="curve" smooth="yes"/>
      <point x="90" y="295" type="line" smooth="yes"/>
      <point x="90" y="439"/>
      <point x="132" y="529"/>
      <point x="238" y="529" type="curve" smooth="yes"/>
      <point x="318" y="529"/>
      <point x="371" y="456"/>
      <point x="371" y="411" type="curve" smooth="yes"/>
      <point x="371" y="129" type="line" smooth="yes"/>
      <point x="371" y="84"/>
      <point x="318" y="11"/>
    </contour>
    <contour>
      <point x="525" y="11" type="curve" smooth="yes"/>
      <point x="445" y="11"/>
      <point x="392" y="85"/>
      <point x="392" y="129" type="curve" smooth="yes"/>
      <point x="392" y="411" type="line" smooth="yes"/>
      <point x="392" y="455"/>
      <point x="445" y="529"/>
      <point x="525" y="529" type="curve" smooth="yes"/>
      <point x="631" y="529"/>
      <point x="673" y="439"/>
      <point x="673" y="295" type="curve" smooth="yes"/>
      <point x="673" y="245" type="line" smooth="yes"/>
      <point x="673" y="101"/>
      <point x="631" y="11"/>
    </contour>
  </outline>
</glyph>
<glyph name="uni0446" format="2">
  <advance width="610"/>
  <unicode hex="0446"/>
  <outline>
    <contour>
      <point x="542" y="-147" type="line"/>
      <point x="563" y="-147" type="line"/>
      <point x="563" y="19" type="line"/>
      <point x="484" y="19" type="line"/>
      <point x="484" y="531" type="line"/>
      <point x="463" y="531" type="line"/>
      <point x="463" y="19" type="line"/>
      <point x="131" y="19" type="line"/>
      <point x="131" y="531" type="line"/>
      <point x="110" y="531" type="line"/>
      <point x="110" y="0" type="line"/>
      <point x="542" y="0" type="line"/>
    </contour>
  </outline>
</glyph>
<glyph name="uni0447" format="2">
  <advance width="547"/>
  <unicode hex="0447"/>
  <outline>
    <contour>
      <point x="416" y="0" type="line"/>
      <point x="437" y="0" type="line"/>
      <point x="437" y="531" type="line"/>
      <point x="416" y="531" type="line"/>
      <point x="416" y="363" type="line" smooth="yes"/>
      <point x="416" y="277"/>
      <point x="349" y="224"/>
      <point x="246" y="224" type="curve" smooth="yes"/>
      <point x="145" y="224"/>
      <point x="84" y="266"/>
      <point x="84" y="378" type="curve" smooth="yes"/>
      <point x="84" y="531" type="line"/>
      <point x="63" y="531" type="line"/>
      <point x="63" y="374" type="line" smooth="yes"/>
      <point x="63" y="256"/>
      <point x="130" y="205"/>
      <point x="244" y="205" type="curve" smooth="yes"/>
      <point x="339" y="205"/>
      <point x="392" y="246"/>
      <point x="413" y="292" type="curve"/>
      <point x="416" y="292" type="line"/>
    </contour>
  </outline>
</glyph>
<glyph name="uni0449" format="2">
  <advance width="834"/>
  <unicode hex="0449"/>
  <outline>
    <contour>
      <point x="766" y="-147" type="line"/>
      <point x="787" y="-147" type="line"/>
      <point x="787" y="19" type="line"/>
      <point x="707" y="19" type="line"/>
      <point x="707" y="531" type="line"/>
      <point x="686" y="531" type="line"/>
      <point x="686" y="19" type="line"/>
      <point x="420" y="19" type="line"/>
      <point x="420" y="531" type="line"/>
      <point x="399" y="531" type="line"/>
      <point x="399" y="19" type="line"/>
      <point x="132" y="19" type="line"/>
      <point x="132" y="531" type="line"/>
      <point x="111" y="531" type="line"/>
      <point x="111" y="0" type="line"/>
      <point x="766" y="0" type="line"/>
    </contour>
  </outline>
</glyph>
<glyph name="uni044E" format="2">
  <advance width="771"/>
  <unicode hex="044E"/>
  <outline>
    <contour>
      <point x="494" y="-13" type="curve" smooth="yes"/>
      <point x="629" y="-13"/>
      <point x="708" y="84"/>
      <point x="708" y="266" type="curve" smooth="yes"/>
      <point x="708" y="448"/>
      <point x="629" y="544"/>
      <point x="494" y="544" type="curve" smooth="yes"/>
      <point x="366" y="544"/>
      <point x="287" y="455"/>
      <point x="280" y="288" type="curve"/>
      <point x="132" y="288" type="line"/>
      <point x="132" y="531" type="line"/>
      <point x="111" y="531" type="line"/>
      <point x="111" y="0" type="line"/>
      <point x="132" y="0" type="line"/>
      <point x="132" y="269" type="line"/>
      <point x="280" y="269" type="line"/>
      <point x="280" y="84"/>
      <point x="360" y="-13"/>
    </contour>
    <contour>
      <point x="494" y="6" type="curve" smooth="yes"/>
      <point x="372" y="6"/>
      <point x="303" y="99"/>
      <point x="303" y="241" type="curve" smooth="yes"/>
      <point x="303" y="291" type="line" smooth="yes"/>
      <point x="303" y="432"/>
      <point x="371" y="525"/>
      <point x="494" y="525" type="curve" smooth="yes"/>
      <point x="617" y="525"/>
      <point x="685" y="432"/>
      <point x="685" y="291" type="curve" smooth="yes"/>
      <point x="685" y="241" type="line" smooth="yes"/>
      <point x="685" y="99"/>
      <point x="617" y="6"/>
    </contour>
  </outline>
</glyph>
<glyph name="uni0451" format="2">
  <advance width="560"/>
  <unicode hex="0451"/>
  <outline>
    <contour>
      <point x="286" y="-13" type="curve" smooth="yes"/>
      <point x="387" y="-13"/>
      <point x="457" y="43"/>
      <point x="488" y="130" type="curve"/>
      <point x="470" y="137" type="line"/>
      <point x="438" y="50"/>
      <point x="375" y="6"/>
      <point x="286" y="6" type="curve" smooth="yes"/>
      <point x="159" y="6"/>
      <point x="86" y="97"/>
      <point x="86" y="240" type="curve" smooth="yes"/>
      <point x="86" y="270" type="line"/>
      <point x="497" y="270" type="line"/>
      <point x="497" y="279" type="line" smooth="yes"/>
      <point x="497" y="442"/>
      <point x="410" y="544"/>
      <point x="281" y="544" type="curve" smooth="yes"/>
      <point x="145" y="544"/>
      <point x="63" y="448"/>
      <point x="63" y="266" type="curve" smooth="yes"/>
      <point x="63" y="82"/>
      <point x="147" y="-13"/>
    </contour>
    <contour>
      <point x="86" y="291" type="line" smooth="yes"/>
      <point x="86" y="434"/>
      <point x="157" y="525"/>
      <point x="281" y="525" type="curve" smooth="yes"/>
      <point x="397" y="525"/>
      <point x="474" y="434"/>
      <point x="474" y="293" type="curve" smooth="yes"/>
      <point x="474" y="289" type="line"/>
      <point x="86" y="289" type="line"/>
    </contour>
    <contour>
      <point x="186" y="676" type="curve" smooth="yes"/>
      <point x="203" y="676"/>
      <point x="209" y="686"/>
      <point x="209" y="697" type="curve" smooth="yes"/>
      <point x="209" y="704" type="line" smooth="yes"/>
      <point x="209" y="715"/>
      <point x="203" y="725"/>
      <point x="186" y="725" type="curve" smooth="yes"/>
      <point x="169" y="725"/>
      <point x="163" y="715"/>
      <point x="163" y="704" type="curve" smooth="yes"/>
      <point x="163" y="697" type="line" smooth="yes"/>
      <point x="163" y="686"/>
      <point x="169" y="676"/>
    </contour>
    <contour>
      <point x="377" y="676" type="curve" smooth="yes"/>
      <point x="394" y="676"/>
      <point x="400" y="686"/>
      <point x="400" y="697" type="curve" smooth="yes"/>
      <point x="400" y="704" type="line" smooth="yes"/>
      <point x="400" y="715"/>
      <point x="394" y="725"/>
      <point x="377" y="725" type="curve" smooth="yes"/>
      <point x="360" y="725"/>
      <point x="354" y="715"/>
      <point x="354" y="704" type="curve" smooth="yes"/>
      <point x="354" y="697" type="line" smooth="yes"/>
      <point x="354" y="686"/>
      <point x="360" y="676"/>
    </contour>
  </outline>
</glyph>
<glyph name="uni2010" format="2">
  <advance width="1000"/>
  <unicode hex="2010"/>
  <outline>
    <contour>
      <point x="620" y="310" type="line"/>
      <point x="620" y="330" type="line"/>
      <point x="380" y="330" type="line"/>
      <point x="380" y="310" type="line"/>
    </contour>
  </outline>
</glyph>
<glyph name="uni201C" format="2">
  <advance width="1000"/>
  <unicode hex="201C"/>
  <anchor x="490" y="380" name="BSB"/>
  <anchor x="500" y="0" name="LSB"/>
  <anchor x="1000" y="0" name="RSB"/>
  <anchor x="510" y="880" name="TSB"/>
  <outline>
    <contour>
      <point x="657" y="638" type="curve" smooth="yes"/>
      <point x="677" y="638"/>
      <point x="685" y="649"/>
      <point x="685" y="664" type="curve" smooth="yes"/>
      <point x="685" y="673" type="line" smooth="yes"/>
      <point x="685" y="685"/>
      <point x="677" y="696"/>
      <point x="653" y="696" type="curve"/>
      <point x="657" y="733"/>
      <point x="676" y="788"/>
      <point x="727" y="838" type="curve"/>
      <point x="708" y="838" type="line"/>
      <point x="665" y="798"/>
      <point x="631" y="731"/>
      <point x="631" y="676" type="curve" smooth="yes"/>
      <point x="631" y="664" type="line" smooth="yes"/>
      <point x="631" y="649"/>
      <point x="639" y="638"/>
    </contour>
    <contour>
      <point x="825" y="638" type="curve" smooth="yes"/>
      <point x="845" y="638"/>
      <point x="853" y="649"/>
      <point x="853" y="664" type="curve" smooth="yes"/>
      <point x="853" y="673" type="line" smooth="yes"/>
      <point x="853" y="685"/>
      <point x="845" y="696"/>
      <point x="821" y="696" type="curve"/>
      <point x="825" y="733"/>
      <point x="844" y="788"/>
      <point x="895" y="838" type="curve"/>
      <point x="876" y="838" type="line"/>
      <point x="833" y="798"/>
      <point x="799" y="731"/>
      <point x="799" y="676" type="curve" smooth="yes"/>
      <point x="799" y="664" type="line" smooth="yes"/>
      <point x="799" y="649"/>
      <point x="807" y="638"/>
    </contour>
  </outline>
</glyph>
<glyph name="uni201D" format="2">
  <advance width="1000"/>
  <unicode hex="201D"/>
  <anchor x="490" y="380" name="BSB"/>
  <anchor x="0" y="0" name="LSB"/>
  <anchor x="500" y="0" name="RSB"/>
  <anchor x="510" y="880" name="TSB"/>
  <outline>
    <contour>
      <point x="303" y="845" type="curve" smooth="yes"/>
      <point x="283" y="845"/>
      <point x="275" y="834"/>
      <point x="275" y="819" type="curve" smooth="yes"/>
      <point x="275" y="810" type="line" smooth="yes"/>
      <point x="275" y="798"/>
      <point x="283" y="787"/>
      <point x="307" y="787" type="curve"/>
      <point x="303" y="750"/>
      <point x="284" y="695"/>
      <point x="233" y="645" type="curve"/>
      <point x="252" y="645" type="line"/>
      <point x="295" y="685"/>
      <point x="329" y="752"/>
      <point x="329" y="807" type="curve" smooth="yes"/>
      <point x="329" y="819" type="line" smooth="yes"/>
      <point x="329" y="834"/>
      <point x="321" y="845"/>
    </contour>
    <contour>
      <point x="135" y="845" type="curve" smooth="yes"/>
      <point x="115" y="845"/>
      <point x="107" y="834"/>
      <point x="107" y="819" type="curve" smooth="yes"/>
      <point x="107" y="810" type="line" smooth="yes"/>
      <point x="107" y="798"/>
      <point x="115" y="787"/>
      <point x="139" y="787" type="curve"/>
      <point x="135" y="750"/>
      <point x="116" y="695"/>
      <point x="65" y="645" type="curve"/>
      <point x="84" y="645" type="line"/>
      <point x="127" y="685"/>
      <point x="161" y="752"/>
      <point x="161" y="807" type="curve" smooth="yes"/>
      <point x="161" y="819" type="line" smooth="yes"/>
      <point x="161" y="834"/>
      <point x="153" y="845"/>
    </contour>
  </outline>
</glyph>
<glyph name="uni2030" format="2">
  <advance width="1000"/>
  <unicode hex="2030"/>
  <outline>
    <contour>
      <point x="189" y="0" type="line"/>
      <point x="552" y="733" type="line"/>
      <point x="531" y="733" type="line"/>
      <point x="168" y="0" type="line"/>
    </contour>
    <contour>
      <point x="183" y="362" type="curve" smooth="yes"/>
      <point x="254" y="362"/>
      <point x="292" y="417"/>
      <point x="292" y="554" type="curve" smooth="yes"/>
      <point x="292" y="691"/>
      <point x="254" y="746"/>
      <point x="183" y="746" type="curve" smooth="yes"/>
      <point x="112" y="746"/>
      <point x="74" y="691"/>
      <point x="74" y="554" type="curve" smooth="yes"/>
      <point x="74" y="417"/>
      <point x="112" y="362"/>
    </contour>
    <contour>
      <point x="183" y="379" type="curve" smooth="yes"/>
      <point x="124" y="379"/>
      <point x="93" y="424"/>
      <point x="93" y="538" type="curve" smooth="yes"/>
      <point x="93" y="570" type="line" smooth="yes"/>
      <point x="93" y="684"/>
      <point x="124" y="729"/>
      <point x="183" y="729" type="curve" smooth="yes"/>
      <point x="242" y="729"/>
      <point x="273" y="684"/>
      <point x="273" y="570" type="curve" smooth="yes"/>
      <point x="273" y="538" type="line" smooth="yes"/>
      <point x="273" y="424"/>
      <point x="242" y="379"/>
    </contour>
    <contour>
      <point x="533" y="-12" type="curve" smooth="yes"/>
      <point x="604" y="-12"/>
      <point x="642" y="43"/>
      <point x="642" y="180" type="curve" smooth="yes"/>
      <point x="642" y="317"/>
      <point x="604" y="372"/>
      <point x="533" y="372" type="curve" smooth="yes"/>
      <point x="462" y="372"/>
      <point x="424" y="317"/>
      <point x="424" y="180" type="curve" smooth="yes"/>
      <point x="424" y="43"/>
      <point x="462" y="-12"/>
    </contour>
    <contour>
      <point x="533" y="5" type="curve" smooth="yes"/>
      <point x="474" y="5"/>
      <point x="443" y="50"/>
      <point x="443" y="164" type="curve" smooth="yes"/>
      <point x="443" y="196" type="line" smooth="yes"/>
      <point x="443" y="310"/>
      <point x="474" y="355"/>
      <point x="533" y="355" type="curve" smooth="yes"/>
      <point x="592" y="355"/>
      <point x="623" y="310"/>
      <point x="623" y="196" type="curve" smooth="yes"/>
      <point x="623" y="164" type="line" smooth="yes"/>
      <point x="623" y="50"/>
      <point x="592" y="5"/>
    </contour>
    <contour>
      <point x="817" y="-12" type="curve" smooth="yes"/>
      <point x="888" y="-12"/>
      <point x="926" y="43"/>
      <point x="926" y="180" type="curve" smooth="yes"/>
      <point x="926" y="317"/>
      <point x="888" y="372"/>
      <point x="817" y="372" type="curve" smooth="yes"/>
      <point x="746" y="372"/>
      <point x="708" y="317"/>
      <point x="708" y="180" type="curve" smooth="yes"/>
      <point x="708" y="43"/>
      <point x="746" y="-12"/>
    </contour>
    <contour>
      <point x="817" y="5" type="curve" smooth="yes"/>
      <point x="758" y="5"/>
      <point x="727" y="50"/>
      <point x="727" y="164" type="curve" smooth="yes"/>
      <point x="727" y="196" type="line" smooth="yes"/>
      <point x="727" y="310"/>
      <point x="758" y="355"/>
      <point x="817" y="355" type="curve" smooth="yes"/>
      <point x="876" y="355"/>
      <point x="907" y="310"/>
      <point x="907" y="196" type="curve" smooth="yes"/>
      <point x="907" y="164" type="line" smooth="yes"/>
      <point x="907" y="50"/>
      <point x="876" y="5"/>
    </contour>
  </outline>
</glyph>
<glyph name="uni2032" format="2">
  <advance width="220"/>
  <unicode hex="2032"/>
  <outline>
    <contour>
      <point x="92" y="428" type="line"/>
      <point x="149" y="740" type="line"/>
      <point x="129" y="740" type="line"/>
      <point x="72" y="428" type="line"/>
    </contour>
  </outline>
</glyph>
<glyph name="uni2033" format="2">
  <advance width="373"/>
  <unicode hex="2033"/>
  <outline>
    <contour>
      <point x="245" y="428" type="line"/>
      <point x="302" y="740" type="line"/>
      <point x="282" y="740" type="line"/>
      <point x="225" y="428" type="line"/>
    </contour>
    <contour>
      <point x="92" y="428" type="line"/>
      <point x="149" y="740" type="line"/>
      <point x="129" y="740" type="line"/>
      <point x="72" y="428" type="line"/>
    </contour>
  </outline>
</glyph>
<glyph name="uni205D" format="2">
  <advance width="1000"/>
  <unicode hex="205D"/>
  <outline>
    <contour>
      <point x="471" y="713" type="curve" smooth="yes"/>
      <point x="471" y="695"/>
      <point x="480" y="686"/>
      <point x="496" y="686" type="curve" smooth="yes"/>
      <point x="504" y="686" type="line" smooth="yes"/>
      <point x="520" y="686"/>
      <point x="529" y="695"/>
      <point x="529" y="713" type="curve" smooth="yes"/>
      <point x="529" y="731"/>
      <point x="520" y="740"/>
      <point x="504" y="740" type="curve" smooth="yes"/>
      <point x="496" y="740" type="line" smooth="yes"/>
      <point x="480" y="740"/>
      <point x="471" y="731"/>
    </contour>
    <contour>
      <point x="471" y="380" type="curve" smooth="yes"/>
      <point x="471" y="362"/>
      <point x="480" y="353"/>
      <point x="496" y="353" type="curve" smooth="yes"/>
      <point x="504" y="353" type="line" smooth="yes"/>
      <point x="520" y="353"/>
      <point x="529" y="362"/>
      <point x="529" y="380" type="curve" smooth="yes"/>
      <point x="529" y="398"/>
      <point x="520" y="407"/>
      <point x="504" y="407" type="curve" smooth="yes"/>
      <point x="496" y="407" type="line" smooth="yes"/>
      <point x="480" y="407"/>
      <point x="471" y="398"/>
    </contour>
    <contour>
      <point x="471" y="47" type="curve" smooth="yes"/>
      <point x="471" y="29"/>
      <point x="480" y="20"/>
      <point x="496" y="20" type="curve" smooth="yes"/>
      <point x="504" y="20" type="line" smooth="yes"/>
      <point x="520" y="20"/>
      <point x="529" y="29"/>
      <point x="529" y="47" type="curve" smooth="yes"/>
      <point x="529" y="65"/>
      <point x="520" y="74"/>
      <point x="504" y="74" type="curve" smooth="yes"/>
      <point x="496" y="74" type="line" smooth="yes"/>
      <point x="480" y="74"/>
      <point x="471" y="65"/>
    </contour>
  </outline>
</glyph>
<glyph name="euro" format="2">
  <advance width="641"/>
  <unicode hex="20AC"/>
  <outline>
    <contour>
      <point x="356" y="-12" type="curve" smooth="yes"/>
      <point x="468" y="-12"/>
      <point x="550" y="52"/>
      <point x="588" y="148" type="curve"/>
      <point x="569" y="156" type="line"/>
      <point x="533" y="65"/>
      <point x="460" y="8"/>
      <point x="356" y="8" type="curve" smooth="yes"/>
      <point x="179" y="8"/>
      <point x="108" y="154"/>
      <point x="108" y="345" type="curve"/>
      <point x="108" y="389" type="line"/>
      <point x="108" y="580"/>
      <point x="180" y="726"/>
      <point x="356" y="726" type="curve" smooth="yes"/>
      <point x="451" y="726"/>
      <point x="526" y="673"/>
      <point x="564" y="586" type="curve"/>
      <point x="583" y="596" type="line"/>
      <point x="543" y="685"/>
      <point x="463" y="746"/>
      <point x="356" y="746" type="curve" smooth="yes"/>
      <point x="183" y="746"/>
      <point x="84" y="619"/>
      <point x="84" y="367" type="curve" smooth="yes"/>
      <point x="84" y="115"/>
      <point x="183" y="-12"/>
    </contour>
    <contour>
      <point x="388" y="278" type="line"/>
      <point x="388" y="297" type="line"/>
      <point x="98" y="297" type="line"/>
      <point x="99" y="278" type="line"/>
    </contour>
    <contour>
      <point x="388" y="437" type="line"/>
      <point x="388" y="456" type="line"/>
      <point x="99" y="456" type="line"/>
      <point x="97" y="437" type="line"/>
    </contour>
  </outline>
</glyph>
<glyph name="uni2103" format="2">
  <advance width="1000"/>
  <unicode hex="2103"/>
  <outline>
    <contour>
      <point x="181" y="462" type="curve" smooth="yes"/>
      <point x="260" y="462"/>
      <point x="318" y="523"/>
      <point x="318" y="604" type="curve" smooth="yes"/>
      <point x="318" y="684"/>
      <point x="260" y="745"/>
      <point x="181" y="745" type="curve" smooth="yes"/>
      <point x="103" y="745"/>
      <point x="45" y="684"/>
      <point x="45" y="604" type="curve" smooth="yes"/>
      <point x="45" y="523"/>
      <point x="103" y="462"/>
    </contour>
    <contour>
      <point x="181" y="480" type="curve" smooth="yes"/>
      <point x="110" y="480"/>
      <point x="65" y="536"/>
      <point x="65" y="604" type="curve" smooth="yes"/>
      <point x="65" y="671"/>
      <point x="110" y="727"/>
      <point x="181" y="727" type="curve" smooth="yes"/>
      <point x="253" y="727"/>
      <point x="298" y="671"/>
      <point x="298" y="604" type="curve" smooth="yes"/>
      <point x="298" y="536"/>
      <point x="253" y="480"/>
    </contour>
    <contour>
      <point x="694" y="-13" type="curve" smooth="yes"/>
      <point x="807" y="-13"/>
      <point x="889" y="51"/>
      <point x="925" y="147" type="curve"/>
      <point x="907" y="154" type="line"/>
      <point x="871" y="63"/>
      <point x="798" y="7"/>
      <point x="694" y="7" type="curve" smooth="yes"/>
      <point x="540" y="7"/>
      <point x="447" y="118"/>
      <point x="447" y="344" type="curve" smooth="yes"/>
      <point x="447" y="389" type="line" smooth="yes"/>
      <point x="447" y="615"/>
      <point x="540" y="726"/>
      <point x="694" y="726" type="curve" smooth="yes"/>
      <point x="790" y="726"/>
      <point x="864" y="673"/>
      <point x="901" y="587" type="curve"/>
      <point x="920" y="595" type="line"/>
      <point x="881" y="685"/>
      <point x="802" y="746"/>
      <point x="694" y="746" type="curve" smooth="yes"/>
      <point x="521" y="746"/>
      <point x="423" y="619"/>
      <point x="423" y="366" type="curve" smooth="yes"/>
      <point x="423" y="114"/>
      <point x="521" y="-13"/>
    </contour>
  </outline>
</glyph>
<glyph name="uni2105" format="2">
  <advance width="1000"/>
  <unicode hex="2105"/>
  <outline>
    <contour>
      <point x="248" y="344" type="curve" smooth="yes"/>
      <point x="307" y="344"/>
      <point x="349" y="368"/>
      <point x="376" y="417" type="curve"/>
      <point x="360" y="428" type="line"/>
      <point x="337" y="385"/>
      <point x="300" y="363"/>
      <point x="248" y="363" type="curve" smooth="yes"/>
      <point x="165" y="363"/>
      <point x="116" y="427"/>
      <point x="116" y="528" type="curve" smooth="yes"/>
      <point x="116" y="563" type="line" smooth="yes"/>
      <point x="116" y="664"/>
      <point x="165" y="727"/>
      <point x="248" y="727" type="curve" smooth="yes"/>
      <point x="297" y="727"/>
      <point x="328" y="707"/>
      <point x="353" y="661" type="curve"/>
      <point x="370" y="670" type="line"/>
      <point x="344" y="719"/>
      <point x="303" y="746"/>
      <point x="248" y="746" type="curve" smooth="yes"/>
      <point x="149" y="746"/>
      <point x="94" y="672"/>
      <point x="94" y="546" type="curve" smooth="yes"/>
      <point x="94" y="420"/>
      <point x="149" y="344"/>
    </contour>
    <contour>
      <point x="241" y="0" type="line"/>
      <point x="780" y="733" type="line"/>
      <point x="757" y="733" type="line"/>
      <point x="218" y="0" type="line"/>
    </contour>
    <contour>
      <point x="749" y="-13" type="curve" smooth="yes"/>
      <point x="834" y="-13"/>
      <point x="906" y="45"/>
      <point x="906" y="189" type="curve" smooth="yes"/>
      <point x="906" y="333"/>
      <point x="834" y="391"/>
      <point x="749" y="391" type="curve" smooth="yes"/>
      <point x="663" y="391"/>
      <point x="591" y="333"/>
      <point x="591" y="189" type="curve" smooth="yes"/>
      <point x="591" y="45"/>
      <point x="663" y="-13"/>
    </contour>
    <contour>
      <point x="749" y="4" type="curve" smooth="yes"/>
      <point x="679" y="4"/>
      <point x="613" y="52"/>
      <point x="613" y="172" type="curve" smooth="yes"/>
      <point x="613" y="206" type="line" smooth="yes"/>
      <point x="613" y="327"/>
      <point x="679" y="374"/>
      <point x="749" y="374" type="curve" smooth="yes"/>
      <point x="819" y="374"/>
      <point x="884" y="327"/>
      <point x="884" y="206" type="curve" smooth="yes"/>
      <point x="884" y="172" type="line" smooth="yes"/>
      <point x="884" y="52"/>
      <point x="819" y="4"/>
    </contour>
  </outline>
</glyph>
<glyph name="uni2109" format="2">
  <advance width="1000"/>
  <unicode hex="2109"/>
  <outline>
    <contour>
      <point x="208" y="462" type="curve" smooth="yes"/>
      <point x="286" y="462"/>
      <point x="345" y="524"/>
      <point x="345" y="604" type="curve" smooth="yes"/>
      <point x="345" y="684"/>
      <point x="286" y="745"/>
      <point x="208" y="745" type="curve" smooth="yes"/>
      <point x="130" y="745"/>
      <point x="72" y="684"/>
      <point x="72" y="604" type="curve" smooth="yes"/>
      <point x="72" y="524"/>
      <point x="130" y="462"/>
    </contour>
    <contour>
      <point x="208" y="480" type="curve" smooth="yes"/>
      <point x="137" y="480"/>
      <point x="92" y="536"/>
      <point x="92" y="604" type="curve" smooth="yes"/>
      <point x="92" y="671"/>
      <point x="137" y="727"/>
      <point x="208" y="727" type="curve" smooth="yes"/>
      <point x="279" y="727"/>
      <point x="325" y="671"/>
      <point x="325" y="604" type="curve" smooth="yes"/>
      <point x="325" y="536"/>
      <point x="279" y="480"/>
    </contour>
    <contour>
      <point x="513" y="362" type="line"/>
      <point x="868" y="362" type="line"/>
      <point x="868" y="382" type="line"/>
      <point x="513" y="382" type="line"/>
      <point x="513" y="713" type="line"/>
      <point x="883" y="713" type="line"/>
      <point x="883" y="733" type="line"/>
      <point x="491" y="733" type="line"/>
      <point x="491" y="0" type="line"/>
      <point x="513" y="0" type="line"/>
    </contour>
  </outline>
</glyph>
<glyph name="uni2121" format="2">
  <advance width="1000"/>
  <unicode hex="2121"/>
  <outline>
    <contour>
      <point x="397" y="713" type="line"/>
      <point x="397" y="733" type="line"/>
      <point x="61" y="733" type="line"/>
      <point x="61" y="713" type="line"/>
      <point x="218" y="713" type="line"/>
      <point x="218" y="0" type="line"/>
      <point x="240" y="0" type="line"/>
      <point x="240" y="713" type="line"/>
    </contour>
    <contour>
      <point x="663" y="0" type="line"/>
      <point x="663" y="20" type="line"/>
      <point x="440" y="20" type="line"/>
      <point x="440" y="261" type="line"/>
      <point x="651" y="261" type="line"/>
      <point x="651" y="281" type="line"/>
      <point x="440" y="281" type="line"/>
      <point x="440" y="511" type="line"/>
      <point x="663" y="511" type="line"/>
      <point x="663" y="531" type="line"/>
      <point x="418" y="531" type="line"/>
      <point x="418" y="0" type="line"/>
    </contour>
    <contour>
      <point x="939" y="0" type="line"/>
      <point x="939" y="20" type="line"/>
      <point x="741" y="20" type="line"/>
      <point x="741" y="531" type="line"/>
      <point x="719" y="531" type="line"/>
      <point x="719" y="0" type="line"/>
    </contour>
  </outline>
</glyph>
<glyph name="uni2122" format="2">
  <advance width="670"/>
  <unicode hex="2122"/>
  <outline>
    <contour>
      <point x="360" y="452" type="line"/>
      <point x="360" y="633" type="line"/>
      <point x="360" y="704" type="line"/>
      <point x="362" y="704" type="line"/>
      <point x="460" y="520" type="line"/>
      <point x="558" y="704" type="line"/>
      <point x="561" y="704" type="line"/>
      <point x="561" y="633" type="line"/>
      <point x="561" y="452" type="line"/>
      <point x="578" y="452" type="line"/>
      <point x="578" y="733" type="line"/>
      <point x="555" y="733" type="line"/>
      <point x="461" y="555" type="line"/>
      <point x="459" y="555" type="line"/>
      <point x="365" y="733" type="line"/>
      <point x="343" y="733" type="line"/>
      <point x="343" y="452" type="line"/>
    </contour>
    <contour>
      <point x="157" y="452" type="line"/>
      <point x="157" y="717" type="line"/>
      <point x="269" y="717" type="line"/>
      <point x="269" y="733" type="line"/>
      <point x="26" y="733" type="line"/>
      <point x="26" y="717" type="line"/>
      <point x="138" y="717" type="line"/>
      <point x="138" y="452" type="line"/>
    </contour>
  </outline>
</glyph>
<glyph name="uni2162" format="2">
  <advance width="1000"/>
  <unicode hex="2162"/>
  <outline>
    <contour>
      <point x="56" y="0" type="line"/>
      <point x="303" y="0" type="line"/>
      <point x="303" y="19" type="line"/>
      <point x="190" y="19" type="line"/>
      <point x="190" y="714" type="line"/>
      <point x="303" y="714" type="line"/>
      <point x="303" y="733" type="line"/>
      <point x="56" y="733" type="line"/>
      <point x="56" y="714" type="line"/>
      <point x="168" y="714" type="line"/>
      <point x="168" y="19" type="line"/>
      <point x="56" y="19" type="line"/>
    </contour>
    <contour>
      <point x="376" y="0" type="line"/>
      <point x="624" y="0" type="line"/>
      <point x="624" y="19" type="line"/>
      <point x="511" y="19" type="line"/>
      <point x="511" y="714" type="line"/>
      <point x="624" y="714" type="line"/>
      <point x="624" y="733" type="line"/>
      <point x="376" y="733" type="line"/>
      <point x="376" y="714" type="line"/>
      <point x="488" y="714" type="line"/>
      <point x="488" y="19" type="line"/>
      <point x="376" y="19" type="line"/>
    </contour>
    <contour>
      <point x="697" y="0" type="line"/>
      <point x="944" y="0" type="line"/>
      <point x="944" y="19" type="line"/>
      <point x="831" y="19" type="line"/>
      <point x="831" y="714" type="line"/>
      <point x="944" y="714" type="line"/>
      <point x="944" y="733" type="line"/>
      <point x="697" y="733" type="line"/>
      <point x="697" y="714" type="line"/>
      <point x="809" y="714" type="line"/>
      <point x="809" y="19" type="line"/>
      <point x="697" y="19" type="line"/>
    </contour>
  </outline>
</glyph>
<glyph name="uni2169" format="2">
  <advance width="1000"/>
  <unicode hex="2169"/>
  <outline>
    <contour>
      <point x="250" y="0" type="line"/>
      <point x="500" y="354" type="line"/>
      <point x="502" y="354" type="line"/>
      <point x="750" y="0" type="line"/>
      <point x="777" y="0" type="line"/>
      <point x="515" y="374" type="line"/>
      <point x="767" y="733" type="line"/>
      <point x="739" y="733" type="line"/>
      <point x="501" y="393" type="line"/>
      <point x="499" y="393" type="line"/>
      <point x="261" y="733" type="line"/>
      <point x="233" y="733" type="line"/>
      <point x="486" y="373" type="line"/>
      <point x="223" y="0" type="line"/>
    </contour>
  </outline>
</glyph>
<glyph name="uni216A" format="2">
  <advance width="1000"/>
  <unicode hex="216A"/>
  <outline>
    <contour>
      <point x="65" y="0" type="line"/>
      <point x="302" y="354" type="line"/>
      <point x="304" y="354" type="line"/>
      <point x="539" y="0" type="line"/>
      <point x="566" y="0" type="line"/>
      <point x="317" y="375" type="line"/>
      <point x="556" y="733" type="line"/>
      <point x="529" y="733" type="line"/>
      <point x="303" y="393" type="line"/>
      <point x="301" y="393" type="line"/>
      <point x="75" y="733" type="line"/>
      <point x="48" y="733" type="line"/>
      <point x="288" y="372" type="line"/>
      <point x="38" y="0" type="line"/>
    </contour>
    <contour>
      <point x="929" y="0" type="line"/>
      <point x="929" y="19" type="line"/>
      <point x="805" y="19" type="line"/>
      <point x="805" y="714" type="line"/>
      <point x="929" y="714" type="line"/>
      <point x="929" y="733" type="line"/>
      <point x="661" y="733" type="line"/>
      <point x="661" y="714" type="line"/>
      <point x="783" y="714" type="line"/>
      <point x="783" y="19" type="line"/>
      <point x="661" y="19" type="line"/>
      <point x="661" y="0" type="line"/>
    </contour>
  </outline>
</glyph>
<glyph name="uni216B" format="2">
  <advance width="1000"/>
  <unicode hex="216B"/>
  <outline>
    <contour>
      <point x="63" y="0" type="line"/>
      <point x="233" y="354" type="line"/>
      <point x="235" y="354" type="line"/>
      <point x="406" y="0" type="line"/>
      <point x="429" y="0" type="line"/>
      <point x="249" y="375" type="line"/>
      <point x="422" y="733" type="line"/>
      <point x="397" y="733" type="line"/>
      <point x="235" y="393" type="line"/>
      <point x="232" y="393" type="line"/>
      <point x="69" y="733" type="line"/>
      <point x="45" y="733" type="line"/>
      <point x="219" y="372" type="line"/>
      <point x="38" y="0" type="line"/>
    </contour>
    <contour>
      <point x="686" y="0" type="line"/>
      <point x="686" y="19" type="line"/>
      <point x="580" y="19" type="line"/>
      <point x="580" y="714" type="line"/>
      <point x="686" y="714" type="line"/>
      <point x="686" y="733" type="line"/>
      <point x="454" y="733" type="line"/>
      <point x="454" y="714" type="line"/>
      <point x="558" y="714" type="line"/>
      <point x="558" y="19" type="line"/>
      <point x="454" y="19" type="line"/>
      <point x="454" y="0" type="line"/>
    </contour>
    <contour>
      <point x="958" y="0" type="line"/>
      <point x="958" y="19" type="line"/>
      <point x="852" y="19" type="line"/>
      <point x="852" y="714" type="line"/>
      <point x="958" y="714" type="line"/>
      <point x="958" y="733" type="line"/>
      <point x="726" y="733" type="line"/>
      <point x="725" y="714" type="line"/>
      <point x="830" y="714" type="line"/>
      <point x="830" y="19" type="line"/>
      <point x="726" y="19" type="line"/>
      <point x="726" y="0" type="line"/>
    </contour>
  </outline>
</glyph>
<glyph name="uni2170" format="2">
  <advance width="1000"/>
  <unicode hex="2170"/>
  <outline>
    <contour>
      <point x="510" y="0" type="line"/>
      <point x="510" y="531" type="line"/>
      <point x="489" y="531" type="line"/>
      <point x="489" y="0" type="line"/>
    </contour>
    <contour>
      <point x="500" y="708" type="curve" smooth="yes"/>
      <point x="518" y="708"/>
      <point x="523" y="717"/>
      <point x="523" y="729" type="curve" smooth="yes"/>
      <point x="523" y="736" type="line" smooth="yes"/>
      <point x="523" y="748"/>
      <point x="518" y="758"/>
      <point x="500" y="758" type="curve" smooth="yes"/>
      <point x="482" y="758"/>
      <point x="476" y="748"/>
      <point x="476" y="736" type="curve" smooth="yes"/>
      <point x="476" y="729" type="line" smooth="yes"/>
      <point x="476" y="717"/>
      <point x="482" y="708"/>
    </contour>
  </outline>
</glyph>
<glyph name="uni2171" format="2">
  <advance width="1000"/>
  <unicode hex="2171"/>
  <outline>
    <contour>
      <point x="671" y="0" type="line"/>
      <point x="671" y="531" type="line"/>
      <point x="650" y="531" type="line"/>
      <point x="650" y="0" type="line"/>
    </contour>
    <contour>
      <point x="351" y="0" type="line"/>
      <point x="351" y="531" type="line"/>
      <point x="330" y="531" type="line"/>
      <point x="330" y="0" type="line"/>
    </contour>
    <contour>
      <point x="340" y="708" type="curve" smooth="yes"/>
      <point x="357" y="708"/>
      <point x="363" y="718"/>
      <point x="363" y="729" type="curve" smooth="yes"/>
      <point x="363" y="736" type="line" smooth="yes"/>
      <point x="363" y="747"/>
      <point x="357" y="757"/>
      <point x="340" y="757" type="curve" smooth="yes"/>
      <point x="323" y="757"/>
      <point x="317" y="747"/>
      <point x="317" y="736" type="curve" smooth="yes"/>
      <point x="317" y="729" type="line" smooth="yes"/>
      <point x="317" y="718"/>
      <point x="323" y="708"/>
    </contour>
    <contour>
      <point x="660" y="708" type="curve" smooth="yes"/>
      <point x="677" y="708"/>
      <point x="683" y="718"/>
      <point x="683" y="729" type="curve" smooth="yes"/>
      <point x="683" y="736" type="line" smooth="yes"/>
      <point x="683" y="747"/>
      <point x="677" y="757"/>
      <point x="660" y="757" type="curve" smooth="yes"/>
      <point x="643" y="757"/>
      <point x="637" y="747"/>
      <point x="637" y="736" type="curve" smooth="yes"/>
      <point x="637" y="729" type="line" smooth="yes"/>
      <point x="637" y="718"/>
      <point x="643" y="708"/>
    </contour>
  </outline>
</glyph>
<glyph name="uni2173" format="2">
  <advance width="1000"/>
  <unicode hex="2173"/>
  <outline>
    <contour>
      <point x="641" y="0" type="line"/>
      <point x="837" y="531" type="line"/>
      <point x="816" y="531" type="line"/>
      <point x="695" y="204" type="line"/>
      <point x="629" y="25" type="line"/>
      <point x="626" y="25" type="line"/>
      <point x="560" y="203" type="line"/>
      <point x="439" y="531" type="line"/>
      <point x="417" y="531" type="line"/>
      <point x="615" y="0" type="line"/>
    </contour>
    <contour>
      <point x="233" y="0" type="line"/>
      <point x="233" y="531" type="line"/>
      <point x="212" y="531" type="line"/>
      <point x="212" y="0" type="line"/>
    </contour>
    <contour>
      <point x="223" y="708" type="curve" smooth="yes"/>
      <point x="240" y="708"/>
      <point x="246" y="718"/>
      <point x="246" y="729" type="curve" smooth="yes"/>
      <point x="246" y="736" type="line" smooth="yes"/>
      <point x="246" y="747"/>
      <point x="240" y="757"/>
      <point x="223" y="757" type="curve" smooth="yes"/>
      <point x="206" y="757"/>
      <point x="200" y="747"/>
      <point x="200" y="736" type="curve" smooth="yes"/>
      <point x="200" y="729" type="line" smooth="yes"/>
      <point x="200" y="718"/>
      <point x="206" y="708"/>
    </contour>
  </outline>
</glyph>
<glyph name="uni2174" format="2">
  <advance width="1000"/>
  <unicode hex="2174"/>
  <outline>
    <contour>
      <point x="513" y="0" type="line"/>
      <point x="731" y="531" type="line"/>
      <point x="709" y="531" type="line"/>
      <point x="567" y="184" type="line"/>
      <point x="502" y="25" type="line"/>
      <point x="499" y="25" type="line"/>
      <point x="436" y="180" type="line"/>
      <point x="292" y="531" type="line"/>
      <point x="269" y="531" type="line"/>
      <point x="487" y="0" type="line"/>
    </contour>
  </outline>
</glyph>
<glyph name="uni2176" format="2">
  <advance width="1000"/>
  <unicode hex="2176"/>
  <outline>
    <contour>
      <point x="298" y="0" type="line"/>
      <point x="494" y="531" type="line"/>
      <point x="473" y="531" type="line"/>
      <point x="372" y="258" type="line"/>
      <point x="286" y="25" type="line"/>
      <point x="283" y="25" type="line"/>
      <point x="197" y="258" type="line"/>
      <point x="96" y="531" type="line"/>
      <point x="74" y="531" type="line"/>
      <point x="272" y="0" type="line"/>
    </contour>
    <contour>
      <point x="642" y="0" type="line"/>
      <point x="642" y="531" type="line"/>
      <point x="621" y="531" type="line"/>
      <point x="621" y="0" type="line"/>
    </contour>
    <contour>
      <point x="874" y="0" type="line"/>
      <point x="874" y="531" type="line"/>
      <point x="853" y="531" type="line"/>
      <point x="853" y="0" type="line"/>
    </contour>
    <contour>
      <point x="631" y="708" type="curve" smooth="yes"/>
      <point x="648" y="708"/>
      <point x="654" y="718"/>
      <point x="654" y="729" type="curve" smooth="yes"/>
      <point x="654" y="736" type="line" smooth="yes"/>
      <point x="654" y="747"/>
      <point x="648" y="757"/>
      <point x="631" y="757" type="curve" smooth="yes"/>
      <point x="614" y="757"/>
      <point x="608" y="747"/>
      <point x="608" y="736" type="curve" smooth="yes"/>
      <point x="608" y="729" type="line" smooth="yes"/>
      <point x="608" y="718"/>
      <point x="614" y="708"/>
    </contour>
    <contour>
      <point x="863" y="708" type="curve" smooth="yes"/>
      <point x="880" y="708"/>
      <point x="886" y="718"/>
      <point x="886" y="729" type="curve" smooth="yes"/>
      <point x="886" y="736" type="line" smooth="yes"/>
      <point x="886" y="747"/>
      <point x="880" y="757"/>
      <point x="863" y="757" type="curve" smooth="yes"/>
      <point x="846" y="757"/>
      <point x="840" y="747"/>
      <point x="840" y="736" type="curve" smooth="yes"/>
      <point x="840" y="729" type="line" smooth="yes"/>
      <point x="840" y="718"/>
      <point x="846" y="708"/>
    </contour>
  </outline>
</glyph>
<glyph name="uni2177" format="2">
  <advance width="1000"/>
  <unicode hex="2177"/>
  <outline>
    <contour>
      <point x="228" y="0" type="line"/>
      <point x="384" y="531" type="line"/>
      <point x="363" y="531" type="line"/>
      <point x="287" y="268" type="line"/>
      <point x="216" y="25" type="line"/>
      <point x="213" y="25" type="line"/>
      <point x="142" y="268" type="line"/>
      <point x="66" y="531" type="line"/>
      <point x="44" y="531" type="line"/>
      <point x="202" y="0" type="line"/>
    </contour>
    <contour>
      <point x="522" y="0" type="line"/>
      <point x="522" y="531" type="line"/>
      <point x="501" y="531" type="line"/>
      <point x="501" y="0" type="line"/>
    </contour>
    <contour>
      <point x="720" y="0" type="line"/>
      <point x="720" y="531" type="line"/>
      <point x="699" y="531" type="line"/>
      <point x="699" y="0" type="line"/>
    </contour>
    <contour>
      <point x="918" y="0" type="line"/>
      <point x="918" y="531" type="line"/>
      <point x="897" y="531" type="line"/>
      <point x="897" y="0" type="line"/>
    </contour>
    <contour>
      <point x="511" y="708" type="curve" smooth="yes"/>
      <point x="528" y="708"/>
      <point x="534" y="718"/>
      <point x="534" y="729" type="curve" smooth="yes"/>
      <point x="534" y="736" type="line" smooth="yes"/>
      <point x="534" y="747"/>
      <point x="528" y="757"/>
      <point x="511" y="757" type="curve" smooth="yes"/>
      <point x="494" y="757"/>
      <point x="488" y="747"/>
      <point x="488" y="736" type="curve" smooth="yes"/>
      <point x="488" y="729" type="line" smooth="yes"/>
      <point x="488" y="718"/>
      <point x="494" y="708"/>
    </contour>
    <contour>
      <point x="709" y="708" type="curve" smooth="yes"/>
      <point x="726" y="708"/>
      <point x="732" y="718"/>
      <point x="732" y="729" type="curve" smooth="yes"/>
      <point x="732" y="736" type="line" smooth="yes"/>
      <point x="732" y="747"/>
      <point x="726" y="757"/>
      <point x="709" y="757" type="curve" smooth="yes"/>
      <point x="692" y="757"/>
      <point x="686" y="747"/>
      <point x="686" y="736" type="curve" smooth="yes"/>
      <point x="686" y="729" type="line" smooth="yes"/>
      <point x="686" y="718"/>
      <point x="692" y="708"/>
    </contour>
    <contour>
      <point x="907" y="708" type="curve" smooth="yes"/>
      <point x="924" y="708"/>
      <point x="930" y="718"/>
      <point x="930" y="729" type="curve" smooth="yes"/>
      <point x="930" y="736" type="line" smooth="yes"/>
      <point x="930" y="747"/>
      <point x="924" y="757"/>
      <point x="907" y="757" type="curve" smooth="yes"/>
      <point x="890" y="757"/>
      <point x="884" y="747"/>
      <point x="884" y="736" type="curve" smooth="yes"/>
      <point x="884" y="729" type="line" smooth="yes"/>
      <point x="884" y="718"/>
      <point x="890" y="708"/>
    </contour>
  </outline>
</glyph>
<glyph name="uni2178" format="2">
  <advance width="1000"/>
  <unicode hex="2178"/>
  <outline>
    <contour>
      <point x="451" y="0" type="line"/>
      <point x="636" y="251" type="line"/>
      <point x="638" y="251" type="line"/>
      <point x="823" y="0" type="line"/>
      <point x="847" y="0" type="line"/>
      <point x="649" y="268" type="line"/>
      <point x="841" y="531" type="line"/>
      <point x="817" y="531" type="line"/>
      <point x="638" y="285" type="line"/>
      <point x="636" y="285" type="line"/>
      <point x="456" y="531" type="line"/>
      <point x="432" y="531" type="line"/>
      <point x="624" y="268" type="line"/>
      <point x="427" y="0" type="line"/>
    </contour>
    <contour>
      <point x="233" y="0" type="line"/>
      <point x="233" y="531" type="line"/>
      <point x="212" y="531" type="line"/>
      <point x="212" y="0" type="line"/>
    </contour>
    <contour>
      <point x="223" y="708" type="curve" smooth="yes"/>
      <point x="240" y="708"/>
      <point x="246" y="718"/>
      <point x="246" y="729" type="curve" smooth="yes"/>
      <point x="246" y="736" type="line" smooth="yes"/>
      <point x="246" y="747"/>
      <point x="240" y="757"/>
      <point x="223" y="757" type="curve" smooth="yes"/>
      <point x="206" y="757"/>
      <point x="200" y="747"/>
      <point x="200" y="736" type="curve" smooth="yes"/>
      <point x="200" y="729" type="line" smooth="yes"/>
      <point x="200" y="718"/>
      <point x="206" y="708"/>
    </contour>
  </outline>
</glyph>
<glyph name="uni2192" format="2">
  <advance width="1000"/>
  <unicode hex="2192"/>
  <outline>
    <contour>
      <point x="873" y="380" type="line"/>
      <point x="677" y="576" type="line"/>
      <point x="662" y="561" type="line"/>
      <point x="782" y="441" type="line"/>
      <point x="836" y="391" type="line"/>
      <point x="835" y="389" type="line"/>
      <point x="758" y="390" type="line"/>
      <point x="127" y="390" type="line"/>
      <point x="127" y="370" type="line"/>
      <point x="758" y="370" type="line"/>
      <point x="835" y="371" type="line"/>
      <point x="836" y="369" type="line"/>
      <point x="782" y="319" type="line"/>
      <point x="662" y="199" type="line"/>
      <point x="677" y="184" type="line"/>
    </contour>
  </outline>
</glyph>
<glyph name="uni2195" format="2">
  <advance width="1000"/>
  <unicode hex="2195"/>
  <outline>
    <contour>
      <point x="696" y="197" type="line"/>
      <point x="681" y="212" type="line"/>
      <point x="564" y="95" type="line"/>
      <point x="512" y="40" type="line"/>
      <point x="509" y="41" type="line"/>
      <point x="510" y="153" type="line"/>
      <point x="510" y="607" type="line"/>
      <point x="509" y="720" type="line"/>
      <point x="512" y="721" type="line"/>
      <point x="564" y="665" type="line"/>
      <point x="681" y="548" type="line"/>
      <point x="696" y="563" type="line"/>
      <point x="500" y="759" type="line"/>
      <point x="304" y="563" type="line"/>
      <point x="319" y="548" type="line"/>
      <point x="436" y="665" type="line"/>
      <point x="488" y="721" type="line"/>
      <point x="491" y="720" type="line"/>
      <point x="490" y="607" type="line"/>
      <point x="490" y="153" type="line"/>
      <point x="491" y="41" type="line"/>
      <point x="488" y="40" type="line"/>
      <point x="436" y="95" type="line"/>
      <point x="319" y="212" type="line"/>
      <point x="304" y="197" type="line"/>
      <point x="500" y="1" type="line"/>
    </contour>
  </outline>
</glyph>
<glyph name="uni2198" format="2">
  <advance width="1000"/>
  <unicode hex="2198"/>
  <outline>
    <contour>
      <point x="759" y="113" type="line"/>
      <point x="759" y="388" type="line"/>
      <point x="738" y="388" type="line"/>
      <point x="738" y="220" type="line"/>
      <point x="741" y="146" type="line"/>
      <point x="739" y="145" type="line"/>
      <point x="685" y="201" type="line"/>
      <point x="238" y="647" type="line"/>
      <point x="224" y="633" type="line"/>
      <point x="671" y="187" type="line"/>
      <point x="727" y="133" type="line"/>
      <point x="726" y="131" type="line"/>
      <point x="652" y="134" type="line"/>
      <point x="482" y="134" type="line"/>
      <point x="482" y="113" type="line"/>
    </contour>
  </outline>
</glyph>
<glyph name="uni2199" format="2">
  <advance width="1000"/>
  <unicode hex="2199"/>
  <outline>
    <contour>
      <point x="518" y="113" type="line"/>
      <point x="518" y="134" type="line"/>
      <point x="348" y="134" type="line"/>
      <point x="274" y="131" type="line"/>
      <point x="273" y="133" type="line"/>
      <point x="329" y="187" type="line"/>
      <point x="776" y="633" type="line"/>
      <point x="762" y="647" type="line"/>
      <point x="315" y="201" type="line"/>
      <point x="261" y="145" type="line"/>
      <point x="259" y="146" type="line"/>
      <point x="262" y="220" type="line"/>
      <point x="262" y="388" type="line"/>
      <point x="241" y="388" type="line"/>
      <point x="241" y="113" type="line"/>
    </contour>
  </outline>
</glyph>
<glyph name="uni21A9" format="2">
  <advance width="1000"/>
  <unicode hex="21A9"/>
  <outline>
    <contour>
      <point x="338" y="130" type="line"/>
      <point x="218" y="250" type="line"/>
      <point x="164" y="300" type="line"/>
      <point x="165" y="302" type="line"/>
      <point x="242" y="301" type="line"/>
      <point x="681" y="301" type="line" smooth="yes"/>
      <point x="795" y="301"/>
      <point x="871" y="373"/>
      <point x="871" y="480" type="curve" smooth="yes"/>
      <point x="871" y="589"/>
      <point x="795" y="661"/>
      <point x="681" y="661" type="curve"/>
      <point x="681" y="641" type="line"/>
      <point x="785" y="641"/>
      <point x="851" y="578"/>
      <point x="851" y="480" type="curve" smooth="yes"/>
      <point x="851" y="384"/>
      <point x="785" y="321"/>
      <point x="681" y="321" type="curve" smooth="yes"/>
      <point x="242" y="321" type="line"/>
      <point x="165" y="320" type="line"/>
      <point x="164" y="322" type="line"/>
      <point x="218" y="372" type="line"/>
      <point x="338" y="492" type="line"/>
      <point x="323" y="507" type="line"/>
      <point x="127" y="311" type="line"/>
      <point x="323" y="115" type="line"/>
    </contour>
  </outline>
</glyph>
<glyph name="uni21AA" format="2">
  <advance width="1000"/>
  <unicode hex="21AA"/>
  <outline>
    <contour>
      <point x="873" y="311" type="line"/>
      <point x="677" y="507" type="line"/>
      <point x="662" y="492" type="line"/>
      <point x="782" y="372" type="line"/>
      <point x="836" y="322" type="line"/>
      <point x="835" y="320" type="line"/>
      <point x="758" y="321" type="line"/>
      <point x="319" y="321" type="line" smooth="yes"/>
      <point x="215" y="321"/>
      <point x="149" y="384"/>
      <point x="149" y="480" type="curve" smooth="yes"/>
      <point x="149" y="578"/>
      <point x="215" y="641"/>
      <point x="319" y="641" type="curve"/>
      <point x="319" y="661" type="line"/>
      <point x="205" y="661"/>
      <point x="129" y="589"/>
      <point x="129" y="480" type="curve" smooth="yes"/>
      <point x="129" y="373"/>
      <point x="205" y="301"/>
      <point x="319" y="301" type="curve" smooth="yes"/>
      <point x="758" y="301" type="line"/>
      <point x="835" y="302" type="line"/>
      <point x="836" y="300" type="line"/>
      <point x="782" y="250" type="line"/>
      <point x="662" y="130" type="line"/>
      <point x="677" y="115" type="line"/>
    </contour>
  </outline>
</glyph>
<glyph name="uni21B0" format="2">
  <advance width="1000"/>
  <unicode hex="21B0"/>
  <outline>
    <contour>
      <point x="666" y="14" type="line"/>
      <point x="666" y="569" type="line"/>
      <point x="283" y="569" type="line"/>
      <point x="206" y="568" type="line"/>
      <point x="205" y="570" type="line"/>
      <point x="259" y="620" type="line"/>
      <point x="379" y="740" type="line"/>
      <point x="364" y="755" type="line"/>
      <point x="168" y="559" type="line"/>
      <point x="364" y="363" type="line"/>
      <point x="379" y="378" type="line"/>
      <point x="259" y="498" type="line"/>
      <point x="205" y="548" type="line"/>
      <point x="206" y="550" type="line"/>
      <point x="283" y="549" type="line"/>
      <point x="646" y="549" type="line"/>
      <point x="646" y="14" type="line"/>
    </contour>
  </outline>
</glyph>
<glyph name="uni21B1" format="2">
  <advance width="1000"/>
  <unicode hex="21B1"/>
  <outline>
    <contour>
      <point x="354" y="14" type="line"/>
      <point x="354" y="549" type="line"/>
      <point x="717" y="549" type="line"/>
      <point x="794" y="550" type="line"/>
      <point x="795" y="548" type="line"/>
      <point x="741" y="498" type="line"/>
      <point x="621" y="378" type="line"/>
      <point x="636" y="363" type="line"/>
      <point x="832" y="559" type="line"/>
      <point x="636" y="755" type="line"/>
      <point x="621" y="740" type="line"/>
      <point x="741" y="620" type="line"/>
      <point x="795" y="570" type="line"/>
      <point x="794" y="568" type="line"/>
      <point x="717" y="569" type="line"/>
      <point x="334" y="569" type="line"/>
      <point x="334" y="14" type="line"/>
    </contour>
  </outline>
</glyph>
<glyph name="uni21B2" format="2">
  <advance width="1000"/>
  <unicode hex="21B2"/>
  <outline>
    <contour>
      <point x="379" y="16" type="line"/>
      <point x="259" y="136" type="line"/>
      <point x="205" y="186" type="line"/>
      <point x="206" y="188" type="line"/>
      <point x="283" y="187" type="line"/>
      <point x="666" y="187" type="line"/>
      <point x="666" y="742" type="line"/>
      <point x="646" y="742" type="line"/>
      <point x="646" y="207" type="line"/>
      <point x="283" y="207" type="line"/>
      <point x="206" y="206" type="line"/>
      <point x="205" y="208" type="line"/>
      <point x="259" y="258" type="line"/>
      <point x="379" y="378" type="line"/>
      <point x="364" y="393" type="line"/>
      <point x="168" y="197" type="line"/>
      <point x="364" y="1" type="line"/>
    </contour>
  </outline>
</glyph>
<glyph name="uni21B3" format="2">
  <advance width="1000"/>
  <unicode hex="21B3"/>
  <outline>
    <contour>
      <point x="832" y="197" type="line"/>
      <point x="636" y="393" type="line"/>
      <point x="621" y="378" type="line"/>
      <point x="741" y="258" type="line"/>
      <point x="795" y="208" type="line"/>
      <point x="794" y="206" type="line"/>
      <point x="717" y="207" type="line"/>
      <point x="354" y="207" type="line"/>
      <point x="354" y="742" type="line"/>
      <point x="334" y="742" type="line"/>
      <point x="334" y="187" type="line"/>
      <point x="717" y="187" type="line"/>
      <point x="794" y="188" type="line"/>
      <point x="795" y="186" type="line"/>
      <point x="741" y="136" type="line"/>
      <point x="621" y="16" type="line"/>
      <point x="636" y="1" type="line"/>
    </contour>
  </outline>
</glyph>
<glyph name="uni21B6" format="2">
  <advance width="1000"/>
  <unicode hex="21B6"/>
  <outline>
    <contour>
      <point x="498" y="258" type="line"/>
      <point x="483" y="273" type="line"/>
      <point x="366" y="156" type="line"/>
      <point x="313" y="99" type="line"/>
      <point x="311" y="100" type="line"/>
      <point x="312" y="215" type="line"/>
      <point x="312" y="387" type="line" smooth="yes"/>
      <point x="312" y="567"/>
      <point x="424" y="685"/>
      <point x="592" y="685" type="curve" smooth="yes"/>
      <point x="760" y="685"/>
      <point x="873" y="567"/>
      <point x="873" y="387" type="curve"/>
      <point x="894" y="387" type="line"/>
      <point x="894" y="578"/>
      <point x="773" y="705"/>
      <point x="592" y="705" type="curve" smooth="yes"/>
      <point x="413" y="705"/>
      <point x="292" y="578"/>
      <point x="292" y="387" type="curve" smooth="yes"/>
      <point x="292" y="215" type="line"/>
      <point x="293" y="100" type="line"/>
      <point x="291" y="99" type="line"/>
      <point x="238" y="156" type="line"/>
      <point x="121" y="273" type="line"/>
      <point x="106" y="258" type="line"/>
      <point x="302" y="62" type="line"/>
    </contour>
  </outline>
</glyph>
<glyph name="uni21B7" format="2">
  <advance width="1000"/>
  <unicode hex="21B7"/>
  <outline>
    <contour>
      <point x="895" y="258" type="line"/>
      <point x="880" y="273" type="line"/>
      <point x="763" y="156" type="line"/>
      <point x="710" y="99" type="line"/>
      <point x="708" y="100" type="line"/>
      <point x="709" y="215" type="line"/>
      <point x="709" y="387" type="line" smooth="yes"/>
      <point x="709" y="578"/>
      <point x="588" y="705"/>
      <point x="409" y="705" type="curve" smooth="yes"/>
      <point x="228" y="705"/>
      <point x="107" y="578"/>
      <point x="107" y="387" type="curve"/>
      <point x="128" y="387" type="line"/>
      <point x="128" y="567"/>
      <point x="241" y="685"/>
      <point x="409" y="685" type="curve" smooth="yes"/>
      <point x="577" y="685"/>
      <point x="689" y="567"/>
      <point x="689" y="387" type="curve" smooth="yes"/>
      <point x="689" y="215" type="line"/>
      <point x="690" y="100" type="line"/>
      <point x="688" y="99" type="line"/>
      <point x="635" y="156" type="line"/>
      <point x="518" y="273" type="line"/>
      <point x="503" y="258" type="line"/>
      <point x="699" y="62" type="line"/>
    </contour>
  </outline>
</glyph>
<glyph name="uni21BB" format="2">
  <advance width="1000"/>
  <unicode hex="21BB"/>
  <outline>
    <contour>
      <point x="500" y="5" type="curve" smooth="yes"/>
      <point x="707" y="5"/>
      <point x="832" y="156"/>
      <point x="832" y="330" type="curve" smooth="yes"/>
      <point x="832" y="456"/>
      <point x="771" y="568"/>
      <point x="662" y="624" type="curve"/>
      <point x="651" y="606" type="line"/>
      <point x="752" y="555"/>
      <point x="811" y="451"/>
      <point x="811" y="330" type="curve" smooth="yes"/>
      <point x="811" y="164"/>
      <point x="691" y="25"/>
      <point x="500" y="25" type="curve" smooth="yes"/>
      <point x="309" y="25"/>
      <point x="189" y="163"/>
      <point x="189" y="331" type="curve" smooth="yes"/>
      <point x="189" y="488"/>
      <point x="289" y="562"/>
      <point x="393" y="653" type="curve" smooth="yes"/>
      <point x="458" y="710" type="line"/>
      <point x="460" y="709" type="line"/>
      <point x="457" y="631" type="line"/>
      <point x="457" y="467" type="line"/>
      <point x="478" y="467" type="line"/>
      <point x="478" y="743" type="line"/>
      <point x="202" y="743" type="line"/>
      <point x="202" y="722" type="line"/>
      <point x="367" y="722" type="line"/>
      <point x="444" y="725" type="line"/>
      <point x="445" y="723" type="line"/>
      <point x="380" y="666" type="line" smooth="yes"/>
      <point x="282" y="580"/>
      <point x="168" y="501"/>
      <point x="168" y="331" type="curve" smooth="yes"/>
      <point x="168" y="157"/>
      <point x="293" y="5"/>
    </contour>
  </outline>
</glyph>
<glyph name="uni21C4" format="2">
  <advance width="1000"/>
  <unicode hex="21C4"/>
  <outline>
    <contour>
      <point x="870" y="562" type="line"/>
      <point x="675" y="757" type="line"/>
      <point x="660" y="742" type="line"/>
      <point x="779" y="623" type="line"/>
      <point x="833" y="573" type="line"/>
      <point x="832" y="571" type="line"/>
      <point x="755" y="572" type="line"/>
      <point x="130" y="572" type="line"/>
      <point x="130" y="552" type="line"/>
      <point x="755" y="552" type="line"/>
      <point x="832" y="553" type="line"/>
      <point x="833" y="551" type="line"/>
      <point x="779" y="501" type="line"/>
      <point x="660" y="382" type="line"/>
      <point x="675" y="367" type="line"/>
    </contour>
    <contour>
      <point x="340" y="16" type="line"/>
      <point x="221" y="135" type="line"/>
      <point x="167" y="185" type="line"/>
      <point x="168" y="187" type="line"/>
      <point x="245" y="186" type="line"/>
      <point x="869" y="186" type="line"/>
      <point x="869" y="206" type="line"/>
      <point x="245" y="206" type="line"/>
      <point x="168" y="205" type="line"/>
      <point x="167" y="207" type="line"/>
      <point x="221" y="257" type="line"/>
      <point x="340" y="376" type="line"/>
      <point x="325" y="391" type="line"/>
      <point x="130" y="196" type="line"/>
      <point x="325" y="1" type="line"/>
    </contour>
  </outline>
</glyph>
<glyph name="uni2208" format="2">
  <advance width="1000"/>
  <unicode hex="2208"/>
  <outline>
    <contour>
      <point x="837" y="391" type="line"/>
      <point x="162" y="391" type="line"/>
      <point x="162" y="502"/>
      <point x="225" y="595"/>
      <point x="375" y="595" type="curve" smooth="yes"/>
      <point x="839" y="595" type="line"/>
      <point x="839" y="615" type="line"/>
      <point x="381" y="615" type="line" smooth="yes"/>
      <point x="208" y="615"/>
      <point x="140" y="510"/>
      <point x="140" y="381" type="curve" smooth="yes"/>
      <point x="140" y="250"/>
      <point x="206" y="146"/>
      <point x="381" y="146" type="curve" smooth="yes"/>
      <point x="839" y="146" type="line"/>
      <point x="839" y="166" type="line"/>
      <point x="375" y="166" type="line" smooth="yes"/>
      <point x="223" y="166"/>
      <point x="162" y="260"/>
      <point x="162" y="371" type="curve"/>
      <point x="837" y="371" type="line"/>
    </contour>
  </outline>
</glyph>
<glyph name="uni220F" format="2">
  <advance width="1000"/>
  <unicode hex="220F"/>
  <outline>
    <contour>
      <point x="310" y="-68" type="line"/>
      <point x="310" y="810" type="line"/>
      <point x="690" y="810" type="line"/>
      <point x="690" y="-68" type="line"/>
      <point x="712" y="-68" type="line"/>
      <point x="712" y="810" type="line"/>
      <point x="784" y="810" type="line"/>
      <point x="784" y="830" type="line"/>
      <point x="216" y="830" type="line"/>
      <point x="216" y="810" type="line"/>
      <point x="288" y="810" type="line"/>
      <point x="288" y="-68" type="line"/>
    </contour>
  </outline>
</glyph>
<glyph name="uni221D" format="2">
  <advance width="1000"/>
  <unicode hex="221D"/>
  <outline>
    <contour>
      <point x="341" y="203" type="curve" smooth="yes"/>
      <point x="421" y="203"/>
      <point x="493" y="263"/>
      <point x="517" y="359" type="curve"/>
      <point x="520" y="359" type="line"/>
      <point x="544" y="263"/>
      <point x="618" y="203"/>
      <point x="701" y="203" type="curve" smooth="yes"/>
      <point x="757" y="203"/>
      <point x="800" y="220"/>
      <point x="829" y="251" type="curve"/>
      <point x="814" y="265" type="line"/>
      <point x="788" y="237"/>
      <point x="749" y="222"/>
      <point x="703" y="222" type="curve" smooth="yes"/>
      <point x="631" y="222"/>
      <point x="563" y="269"/>
      <point x="532" y="382" type="curve"/>
      <point x="563" y="488"/>
      <point x="631" y="542"/>
      <point x="703" y="542" type="curve" smooth="yes"/>
      <point x="747" y="542"/>
      <point x="785" y="528"/>
      <point x="811" y="502" type="curve"/>
      <point x="826" y="516" type="line"/>
      <point x="797" y="545"/>
      <point x="755" y="561"/>
      <point x="701" y="561" type="curve" smooth="yes"/>
      <point x="621" y="561"/>
      <point x="549" y="501"/>
      <point x="525" y="405" type="curve"/>
      <point x="522" y="405" type="line"/>
      <point x="498" y="501"/>
      <point x="424" y="561"/>
      <point x="341" y="561" type="curve" smooth="yes"/>
      <point x="231" y="561"/>
      <point x="173" y="495"/>
      <point x="173" y="382" type="curve" smooth="yes"/>
      <point x="173" y="269"/>
      <point x="231" y="203"/>
    </contour>
    <contour>
      <point x="339" y="222" type="curve" smooth="yes"/>
      <point x="256" y="222"/>
      <point x="195" y="272"/>
      <point x="195" y="364" type="curve" smooth="yes"/>
      <point x="195" y="400" type="line" smooth="yes"/>
      <point x="195" y="492"/>
      <point x="256" y="542"/>
      <point x="339" y="542" type="curve" smooth="yes"/>
      <point x="411" y="542"/>
      <point x="479" y="495"/>
      <point x="510" y="382" type="curve"/>
      <point x="479" y="276"/>
      <point x="411" y="222"/>
    </contour>
  </outline>
</glyph>
<glyph name="uni221E" format="2">
  <advance width="1000"/>
  <unicode hex="221E"/>
  <outline>
    <contour>
      <point x="326" y="203" type="curve" smooth="yes"/>
      <point x="404" y="203"/>
      <point x="474" y="263"/>
      <point x="497" y="359" type="curve"/>
      <point x="500" y="359" type="line"/>
      <point x="523" y="263"/>
      <point x="595" y="203"/>
      <point x="676" y="203" type="curve" smooth="yes"/>
      <point x="783" y="203"/>
      <point x="839" y="269"/>
      <point x="839" y="382" type="curve" smooth="yes"/>
      <point x="839" y="495"/>
      <point x="783" y="561"/>
      <point x="676" y="561" type="curve" smooth="yes"/>
      <point x="598" y="561"/>
      <point x="528" y="501"/>
      <point x="505" y="405" type="curve"/>
      <point x="502" y="405" type="line"/>
      <point x="479" y="501"/>
      <point x="407" y="561"/>
      <point x="326" y="561" type="curve" smooth="yes"/>
      <point x="219" y="561"/>
      <point x="163" y="495"/>
      <point x="163" y="382" type="curve" smooth="yes"/>
      <point x="163" y="269"/>
      <point x="219" y="203"/>
    </contour>
    <contour>
      <point x="324" y="222" type="curve" smooth="yes"/>
      <point x="244" y="222"/>
      <point x="185" y="272"/>
      <point x="185" y="364" type="curve" smooth="yes"/>
      <point x="185" y="400" type="line" smooth="yes"/>
      <point x="185" y="492"/>
      <point x="244" y="542"/>
      <point x="324" y="542" type="curve" smooth="yes"/>
      <point x="394" y="542"/>
      <point x="460" y="495"/>
      <point x="490" y="382" type="curve"/>
      <point x="460" y="276"/>
      <point x="394" y="222"/>
    </contour>
    <contour>
      <point x="678" y="222" type="curve" smooth="yes"/>
      <point x="608" y="222"/>
      <point x="542" y="269"/>
      <point x="512" y="382" type="curve"/>
      <point x="542" y="488"/>
      <point x="608" y="542"/>
      <point x="678" y="542" type="curve" smooth="yes"/>
      <point x="758" y="542"/>
      <point x="817" y="492"/>
      <point x="817" y="400" type="curve" smooth="yes"/>
      <point x="817" y="364" type="line" smooth="yes"/>
      <point x="817" y="272"/>
      <point x="758" y="222"/>
    </contour>
  </outline>
</glyph>
<glyph name="uni2220" format="2">
  <advance width="1000"/>
  <unicode hex="2220"/>
  <outline>
    <contour>
      <point x="796" y="57" type="line"/>
      <point x="796" y="76" type="line"/>
      <point x="224" y="76" type="line"/>
      <point x="224" y="81" type="line"/>
      <point x="686" y="619" type="line"/>
      <point x="669" y="632" type="line"/>
      <point x="204" y="90" type="line"/>
      <point x="204" y="57" type="line"/>
    </contour>
  </outline>
</glyph>
<glyph name="uni2223" format="2">
  <advance width="1000"/>
  <unicode hex="2223"/>
  <outline>
    <contour>
      <point x="509" y="-120" type="line"/>
      <point x="509" y="880" type="line"/>
      <point x="491" y="880" type="line"/>
      <point x="491" y="-120" type="line"/>
    </contour>
  </outline>
</glyph>
<glyph name="uni2225" format="2">
  <advance width="1000"/>
  <unicode hex="2225"/>
  <outline>
    <contour>
      <point x="834" y="695" type="line"/>
      <point x="817" y="705" type="line"/>
      <point x="461" y="28" type="line"/>
      <point x="478" y="18" type="line"/>
    </contour>
    <contour>
      <point x="537" y="695" type="line"/>
      <point x="520" y="705" type="line"/>
      <point x="165" y="28" type="line"/>
      <point x="182" y="18" type="line"/>
    </contour>
  </outline>
</glyph>
<glyph name="uni2228" format="2">
  <advance width="1000"/>
  <unicode hex="2228"/>
  <outline>
    <contour>
      <point x="510" y="37" type="line"/>
      <point x="792" y="729" type="line"/>
      <point x="770" y="729" type="line"/>
      <point x="499" y="60" type="line"/>
      <point x="496" y="60" type="line"/>
      <point x="230" y="729" type="line"/>
      <point x="208" y="729" type="line"/>
      <point x="484" y="37" type="line"/>
    </contour>
  </outline>
</glyph>
<glyph name="uni2229" format="2">
  <advance width="1000"/>
  <unicode hex="2229"/>
  <outline>
    <contour>
      <point x="296" y="460" type="line" smooth="yes"/>
      <point x="296" y="649"/>
      <point x="344" y="720"/>
      <point x="500" y="720" type="curve" smooth="yes"/>
      <point x="656" y="720"/>
      <point x="704" y="649"/>
      <point x="704" y="460" type="curve" smooth="yes"/>
      <point x="704" y="30" type="line"/>
      <point x="726" y="30" type="line"/>
      <point x="726" y="458" type="line" smooth="yes"/>
      <point x="726" y="665"/>
      <point x="668" y="740"/>
      <point x="500" y="740" type="curve" smooth="yes"/>
      <point x="332" y="740"/>
      <point x="274" y="665"/>
      <point x="274" y="458" type="curve" smooth="yes"/>
      <point x="274" y="30" type="line"/>
      <point x="296" y="30" type="line"/>
    </contour>
  </outline>
</glyph>
<glyph name="uni222A" format="2">
  <advance width="1000"/>
  <unicode hex="222A"/>
  <outline>
    <contour>
      <point x="274" y="737" type="line"/>
      <point x="274" y="309" type="line" smooth="yes"/>
      <point x="274" y="102"/>
      <point x="332" y="27"/>
      <point x="500" y="27" type="curve" smooth="yes"/>
      <point x="668" y="27"/>
      <point x="726" y="102"/>
      <point x="726" y="309" type="curve" smooth="yes"/>
      <point x="726" y="737" type="line"/>
      <point x="704" y="737" type="line"/>
      <point x="704" y="307" type="line" smooth="yes"/>
      <point x="704" y="118"/>
      <point x="656" y="47"/>
      <point x="500" y="47" type="curve" smooth="yes"/>
      <point x="344" y="47"/>
      <point x="296" y="118"/>
      <point x="296" y="307" type="curve" smooth="yes"/>
      <point x="296" y="737" type="line"/>
    </contour>
  </outline>
</glyph>
<glyph name="uni222B" format="2">
  <advance width="1000"/>
  <unicode hex="222B"/>
  <outline>
    <contour>
      <point x="372" y="-89" type="line"/>
      <point x="479" y="-89" type="line" smooth="yes"/>
      <point x="500" y="-89"/>
      <point x="510" y="-80"/>
      <point x="510" y="-59" type="curve" smooth="yes"/>
      <point x="510" y="832" type="line"/>
      <point x="627" y="832" type="line"/>
      <point x="627" y="851" type="line"/>
      <point x="520" y="851" type="line" smooth="yes"/>
      <point x="499" y="851"/>
      <point x="489" y="842"/>
      <point x="489" y="821" type="curve" smooth="yes"/>
      <point x="489" y="-70" type="line"/>
      <point x="372" y="-70" type="line"/>
    </contour>
  </outline>
</glyph>
<glyph name="uni222E" format="2">
  <advance width="1000"/>
  <unicode hex="222E"/>
  <outline>
    <contour>
      <point x="378" y="-91" type="line"/>
      <point x="488" y="-91" type="line" smooth="yes"/>
      <point x="508" y="-91"/>
      <point x="515" y="-84"/>
      <point x="515" y="-64" type="curve" smooth="yes"/>
      <point x="515" y="196" type="line"/>
      <point x="611" y="201"/>
      <point x="681" y="281"/>
      <point x="681" y="380" type="curve" smooth="yes"/>
      <point x="681" y="480"/>
      <point x="610" y="559"/>
      <point x="515" y="564" type="curve"/>
      <point x="515" y="830" type="line"/>
      <point x="631" y="830" type="line"/>
      <point x="631" y="849" type="line"/>
      <point x="521" y="849" type="line" smooth="yes"/>
      <point x="501" y="849"/>
      <point x="494" y="841"/>
      <point x="494" y="821" type="curve" smooth="yes"/>
      <point x="494" y="564" type="line"/>
      <point x="397" y="559"/>
      <point x="327" y="482"/>
      <point x="327" y="380" type="curve" smooth="yes"/>
      <point x="327" y="278"/>
      <point x="397" y="201"/>
      <point x="494" y="196" type="curve"/>
      <point x="494" y="-72" type="line"/>
      <point x="378" y="-72" type="line"/>
    </contour>
    <contour>
      <point x="348" y="380" type="curve" smooth="yes"/>
      <point x="348" y="467"/>
      <point x="406" y="540"/>
      <point x="494" y="545" type="curve"/>
      <point x="494" y="215" type="line"/>
      <point x="405" y="220"/>
      <point x="348" y="293"/>
    </contour>
    <contour>
      <point x="515" y="545" type="line"/>
      <point x="605" y="540"/>
      <point x="660" y="464"/>
      <point x="660" y="380" type="curve" smooth="yes"/>
      <point x="660" y="296"/>
      <point x="603" y="220"/>
      <point x="515" y="215" type="curve"/>
    </contour>
  </outline>
</glyph>
<glyph name="uni2234" format="2">
  <advance width="1000"/>
  <unicode hex="2234"/>
  <outline>
    <contour>
      <point x="500" y="511" type="curve" smooth="yes"/>
      <point x="518" y="511"/>
      <point x="527" y="519"/>
      <point x="527" y="536" type="curve" smooth="yes"/>
      <point x="527" y="544" type="line" smooth="yes"/>
      <point x="527" y="561"/>
      <point x="518" y="569"/>
      <point x="500" y="569" type="curve" smooth="yes"/>
      <point x="482" y="569"/>
      <point x="473" y="561"/>
      <point x="473" y="544" type="curve" smooth="yes"/>
      <point x="473" y="536" type="line" smooth="yes"/>
      <point x="473" y="519"/>
      <point x="482" y="511"/>
    </contour>
    <contour>
      <point x="297" y="161" type="curve" smooth="yes"/>
      <point x="315" y="161"/>
      <point x="324" y="169"/>
      <point x="324" y="186" type="curve" smooth="yes"/>
      <point x="324" y="194" type="line" smooth="yes"/>
      <point x="324" y="211"/>
      <point x="315" y="219"/>
      <point x="297" y="219" type="curve" smooth="yes"/>
      <point x="279" y="219"/>
      <point x="270" y="211"/>
      <point x="270" y="194" type="curve" smooth="yes"/>
      <point x="270" y="186" type="line" smooth="yes"/>
      <point x="270" y="169"/>
      <point x="279" y="161"/>
    </contour>
    <contour>
      <point x="703" y="161" type="curve" smooth="yes"/>
      <point x="721" y="161"/>
      <point x="730" y="169"/>
      <point x="730" y="186" type="curve" smooth="yes"/>
      <point x="730" y="194" type="line" smooth="yes"/>
      <point x="730" y="211"/>
      <point x="721" y="219"/>
      <point x="703" y="219" type="curve" smooth="yes"/>
      <point x="685" y="219"/>
      <point x="676" y="211"/>
      <point x="676" y="194" type="curve" smooth="yes"/>
      <point x="676" y="186" type="line" smooth="yes"/>
      <point x="676" y="169"/>
      <point x="685" y="161"/>
    </contour>
  </outline>
</glyph>
<glyph name="uni2235" format="2">
  <advance width="1000"/>
  <unicode hex="2235"/>
  <outline>
    <contour>
      <point x="703" y="511" type="curve" smooth="yes"/>
      <point x="721" y="511"/>
      <point x="730" y="519"/>
      <point x="730" y="536" type="curve" smooth="yes"/>
      <point x="730" y="544" type="line" smooth="yes"/>
      <point x="730" y="561"/>
      <point x="721" y="569"/>
      <point x="703" y="569" type="curve" smooth="yes"/>
      <point x="685" y="569"/>
      <point x="676" y="561"/>
      <point x="676" y="544" type="curve" smooth="yes"/>
      <point x="676" y="536" type="line" smooth="yes"/>
      <point x="676" y="519"/>
      <point x="685" y="511"/>
    </contour>
    <contour>
      <point x="500" y="161" type="curve" smooth="yes"/>
      <point x="518" y="161"/>
      <point x="527" y="169"/>
      <point x="527" y="186" type="curve" smooth="yes"/>
      <point x="527" y="194" type="line" smooth="yes"/>
      <point x="527" y="211"/>
      <point x="518" y="219"/>
      <point x="500" y="219" type="curve" smooth="yes"/>
      <point x="482" y="219"/>
      <point x="473" y="211"/>
      <point x="473" y="194" type="curve" smooth="yes"/>
      <point x="473" y="186" type="line" smooth="yes"/>
      <point x="473" y="169"/>
      <point x="482" y="161"/>
    </contour>
    <contour>
      <point x="297" y="511" type="curve" smooth="yes"/>
      <point x="315" y="511"/>
      <point x="324" y="519"/>
      <point x="324" y="536" type="curve" smooth="yes"/>
      <point x="324" y="544" type="line" smooth="yes"/>
      <point x="324" y="561"/>
      <point x="315" y="569"/>
      <point x="297" y="569" type="curve" smooth="yes"/>
      <point x="279" y="569"/>
      <point x="270" y="561"/>
      <point x="270" y="544" type="curve" smooth="yes"/>
      <point x="270" y="536" type="line" smooth="yes"/>
      <point x="270" y="519"/>
      <point x="279" y="511"/>
    </contour>
  </outline>
</glyph>
<glyph name="uni2236" format="2">
  <advance width="358"/>
  <unicode hex="2236"/>
  <outline>
    <contour>
      <point x="179" y="510" type="curve" smooth="yes"/>
      <point x="199" y="510"/>
      <point x="209" y="520"/>
      <point x="209" y="538" type="curve" smooth="yes"/>
      <point x="209" y="546" type="line" smooth="yes"/>
      <point x="209" y="564"/>
      <point x="199" y="574"/>
      <point x="179" y="574" type="curve" smooth="yes"/>
      <point x="159" y="574"/>
      <point x="149" y="564"/>
      <point x="149" y="546" type="curve" smooth="yes"/>
      <point x="149" y="538" type="line" smooth="yes"/>
      <point x="149" y="520"/>
      <point x="159" y="510"/>
    </contour>
    <contour>
      <point x="179" y="144" type="curve" smooth="yes"/>
      <point x="199" y="144"/>
      <point x="209" y="154"/>
      <point x="209" y="172" type="curve" smooth="yes"/>
      <point x="209" y="180" type="line" smooth="yes"/>
      <point x="209" y="198"/>
      <point x="199" y="208"/>
      <point x="179" y="208" type="curve" smooth="yes"/>
      <point x="159" y="208"/>
      <point x="149" y="198"/>
      <point x="149" y="180" type="curve" smooth="yes"/>
      <point x="149" y="172" type="line" smooth="yes"/>
      <point x="149" y="154"/>
      <point x="159" y="144"/>
    </contour>
  </outline>
</glyph>
<glyph name="uni223D" format="2">
  <advance width="1000"/>
  <unicode hex="223D"/>
  <outline>
    <contour>
      <point x="501" y="401" type="curve" smooth="yes"/>
      <point x="452" y="305"/>
      <point x="406" y="222"/>
      <point x="324" y="222" type="curve" smooth="yes"/>
      <point x="244" y="222"/>
      <point x="185" y="272"/>
      <point x="185" y="364" type="curve" smooth="yes"/>
      <point x="185" y="400" type="line" smooth="yes"/>
      <point x="185" y="492"/>
      <point x="244" y="542"/>
      <point x="324" y="542" type="curve" smooth="yes"/>
      <point x="365" y="542"/>
      <point x="405" y="526"/>
      <point x="437" y="490" type="curve"/>
      <point x="451" y="505" type="line"/>
      <point x="417" y="541"/>
      <point x="373" y="561"/>
      <point x="326" y="561" type="curve" smooth="yes"/>
      <point x="219" y="561"/>
      <point x="163" y="495"/>
      <point x="163" y="382" type="curve" smooth="yes"/>
      <point x="163" y="269"/>
      <point x="219" y="203"/>
      <point x="326" y="203" type="curve" smooth="yes"/>
      <point x="424" y="203"/>
      <point x="471" y="303"/>
      <point x="519" y="394" type="curve" smooth="yes"/>
      <point x="567" y="485"/>
      <point x="599" y="542"/>
      <point x="678" y="542" type="curve" smooth="yes"/>
      <point x="758" y="542"/>
      <point x="817" y="492"/>
      <point x="817" y="400" type="curve" smooth="yes"/>
      <point x="817" y="364" type="line" smooth="yes"/>
      <point x="817" y="272"/>
      <point x="758" y="222"/>
      <point x="678" y="222" type="curve" smooth="yes"/>
      <point x="634" y="222"/>
      <point x="592" y="240"/>
      <point x="559" y="282" type="curve"/>
      <point x="545" y="266" type="line"/>
      <point x="579" y="226"/>
      <point x="626" y="203"/>
      <point x="676" y="203" type="curve" smooth="yes"/>
      <point x="783" y="203"/>
      <point x="839" y="269"/>
      <point x="839" y="382" type="curve" smooth="yes"/>
      <point x="839" y="495"/>
      <point x="783" y="561"/>
      <point x="676" y="561" type="curve" smooth="yes"/>
      <point x="589" y="561"/>
      <point x="549" y="495"/>
    </contour>
  </outline>
</glyph>
<glyph name="uni2248" format="2">
  <advance width="1000"/>
  <unicode hex="2248"/>
  <outline>
    <contour>
      <point x="180" y="475" type="line"/>
      <point x="230" y="550"/>
      <point x="273" y="581"/>
      <point x="340" y="581" type="curve" smooth="yes"/>
      <point x="385" y="581"/>
      <point x="428" y="560"/>
      <point x="492" y="523" type="curve" smooth="yes"/>
      <point x="575" y="475"/>
      <point x="618" y="460"/>
      <point x="668" y="460" type="curve" smooth="yes"/>
      <point x="735" y="460"/>
      <point x="789" y="495"/>
      <point x="835" y="574" type="curve"/>
      <point x="819" y="585" type="line"/>
      <point x="772" y="510"/>
      <point x="732" y="480"/>
      <point x="670" y="480" type="curve" smooth="yes"/>
      <point x="621" y="480"/>
      <point x="580" y="495"/>
      <point x="505" y="538" type="curve" smooth="yes"/>
      <point x="431" y="580"/>
      <point x="388" y="601"/>
      <point x="341" y="601" type="curve" smooth="yes"/>
      <point x="271" y="601"/>
      <point x="214" y="566"/>
      <point x="164" y="486" type="curve"/>
    </contour>
    <contour>
      <point x="180" y="185" type="line"/>
      <point x="230" y="260"/>
      <point x="273" y="291"/>
      <point x="340" y="291" type="curve" smooth="yes"/>
      <point x="385" y="291"/>
      <point x="428" y="270"/>
      <point x="492" y="233" type="curve" smooth="yes"/>
      <point x="575" y="185"/>
      <point x="618" y="170"/>
      <point x="668" y="170" type="curve" smooth="yes"/>
      <point x="735" y="170"/>
      <point x="789" y="205"/>
      <point x="835" y="284" type="curve"/>
      <point x="819" y="295" type="line"/>
      <point x="772" y="220"/>
      <point x="732" y="190"/>
      <point x="670" y="190" type="curve" smooth="yes"/>
      <point x="621" y="190"/>
      <point x="580" y="205"/>
      <point x="505" y="248" type="curve" smooth="yes"/>
      <point x="431" y="290"/>
      <point x="388" y="311"/>
      <point x="341" y="311" type="curve" smooth="yes"/>
      <point x="271" y="311"/>
      <point x="214" y="276"/>
      <point x="164" y="196" type="curve"/>
    </contour>
  </outline>
</glyph>
<glyph name="uni2252" format="2">
  <advance width="1000"/>
  <unicode hex="2252"/>
  <outline>
    <contour>
      <point x="870" y="485" type="line"/>
      <point x="870" y="503" type="line"/>
      <point x="130" y="503" type="line"/>
      <point x="130" y="485" type="line"/>
    </contour>
    <contour>
      <point x="870" y="257" type="line"/>
      <point x="870" y="275" type="line"/>
      <point x="130" y="275" type="line"/>
      <point x="130" y="257" type="line"/>
    </contour>
    <contour>
      <point x="367" y="671" type="curve" smooth="yes"/>
      <point x="385" y="671"/>
      <point x="394" y="679"/>
      <point x="394" y="696" type="curve" smooth="yes"/>
      <point x="394" y="704" type="line" smooth="yes"/>
      <point x="394" y="721"/>
      <point x="385" y="729"/>
      <point x="367" y="729" type="curve" smooth="yes"/>
      <point x="349" y="729"/>
      <point x="340" y="721"/>
      <point x="340" y="704" type="curve" smooth="yes"/>
      <point x="340" y="696" type="line" smooth="yes"/>
      <point x="340" y="679"/>
      <point x="349" y="671"/>
    </contour>
    <contour>
      <point x="633" y="31" type="curve" smooth="yes"/>
      <point x="651" y="31"/>
      <point x="660" y="39"/>
      <point x="660" y="56" type="curve" smooth="yes"/>
      <point x="660" y="64" type="line" smooth="yes"/>
      <point x="660" y="81"/>
      <point x="651" y="89"/>
      <point x="633" y="89" type="curve" smooth="yes"/>
      <point x="615" y="89"/>
      <point x="606" y="81"/>
      <point x="606" y="64" type="curve" smooth="yes"/>
      <point x="606" y="56" type="line" smooth="yes"/>
      <point x="606" y="39"/>
      <point x="615" y="31"/>
    </contour>
  </outline>
</glyph>
<glyph name="uni2260" format="2">
  <advance width="601"/>
  <unicode hex="2260"/>
  <outline>
    <contour>
      <point x="181" y="103" type="line"/>
      <point x="251" y="218" type="line"/>
      <point x="538" y="218" type="line"/>
      <point x="538" y="237" type="line"/>
      <point x="262" y="237" type="line"/>
      <point x="359" y="396" type="line"/>
      <point x="538" y="396" type="line"/>
      <point x="538" y="415" type="line"/>
      <point x="370" y="415" type="line"/>
      <point x="440" y="530" type="line"/>
      <point x="419" y="530" type="line"/>
      <point x="349" y="415" type="line"/>
      <point x="62" y="415" type="line"/>
      <point x="62" y="396" type="line"/>
      <point x="338" y="396" type="line"/>
      <point x="241" y="237" type="line"/>
      <point x="62" y="237" type="line"/>
      <point x="62" y="218" type="line"/>
      <point x="230" y="218" type="line"/>
      <point x="160" y="103" type="line"/>
    </contour>
  </outline>
</glyph>
<glyph name="uni2266" format="2">
  <advance width="1000"/>
  <unicode hex="2266"/>
  <outline>
    <contour>
      <point x="150" y="561" type="line"/>
      <point x="851" y="381" type="line"/>
      <point x="851" y="402" type="line"/>
      <point x="181" y="571" type="line"/>
      <point x="181" y="573" type="line"/>
      <point x="851" y="742" type="line"/>
      <point x="851" y="763" type="line"/>
      <point x="150" y="583" type="line"/>
    </contour>
    <contour>
      <point x="851" y="254" type="line"/>
      <point x="851" y="273" type="line"/>
      <point x="150" y="273" type="line"/>
      <point x="150" y="254" type="line"/>
    </contour>
    <contour>
      <point x="851" y="60" type="line"/>
      <point x="851" y="79" type="line"/>
      <point x="150" y="79" type="line"/>
      <point x="150" y="60" type="line"/>
    </contour>
  </outline>
</glyph>
<glyph name="uni226E" format="2">
  <advance width="1000"/>
  <unicode hex="226E"/>
  <outline>
    <contour>
      <point x="853" y="74" type="line"/>
      <point x="168" y="360" type="line"/>
      <point x="168" y="363" type="line"/>
      <point x="853" y="648" type="line"/>
      <point x="853" y="668" type="line"/>
      <point x="137" y="371" type="line"/>
      <point x="137" y="352" type="line"/>
      <point x="853" y="54" type="line"/>
    </contour>
    <contour>
      <point x="413" y="-14" type="line"/>
      <point x="663" y="744" type="line"/>
      <point x="643" y="744" type="line"/>
      <point x="393" y="-14" type="line"/>
    </contour>
  </outline>
</glyph>
